<?xml version="1.0" encoding="UTF-8"?>
<svg xmlns="http://www.w3.org/2000/svg" version="1.1" xmlns:xlink="http://www.w3.org/1999/xlink" viewBox="0 0 176.6 198.94">
  <defs>
    <style>
      .cls-1 {
        fill: #e4e1e1;
      }

      .cls-2 {
        fill: #fff;
      }

      .cls-3 {
        fill: none;
      }

      .cls-4 {
        fill: #90414b;
      }

      .cls-5 {
        fill: #453a36;
      }

      .cls-6 {
        clip-path: url(#clippath);
      }
    </style>
    <clipPath id="clippath">
      <circle class="cls-3" cx="91.63" cy="108.88" r="77"/>
    </clipPath>
  </defs>
  <!-- Generator: Adobe Illustrator 28.7.1, SVG Export Plug-In . SVG Version: 1.2.0 Build 142)  -->
  <g>
    <g id="Capa_1">
      <g>
        <g class="cls-6">
          <g>
            <rect class="cls-1" x="-34.49" y="2.78" width="237.6" height="194.61"/>
            <g>
              <rect class="cls-2" x="2.81" y="74.28" width="153.02" height="4.25" transform="translate(-24.75 40.38) rotate(-24.84)"/>
              <rect class="cls-2" x="65.25" y="26.81" width="2.83" height="52.76" transform="translate(-16.18 32.95) rotate(-24.85)"/>
              <path class="cls-2" d="M126.65,75.8c-.5,0-.99-.02-1.46-.05-8.53-.59-12.55-12.31-13.2-14.38l-2.05-2.47c-5.07-.14-38.51-1.05-49.83-1.77-12.5-.8-24.22-7.45-24.72-7.73l1.41-2.46c.12.07,11.66,6.61,23.49,7.36,12.15.78,49.98,1.77,50.37,1.78l.64.02,3.24,3.91.08.28c.04.12,3.58,12.13,10.76,12.63,3.72.26,8.61-.72,13.78-1.75,8.09-1.61,17.25-3.44,24.23-.81l-1,2.65c-6.22-2.35-14.59-.68-22.68.94-4.74.95-9.25,1.85-13.07,1.85Z"/>
              <path class="cls-2" d="M115.28,60.52c-1.08,0-2.01-.31-2.77-.92-2.81-2.27-1.69-7.7-1.55-8.31l.05-.17c4.58-12.72,7.17-19.5,7.72-20.15l2.17,1.82s.05-.06.08-.11c-.62,1.06-4.78,12.37-7.28,19.31-.3,1.43-.54,4.5.58,5.41.64.52,1.99.34,3.79-.5l1.19,2.57c-1.51.7-2.84,1.05-4,1.05Z"/>
              <rect class="cls-2" x="101.03" y="24.11" width="2.83" height="35.4" transform="translate(-7.72 52.09) rotate(-27.53)"/>
              <path class="cls-2" d="M139.11,170.45l-2.22-1.76c-.27.34-.3.72-.28.87-.09-.63-1.36-3.85-2.6-6.97-3.05-7.72-7.66-19.39-9.44-27.99-4.23-20.49-.44-38.24,11.29-52.74,12.27-15.18,24.52-12.8,29.13-11.91.54.1,1.2.23,1.4.23-.18,0-.61.17-.84.63l2.54,1.26c-.62,1.25-1.95.99-3.64.67-4.55-.88-15.19-2.94-26.39,10.91-11.17,13.81-14.77,30.76-10.72,50.38,1.73,8.36,6.28,19.89,9.3,27.53,2.99,7.56,3.16,8.01,2.46,8.9Z"/>
              <path class="cls-2" d="M9.06,125.01c-2.5,0-4.01-.61-4.15-.67l1.09-2.62c.27.11,6.84,2.61,16.12-5.27,10.58-8.98,22.91-13.19,37.94-17.76,2.65-.8,5.06-1.52,7.29-2.18,11.05-3.28,17.73-5.26,28.01-10.62,12.21-6.36,31.45-13.5,42.52-14.45l.24,2.82c-10.57.91-29.75,8.04-41.45,14.14-10.52,5.48-17.3,7.49-28.51,10.82-2.23.66-4.63,1.38-7.27,2.18-15.2,4.62-26.74,8.56-36.93,17.21-6.19,5.25-11.47,6.39-14.9,6.39Z"/>
              <path class="cls-2" d="M49.67,104.89l-1.27-.62c1.44-2.97,3.54-8.26,3.03-9.83-.73-2.23-2.24-3.81-2.25-3.83l-.08-.08-.05-.1-20.64-42.53,1.27-.62,20.59,42.43c.36.39,1.76,2.02,2.5,4.29.86,2.62-2.69,10.05-3.1,10.89Z"/>
              <path class="cls-2" d="M60.48,100.76c-.63,0-7.58-2.39-11.44-10.33l1.27-.62c3.31,6.81,9.23,9.33,10.26,9.54l-.1.48v.93Z"/>
              <rect class="cls-2" x="77.41" y="42.31" width="11.33" height="182.18" transform="translate(-62.55 192.47) rotate(-80.17)"/>
              <path class="cls-2" d="M85.17,187.99c-.68-.64-16.75-15.93-24.11-29.38-7.82-14.3,9.62-28.15,9.79-28.29l1.74,2.23c-.16.12-15.72,12.51-9.05,24.7,7.15,13.06,23.41,28.53,23.57,28.68l-1.95,2.06Z"/>
            </g>
          </g>
        </g>
        <g>
          <path class="cls-1" d="M42.02,75.86c-.24,0-.45-.03-.66-.06-.2-.03-.38-.06-.59-.06-.08,0-.16,0-.26.01-.12.01-.23.02-.34.02-1.07,0-1.96-.5-2.75-.94-.67-.38-1.3-.73-1.94-.73-.85,0-1.59-.32-2.14-.93-.55-.61-.79-1.39-.89-2.08-1.25-.02-3.16-.04-4.69-.04-1.62,0-2.13.03-2.29.04-.17.02-.32.02-.45.02-1.32,0-1.9-.67-2.14-.95,0,0,0,0,0,0-.69-.48-4.37-3.15-5.14-3.71l-.49-.35-.09-.6c-.05-.29-.26-.99-.61-1.26-.99-.77-1.42-2.25-1.92-4.26-.11-.46-.22-.9-.32-1.18-.12-.36-.22-.75-.31-1.14-.09-.38-.25-1.02-.4-1.36-1.12-.19-2.27-1.19-2.27-3.56,0-.33-.02-.49-.04-.57-.01,0-.02,0-.04,0-.73-.13-1.26-.46-1.58-.97-.49-.78-.26-1.58-.09-2.17.04-.16.09-.32.13-.5.1-.48.07-.79.03-1.21-.03-.26-.05-.55-.05-.9,0-1.11.86-1.85,1.56-2.44.2-.17.53-.46.63-.59.27-.68.78-1.19,1.32-1.73.44-.44.9-.9,1.29-1.5.43-.67.97-1.51,1.96-1.51.31,0,.55.09.73.17.17-.14.41-.33.76-.55.11-.07.26-.38.4-.69.23-.48.51-1.08,1.02-1.71.84-1.03,1.81-1.45,2.45-1.72.19-.08.39-.17.48-.23.14-.1.36-.45.41-.65-.24-.86.13-1.75.49-2.61.04-.09.07-.17.11-.26-.39-.39-.97-1.28-.4-2.82.21-.56.55-1.15.91-1.55.03-.13.07-.38.09-.55.07-.48.15-1.02.39-1.5.32-.63.93-1.01,1.63-1.01.43,0,.82.14,1.19.27.33.12.68.24,1.05.27.06,0,.12.01.18.02-.06-.29-.07-.61,0-.95.11-.56.41-.93.77-1.15-.54-.62-.53-1.26-.47-1.59.2-1.13,1.29-1.66,2.02-2.01l.13-.06c.03-.08.1-.31.1-.85,0-1.53,1.17-2.44,2.28-2.44.72,0,1.35.38,1.65.98.09.15.63.79,1.13,1.34l.17.19.1.24c.14.34.43.96.62,1.2.51.64.83,1.64-.57,2.8-.26.22-.56.46-.9.86-.03.04-.06.07-.09.11.27.06.59.15.92.33.42.23.74.51,1.03.75.37.32.7.6,1.3.83.27.1.51.17.73.23.81.24,2.32.67,2.15,2.86-.04.48.02.59,1.08,1.56l.33.3c1.46,1.35,1.6,2.27.58,3.76-.1.15-.21.31-.34.52-.5.8-.34,1.74.43,2.51.66.66,2.17,1.29,3.28,1.74.63.26,1.17.48,1.59.71,1.17.64,1.42,1.86,1.58,2.59.02.1.05.23.08.34,1.48.6,2.44,1.76,2.79,3.38.35,1.61-.31,2.7-.75,3.43-.15.24-.28.45-.35.65-.13.32-.09.98-.07,1.46.02.38.04.74,0,1.09.29.26.7.65,1.02,1.23.34.62.66.87,1.7,1.66l.1.08c.99.75,1.03,1.52.89,2.03-.32,1.17-1.51,1.32-2.78,1.47.03.07.06.14.08.2.03.06.1.17.18.28.41.65,1.24,1.99.59,3.54.31.34.49.73.53,1.16.05.53-.1,1.31-1.07,2.04.19.58.52,1.55.82,2.09.88,1.58-.24,2.57-.61,2.89-.19.17-.34.3-.46.5-.82,1.36-1.97,1.64-2.9,1.85-.17.04-.35.08-.54.13-.35.1-.74.15-1.14.15h0c-.96,0-1.89-.27-2.7-.51-.05-.01-.1-.03-.15-.04-.11.24-.23.56-.33.83-.14.37-.29.77-.46,1.17-.25.56-.82,1.88-2.35,1.88ZM52.55,65.15h0Z"/>
          <path class="cls-2" d="M33.14,15.89c.17,0,.32.07.38.2.21.42,1.35,1.66,1.35,1.66,0,0,.42,1.04.83,1.56.42.52-.42.62-1.45,1.87-1.04,1.25-.62,1.25-.42,1.87.21.62.91.32,1.66.73.75.4,1.14,1.14,2.49,1.66,1.35.52,2.08.31,1.97,1.66-.1,1.35.62,1.87,1.86,3.01,1.23,1.14.84,1.14,0,2.49-.84,1.35-.61,3.01.63,4.26,1.25,1.25,4.05,2.08,5.19,2.7,1.14.62.62,2.6,1.56,2.91.93.31,1.86.96,2.18,2.46.33,1.5-.62,2.21-1.04,3.25-.42,1.04,0,2.6-.21,3.21-.21.61.73.84,1.25,1.78.52.93,1.09,1.35,2.19,2.18,1.1.83-.32.83-1.88,1.04-1.56.21-.62,1.35-.42,1.97.21.62,1.35,1.66.77,2.89-.58,1.23-1.39.54-.46.95.93.42,1.33.95.31,1.66-1.02.71-.52,1.14-.52,1.14,0,0,.52,1.77,1.04,2.7.52.93-.42.93-1.04,1.97-.62,1.04-1.45,1.04-2.6,1.35-.25.07-.51.1-.77.1-.95,0-1.97-.37-2.87-.62-.1-.03-.19-.04-.28-.04-.9,0-1.14,1.43-1.8,2.95-.37.84-.66,1.03-1.05,1.03-.31,0-.7-.12-1.25-.12-.12,0-.26,0-.4.02-.07,0-.13.01-.2.01-1.48,0-2.79-1.67-4.68-1.67s-1.66-2.98-1.66-2.98c0,0-3.51-.06-6.06-.06-1.12,0-2.06.01-2.43.05-.12.01-.22.02-.32.02-.92,0-.98-.47-1.26-.65-.31-.21-5.19-3.74-5.19-3.74,0,0-.21-1.45-1.14-2.18-.93-.73-1.35-3.53-1.77-4.78-.42-1.25-.62-3.43-1.66-3.43s-1.25-1.35-1.25-2.18-.1-1.77-1.25-1.97c-1.14-.21-.62-.93-.42-1.97.21-1.04,0-1.56,0-2.39s1.77-1.66,2.08-2.49c.31-.83,1.56-1.56,2.49-3.01.44-.68.62-.86.77-.86.17,0,.29.24.68.24.73,0,.73-.31,1.56-.83.83-.52.87-1.6,1.77-2.7.9-1.1,1.97-1.25,2.61-1.66.63-.42,1.24-1.56,1.01-2.18-.22-.62.64-1.97.85-2.91.08-.36.1-.44.05-.44-.04,0-.11.05-.23.05-.11,0-.26-.05-.45-.23-.62-.62.21-2.08.62-2.49.42-.42.31-1.66.62-2.28.08-.17.2-.23.36-.23.43,0,1.14.47,2.13.54,1.35.1.62.62,1.66.73.06,0,.12,0,.17,0,.82,0,.45-.76.35-1.15-.1-.42-.62-1.04-.5-1.66.03-.16.09-.22.17-.22.17,0,.45.28.79.28.09,0,.18-.02.27-.07.62-.31,0-1.56-.73-2.28-.73-.73.62-1.25,1.25-1.56.62-.31.82-1.04.83-2.08,0-.71.49-1.03.86-1.03M33.14,13.06c-2.03,0-3.64,1.65-3.69,3.77-.85.46-1.98,1.27-2.24,2.76-.09.55-.05,1.1.13,1.62-.1.16-.19.34-.26.53-.34-.11-.74-.19-1.19-.19h0c-1.25,0-2.33.67-2.9,1.8-.34.69-.44,1.38-.52,1.93,0,.04-.01.08-.02.13-1.04,1.34-1.74,3.47-.79,5.18-.27.68-.52,1.45-.48,2.27-.73.31-1.91.84-2.95,2.11-.62.76-.96,1.48-1.2,2-.04.08-.08.18-.12.26-.02.01-.03.02-.04.03-.14-.02-.28-.03-.44-.03-1.77,0-2.67,1.41-3.16,2.16-.3.47-.69.86-1.1,1.27-.53.53-1.13,1.13-1.52,1.94-.1.09-.24.22-.35.31-.77.66-2.05,1.76-2.05,3.52,0,.42.03.76.06,1.04.04.39.05.52,0,.79-.02.11-.06.25-.1.4-.2.7-.56,2,.26,3.31.26.42.71.93,1.46,1.28.13,2.3,1.22,3.66,2.56,4.23.05.19.1.39.14.55.1.41.21.83.34,1.24.08.23.18.66.29,1.08.45,1.8.96,3.84,2.35,4.98.05.09.12.28.15.42l.13,1.23,1.01.64c1.29.94,4.11,2.98,5.02,3.62.42.46,1.35,1.31,3.09,1.31.19,0,.39,0,.59-.03.06,0,.46-.04,2.16-.04,1.13,0,2.46.01,3.59.03.2.56.5,1.13.95,1.62.81.9,1.94,1.39,3.19,1.39.26,0,.78.29,1.24.55.89.5,2,1.12,3.44,1.12.16,0,.33,0,.49-.03.04,0,.07,0,.11,0,.11,0,.22.02.39.04.23.03.52.08.86.08,1.63,0,2.86-.92,3.65-2.73.13-.3.25-.59.35-.86.62.15,1.29.27,2,.27.53,0,1.04-.07,1.51-.2.17-.05.33-.08.49-.12,1-.23,2.66-.63,3.79-2.5.02-.02.11-.1.18-.16,2.04-1.8,1.44-3.68.91-4.64-.12-.22-.28-.6-.42-1,.83-.99.9-1.99.85-2.57-.04-.38-.14-.82-.38-1.26.24-1.07.03-2.03-.27-2.77.89-.32,1.69-.91,2.02-2.11.17-.61.37-2.19-1.41-3.53l-.1-.08c-.99-.75-1.13-.88-1.32-1.22-.26-.47-.56-.84-.83-1.12,0-.19-.01-.38-.02-.57-.01-.27-.04-.71-.01-.9.05-.1.14-.25.23-.4.49-.8,1.4-2.3.93-4.46-.39-1.81-1.42-3.22-2.94-4.06-.21-.91-.68-2.36-2.21-3.19-.49-.27-1.06-.5-1.73-.78-.88-.37-2.36-.98-2.82-1.44-.43-.43-.28-.68-.23-.75.11-.18.22-.34.31-.47,1.41-2.07,1.16-3.8-.79-5.6l-.34-.31c-.21-.19-.46-.42-.61-.57.06-1.28-.31-2.31-1.09-3.07-.7-.68-1.5-.92-2.09-1.09-.21-.06-.41-.12-.61-.2-.37-.14-.54-.29-.88-.58-.14-.12-.29-.25-.46-.38,1.92-2.06.44-4.05.25-4.28-.08-.11-.29-.53-.41-.84l-.19-.47-.35-.38c-.38-.42-.82-.94-.97-1.14-.57-1.02-1.65-1.64-2.85-1.64h0Z"/>
        </g>
        <g>
          <polygon class="cls-4" points="107.02 125.31 97.62 123.88 98.5 118.11 99.91 118.32 99.24 122.69 105.83 123.7 109.03 102.73 102.44 101.73 101.24 109.55 99.84 109.34 101.25 100.11 110.64 101.54 107.02 125.31"/>
          <path class="cls-4" d="M121.3,122.13l-14.88-2.27,1.4-9.18,14.88,2.27-1.4,9.18ZM108.03,118.67l12.08,1.84.97-6.38-12.08-1.84-.97,6.38Z"/>
          <polygon class="cls-4" points="96.07 123.08 66.75 118.61 67.65 112.71 66.22 112.49 67.55 103.75 73.83 104.71 74.59 99.75 99.06 103.48 98.2 109.09 96.8 108.88 97.45 104.66 75.78 101.36 75.02 106.32 68.74 105.36 67.83 111.31 69.26 111.52 68.36 117.42 94.88 121.47 95.47 117.64 96.87 117.86 96.07 123.08"/>
          <g>
            <polygon class="cls-4" points="100.44 110.15 87.81 108.22 87.88 107.82 87.18 107.72 87.33 106.71 100.65 108.75 100.44 110.15"/>
            <polygon class="cls-4" points="100.35 119.1 99.1 118.91 99.21 118.21 99.05 118.19 100.39 109.42 100.54 109.45 100.65 108.75 101.9 108.94 100.35 119.1"/>
            <polygon class="cls-4" points="99.1 118.91 85.78 116.88 86.04 115.13 87.44 115.35 87.39 115.69 99.31 117.51 99.1 118.91"/>
            <polygon class="cls-4" points="87.34 116.05 75.63 114.26 76.21 110.46 77.61 110.67 77.24 113.08 86.15 114.43 87.07 108.42 78.16 107.06 77.79 109.46 76.39 109.25 76.97 105.44 88.68 107.23 87.34 116.05"/>
            <rect class="cls-4" x="76.39" y="109.25" width="1.22" height="1.42" transform="translate(-43.31 169.51) rotate(-81.33)"/>
          </g>
          <path class="cls-4" d="M86.64,113.97l-8.74-1.33.18-1.18-1.99-.3.4-2.61,1.99.3.16-1.08,8.74,1.33-.74,4.86ZM79.52,111.45l5.94.91.31-2.06-5.94-.91-.31,2.06Z"/>
        </g>
        <rect class="cls-4" x="113.37" y="120.71" width=".71" height="23.45"/>
        <g>
          <path d="M42.93,152.78s-.04-.07-.04-.11v-8.62s.01-.08.04-.11c.03-.03.07-.04.11-.04h1.16c.08,0,.14.04.18.11l1.62,3.15s.05.03.08,0l1.63-3.15c.04-.08.1-.11.18-.11h1.16s.08.01.11.04c.03.03.04.07.04.11v8.62s-.01.08-.04.11-.07.04-.11.04h-1.17s-.08-.01-.11-.04-.04-.07-.04-.11v-5.75s-.01-.05-.03-.06c-.02,0-.04.01-.04.05l-1.21,2.33c-.03.08-.09.11-.18.11h-.42c-.08,0-.14-.04-.18-.11l-1.21-2.35s-.02-.05-.04-.04c-.02,0-.03.02-.03.06v5.76s-.01.08-.04.11c-.03.03-.07.04-.11.04h-1.17s-.08-.01-.11-.04Z"/>
          <path d="M54.12,146.36s.07-.04.11-.04h1.17s.08.01.11.04c.03.03.04.07.04.11v6.21s-.01.08-.04.11c-.03.03-.07.04-.11.04h-1.17s-.08-.01-.11-.04-.04-.07-.04-.11v-.34s0-.04-.03-.04c-.02,0-.03,0-.05.03-.29.4-.74.6-1.36.6-.58,0-1.06-.17-1.44-.52-.38-.34-.57-.85-.57-1.51v-4.42s.01-.08.04-.11.07-.04.11-.04h1.17s.08.01.11.04c.03.03.04.07.04.11v4.05c0,.36.08.64.25.84.17.2.41.3.72.3s.56-.1.74-.31c.18-.21.27-.49.27-.85v-4.03s.01-.08.04-.11Z"/>
          <path d="M57.37,152.4c-.44-.33-.66-.76-.66-1.3v-.1s.01-.08.04-.11c.03-.03.07-.04.11-.04h1.11s.08,0,.11.02c.03.02.04.04.04.06v.1c0,.2.1.38.29.53.19.15.44.22.73.22.28,0,.51-.07.68-.2.17-.14.26-.31.26-.51s-.09-.36-.26-.47c-.17-.11-.44-.23-.81-.36l-.33-.11c-.58-.19-1.04-.42-1.39-.71s-.52-.71-.52-1.27c0-.6.21-1.06.64-1.41.43-.34.99-.52,1.7-.52s1.29.18,1.72.54c.43.36.65.82.65,1.4h0c0,.06-.01.09-.04.12-.03.03-.07.04-.11.04h-1.07c-.1,0-.15-.03-.15-.1v-.1c0-.21-.09-.39-.27-.53-.18-.14-.42-.21-.71-.21s-.51.07-.68.2c-.17.13-.26.3-.26.5,0,.16.06.29.18.4.12.11.25.19.4.25s.41.15.78.28c.4.14.74.28,1.01.42.28.14.51.34.71.6.2.26.29.58.29.97,0,.59-.22,1.05-.66,1.38-.44.34-1.02.5-1.75.5s-1.33-.17-1.77-.5Z"/>
          <path d="M65.8,151.46c.18-.13.32-.3.41-.51.04-.09.11-.13.19-.1l.94.24c.1.03.14.09.11.19-.15.51-.44.91-.85,1.2s-.93.44-1.55.44-1.18-.16-1.6-.49-.69-.77-.81-1.33c-.12-.44-.18-.97-.18-1.59,0-.52.02-.93.06-1.24.08-.63.34-1.13.78-1.5.44-.37,1.01-.56,1.71-.56.77,0,1.37.2,1.79.61.42.41.66.98.73,1.72.04.48.06.95.06,1.39,0,.1-.05.15-.15.15h-3.43s-.06.02-.06.06c0,.21.01.4.04.57.04.28.17.51.38.68.21.17.47.26.77.26.26,0,.47-.08.66-.2ZM64.34,147.73c-.18.16-.29.38-.33.65-.03.24-.05.43-.05.59,0,.04.02.06.06.06h2.03s.06-.02.06-.06c-.02-.26-.03-.44-.05-.55-.04-.29-.15-.52-.33-.68-.18-.17-.42-.25-.71-.25-.27,0-.5.08-.68.24Z"/>
          <path d="M69.55,152.39c-.45-.36-.72-.85-.81-1.47-.07-.41-.1-.86-.1-1.36s.03-.97.1-1.38c.09-.6.36-1.08.81-1.44.45-.36,1.02-.54,1.71-.54s1.23.18,1.67.54c.44.36.71.83.8,1.43.08.41.11.87.11,1.38s-.04.97-.11,1.38c-.09.62-.36,1.11-.8,1.47-.44.36-1,.54-1.68.54s-1.26-.18-1.7-.54ZM71.94,151.4c.19-.17.31-.4.36-.7.04-.29.06-.67.06-1.13s-.02-.85-.06-1.12c-.04-.3-.16-.53-.35-.7s-.43-.26-.71-.26-.51.09-.7.26-.31.4-.36.7c-.04.37-.06.74-.06,1.12s.02.75.06,1.13c.05.3.17.53.36.7s.43.25.71.25.5-.08.69-.25Z"/>
          <path d="M77.81,152.78s-.04-.07-.04-.11v-8.62s.01-.08.04-.11c.03-.03.07-.04.11-.04h1.17c.09,0,.14.04.18.11l2.79,5.55s.02.05.04.04c.02,0,.03-.02.03-.06v-5.49s.01-.08.04-.11c.03-.03.07-.04.11-.04h1.16s.08.01.11.04c.03.03.04.07.04.11v8.62s-.02.08-.04.11c-.03.03-.07.04-.11.04h-1.17c-.08,0-.14-.04-.18-.11l-2.81-5.57s-.02-.05-.04-.04c-.02,0-.03.02-.03.06v5.52s0,.08-.03.11c-.03.03-.07.04-.11.04h-1.16s-.08-.01-.11-.04Z"/>
          <path d="M88.73,146.48c.37.18.66.44.87.76s.31.69.31,1.11v4.32s-.01.08-.04.11c-.03.03-.07.04-.11.04h-1.17s-.08-.01-.11-.04-.04-.07-.04-.11v-.32s0-.04-.02-.04c-.02,0-.03,0-.05.02-.37.4-.9.6-1.57.6-.56,0-1.03-.15-1.42-.45-.39-.3-.58-.79-.58-1.47,0-.71.23-1.25.68-1.59.45-.35,1.09-.52,1.89-.52h1.01s.06-.02.06-.06v-.32c0-.31-.09-.56-.26-.75-.17-.18-.42-.27-.73-.27-.25,0-.45.06-.61.17s-.26.27-.3.46c0,.09-.06.14-.17.14l-1.25-.08c-.11-.02-.16-.06-.14-.14.06-.54.31-.99.76-1.33.45-.34,1.02-.51,1.7-.51.48,0,.91.09,1.29.27ZM88.07,151.44c.25-.19.37-.44.37-.76v-.66s-.02-.06-.06-.06h-.87c-.37,0-.67.08-.89.24-.22.16-.32.4-.32.7,0,.27.08.48.25.62.17.14.38.21.66.21.33,0,.62-.1.87-.29Z"/>
          <path d="M91.94,152.4c-.44-.35-.7-.84-.8-1.45-.07-.35-.1-.82-.1-1.4,0-.54.03-1,.1-1.39.09-.6.36-1.07.8-1.42s1-.53,1.68-.53,1.21.17,1.66.5c.45.34.72.78.82,1.32,0,.03.02.08.03.13s.01.11.01.19v.03c0,.08-.05.12-.14.14l-1.16.11h-.02c-.08,0-.12-.05-.14-.14,0-.06,0-.12-.03-.19-.04-.23-.16-.42-.34-.58-.18-.16-.41-.24-.7-.24s-.51.09-.69.26c-.18.17-.3.4-.34.68-.04.32-.06.71-.06,1.15,0,.48.03.88.08,1.17.04.28.15.5.33.67.18.17.41.25.69.25s.53-.08.71-.25c.18-.17.29-.37.33-.61v-.13s.04-.08.08-.11c.03-.03.07-.04.11-.03l1.15.1c.1.02.15.07.15.17l-.02.22c-.08.58-.34,1.04-.79,1.39-.45.35-1.02.52-1.7.52s-1.25-.18-1.69-.53Z"/>
          <path d="M97.42,145.24c-.17-.17-.26-.39-.26-.66s.09-.49.26-.66.4-.26.67-.26.49.09.66.26.26.39.26.66-.09.49-.26.66-.39.26-.66.26-.5-.09-.67-.26ZM97.39,152.78s-.04-.07-.04-.11v-6.21s.01-.08.04-.11.07-.04.11-.04h1.17s.08.01.11.04.04.07.04.11v6.21s-.01.08-.04.11-.07.04-.11.04h-1.17s-.08-.01-.11-.04Z"/>
          <path d="M101.04,152.39c-.45-.36-.72-.85-.81-1.47-.07-.41-.1-.86-.1-1.36s.03-.97.1-1.38c.09-.6.36-1.08.81-1.44.45-.36,1.02-.54,1.71-.54s1.23.18,1.67.54c.44.36.71.83.8,1.43.08.41.11.87.11,1.38s-.04.97-.11,1.38c-.09.62-.36,1.11-.8,1.47-.44.36-1,.54-1.68.54s-1.26-.18-1.7-.54ZM103.43,151.4c.19-.17.31-.4.36-.7.04-.29.06-.67.06-1.13s-.02-.85-.06-1.12c-.04-.3-.16-.53-.35-.7s-.43-.26-.71-.26-.51.09-.7.26c-.19.17-.31.4-.36.7-.04.37-.06.74-.06,1.12s.02.75.06,1.13c.05.3.17.53.36.7.19.17.43.25.71.25s.5-.08.69-.25Z"/>
          <path d="M110.99,146.8c.35.39.52.93.52,1.62v4.26s-.02.08-.04.11c-.03.03-.07.04-.11.04h-1.17s-.08-.01-.11-.04-.04-.07-.04-.11v-4.05c0-.35-.09-.62-.26-.83s-.41-.31-.72-.31c-.27,0-.5.09-.68.26s-.28.4-.32.69v4.25s-.01.08-.04.11-.07.04-.11.04h-1.17s-.08-.01-.11-.04-.04-.07-.04-.11v-6.21s.01-.08.04-.11.07-.04.11-.04h1.17s.08.01.11.04.04.07.04.11v.33s0,.04.03.05c.02,0,.03,0,.05-.03.34-.41.81-.61,1.4-.61s1.1.2,1.45.59Z"/>
          <path d="M116.47,146.48c.37.18.66.44.87.76s.31.69.31,1.11v4.32s-.01.08-.04.11c-.03.03-.07.04-.11.04h-1.17s-.08-.01-.11-.04-.04-.07-.04-.11v-.32s0-.04-.02-.04c-.02,0-.03,0-.05.02-.37.4-.9.6-1.57.6-.56,0-1.04-.15-1.42-.45-.39-.3-.58-.79-.58-1.47,0-.71.23-1.25.68-1.59s1.09-.52,1.89-.52h1.01s.06-.02.06-.06v-.32c0-.31-.09-.56-.26-.75-.17-.18-.42-.27-.73-.27-.25,0-.45.06-.61.17-.16.11-.26.27-.3.46,0,.09-.06.14-.17.14l-1.25-.08c-.11-.02-.16-.06-.14-.14.06-.54.31-.99.76-1.33.45-.34,1.02-.51,1.7-.51.48,0,.91.09,1.29.27ZM115.81,151.44c.25-.19.37-.44.37-.76v-.66s-.02-.06-.06-.06h-.87c-.37,0-.67.08-.89.24-.22.16-.33.4-.33.7,0,.27.08.48.25.62.17.14.38.21.66.21.33,0,.62-.1.87-.29Z"/>
          <path d="M118.95,152.78s-.04-.07-.04-.11v-8.62s.01-.08.04-.11c.03-.03.07-.04.11-.04h1.17s.08.01.11.04c.03.03.04.07.04.11v8.62s-.02.08-.04.11c-.03.03-.07.04-.11.04h-1.17s-.08-.01-.11-.04Z"/>
          <path d="M127.76,143.95s.07-.04.11-.04h1.17s.08.01.11.04c.03.03.04.07.04.11v8.62s-.01.08-.04.11c-.03.03-.07.04-.11.04h-1.17s-.08-.01-.11-.04c-.03-.03-.04-.07-.04-.11v-.33s0-.04-.03-.05c-.02,0-.03,0-.05.03-.32.41-.79.61-1.39.61-.54,0-.97-.16-1.29-.48s-.56-.81-.7-1.45c-.09-.39-.14-.87-.14-1.44s.04-1.03.11-1.4c.26-1.29.95-1.94,2.05-1.94.61,0,1.06.2,1.35.59.02.02.03.03.05.02.02,0,.03-.02.03-.05v-2.72s.01-.08.04-.11ZM127.7,149.56c0-.58-.05-1.02-.14-1.31-.14-.51-.43-.77-.87-.77s-.76.25-.93.75c-.11.32-.17.77-.17,1.33,0,.52.05.94.14,1.27.15.54.47.82.94.82.44,0,.74-.27.89-.8.08-.3.13-.73.13-1.29Z"/>
          <path d="M133.78,151.46c.18-.13.32-.3.41-.51.04-.09.11-.13.19-.1l.94.24c.1.03.14.09.11.19-.15.51-.44.91-.85,1.2s-.93.44-1.55.44-1.18-.16-1.6-.49c-.42-.33-.69-.77-.81-1.33-.12-.44-.18-.97-.18-1.59,0-.52.02-.93.06-1.24.08-.63.34-1.13.78-1.5.44-.37,1.01-.56,1.71-.56.77,0,1.37.2,1.78.61.42.41.66.98.73,1.72.04.48.06.95.06,1.39,0,.1-.05.15-.15.15h-3.43s-.06.02-.06.06c0,.21.01.4.04.57.04.28.17.51.38.68.21.17.47.26.77.26.25,0,.47-.08.66-.2ZM132.32,147.73c-.18.16-.29.38-.33.65-.03.24-.05.43-.05.59,0,.04.02.06.06.06h2.03s.06-.02.06-.06c-.02-.26-.03-.44-.05-.55-.04-.29-.15-.52-.33-.68-.18-.17-.42-.25-.71-.25-.27,0-.5.08-.68.24Z"/>
          <path d="M60.51,166.86l-.32-1.36s-.03-.05-.06-.05h-2.63s-.06.02-.06.05l-.33,1.36c-.03.09-.09.13-.18.13h-1.21c-.11,0-.15-.06-.13-.17l2.31-8.63c.03-.09.09-.13.18-.13h1.47c.09,0,.15.04.18.13l2.32,8.63v.05c.01.08-.03.11-.13.11h-1.22c-.09,0-.15-.04-.18-.13ZM57.77,164.27s.03.02.05.02h1.99s.03,0,.05-.02c.02-.01.02-.03.01-.06l-1.01-4.13s-.02-.04-.04-.04-.03.01-.04.04l-1.03,4.13s0,.04.01.06Z"/>
          <path d="M67.52,160.96c.35.39.52.93.52,1.62v4.26s-.01.08-.04.11-.07.04-.11.04h-1.17s-.08-.01-.11-.04c-.03-.03-.04-.07-.04-.11v-4.05c0-.35-.09-.62-.26-.83-.17-.2-.41-.31-.72-.31-.27,0-.5.09-.68.26s-.28.4-.32.69v4.25s-.01.08-.04.11c-.03.03-.07.04-.11.04h-1.17s-.08-.01-.11-.04c-.03-.03-.04-.07-.04-.11v-6.21s.01-.08.04-.11c.03-.03.07-.04.11-.04h1.17s.08.01.11.04c.03.03.04.07.04.11v.33s0,.04.03.05c.02,0,.03,0,.05-.03.34-.41.81-.61,1.4-.61s1.1.2,1.45.59Z"/>
          <path d="M72.41,161.55s-.07.04-.11.04h-1.03s-.06.02-.06.06v3.19c0,.31.06.54.18.66.12.13.32.19.58.19h.23s.08.02.11.04c.03.03.04.07.04.11v.96c0,.09-.05.15-.15.17h-.54c-.63,0-1.1-.11-1.42-.33-.31-.22-.47-.64-.47-1.25v-3.74s-.02-.06-.06-.06h-.59s-.08-.01-.11-.04c-.03-.03-.04-.07-.04-.11v-.82s.01-.08.04-.11.07-.04.11-.04h.59s.06-.02.06-.06v-1.45s.01-.08.04-.11c.03-.03.07-.04.11-.04h1.12s.08.01.11.04c.03.03.04.07.04.11v1.45s.02.06.06.06h1.03s.08.01.11.04.04.07.04.11v.82s-.01.08-.04.11Z"/>
          <path d="M77.03,160.55c.07.03.09.1.08.19l-.22,1.16c0,.1-.07.13-.18.09-.13-.04-.27-.06-.42-.06-.04,0-.12,0-.24.03-.3.03-.54.17-.73.4s-.29.53-.29.87v3.61s-.01.08-.04.11c-.03.03-.07.04-.11.04h-1.17s-.08-.01-.11-.04c-.03-.03-.04-.07-.04-.11v-6.21s.01-.08.04-.11c.03-.03.07-.04.11-.04h1.17s.08.01.11.04c.03.03.04.07.04.11v.59s0,.05.02.06.03,0,.04-.03c.31-.56.74-.84,1.31-.84.24,0,.45.05.62.15Z"/>
          <path d="M78.62,166.56c-.45-.36-.72-.85-.81-1.47-.07-.41-.1-.86-.1-1.36s.03-.97.1-1.38c.09-.6.36-1.08.81-1.44.45-.36,1.02-.54,1.71-.54s1.23.18,1.67.54c.44.36.71.83.8,1.43.08.41.11.87.11,1.38s-.04.97-.11,1.38c-.09.62-.36,1.11-.8,1.47-.44.36-1,.54-1.68.54s-1.26-.18-1.7-.54ZM81.01,165.56c.19-.17.31-.4.36-.7.04-.29.06-.67.06-1.13s-.02-.85-.06-1.12c-.04-.3-.16-.53-.35-.7s-.43-.26-.71-.26-.51.09-.7.26-.31.4-.36.7c-.04.37-.06.74-.06,1.12s.02.75.06,1.13c.05.3.17.53.36.7s.43.25.71.25.5-.08.69-.25Z"/>
          <path d="M89.3,163.75c0,.56-.04,1.03-.11,1.4-.26,1.29-.95,1.94-2.05,1.94-.6,0-1.05-.2-1.35-.59-.02-.03-.03-.03-.05-.03-.02,0-.03.03-.03.05v2.72s-.01.08-.04.11-.07.04-.11.04h-1.17s-.08-.01-.11-.04-.04-.07-.04-.11v-8.62s.01-.08.04-.11.07-.04.11-.04h1.17s.08.01.11.04.04.07.04.11v.33s0,.04.03.05.03,0,.05-.03c.32-.41.79-.61,1.39-.61.54,0,.96.16,1.29.48.32.32.56.81.7,1.45.09.39.14.87.14,1.44ZM87.82,163.74c0-.53-.05-.95-.14-1.27-.15-.54-.47-.82-.94-.82-.44,0-.74.27-.89.8-.09.3-.13.73-.13,1.29s.05,1.02.14,1.31c.14.51.42.76.87.76s.76-.25.93-.75c.11-.32.17-.76.17-1.33Z"/>
          <path d="M91.28,166.56c-.45-.36-.72-.85-.81-1.47-.07-.41-.1-.86-.1-1.36s.03-.97.1-1.38c.09-.6.36-1.08.81-1.44.45-.36,1.02-.54,1.71-.54s1.23.18,1.67.54c.44.36.71.83.8,1.43.08.41.11.87.11,1.38s-.04.97-.11,1.38c-.09.62-.36,1.11-.8,1.47-.44.36-1,.54-1.68.54s-1.26-.18-1.7-.54ZM93.67,165.56c.19-.17.31-.4.36-.7.04-.29.06-.67.06-1.13s-.02-.85-.06-1.12c-.04-.3-.16-.53-.35-.7s-.43-.26-.71-.26-.51.09-.7.26c-.19.17-.31.4-.36.7-.04.37-.06.74-.06,1.12s.02.75.06,1.13c.05.3.17.53.36.7.19.17.43.25.71.25s.5-.08.69-.25Z"/>
          <path d="M96.85,166.95s-.04-.07-.04-.11v-8.62s.01-.08.04-.11.07-.04.11-.04h1.17s.08.01.11.04c.03.03.04.07.04.11v8.62s-.02.08-.04.11c-.03.03-.07.04-.11.04h-1.17s-.08-.01-.11-.04Z"/>
          <path d="M100.41,166.56c-.45-.36-.72-.85-.81-1.47-.07-.41-.1-.86-.1-1.36s.03-.97.1-1.38c.09-.6.36-1.08.81-1.44.45-.36,1.02-.54,1.71-.54s1.23.18,1.67.54c.44.36.71.83.8,1.43.08.41.11.87.11,1.38s-.04.97-.11,1.38c-.09.62-.36,1.11-.8,1.47-.44.36-1,.54-1.68.54s-1.26-.18-1.7-.54ZM102.8,165.56c.19-.17.31-.4.36-.7.04-.29.06-.67.06-1.13s-.02-.85-.06-1.12c-.04-.3-.16-.53-.35-.7s-.43-.26-.71-.26-.51.09-.7.26c-.19.17-.31.4-.36.7-.04.37-.06.74-.06,1.12s.02.75.06,1.13c.05.3.17.53.36.7.19.17.43.25.71.25s.5-.08.69-.25Z"/>
          <path d="M109.45,160.52s.07-.04.11-.04h1.17s.08.01.11.04c.03.03.04.07.04.11v6.02c0,.99-.27,1.72-.8,2.2-.54.48-1.31.72-2.32.72-.12,0-.31,0-.56-.03-.1,0-.15-.06-.15-.17l.04-1.02c0-.1.06-.15.17-.14.09,0,.21.01.38.01.64,0,1.09-.13,1.36-.4.27-.26.41-.69.41-1.27v-.11s0-.04-.02-.05c-.02,0-.03,0-.05.03-.32.37-.77.56-1.34.56s-1.02-.16-1.4-.49c-.38-.33-.62-.79-.71-1.4-.05-.26-.08-.71-.08-1.38,0-.71.03-1.19.1-1.45.09-.58.31-1.04.66-1.38s.82-.51,1.38-.51,1.05.19,1.39.57c.02.02.03.02.05.02.02,0,.02-.02.02-.04v-.29s.01-.08.04-.11ZM109.4,163.72c0-.48-.02-.87-.05-1.15-.03-.27-.14-.49-.32-.66-.18-.17-.4-.26-.68-.26s-.5.09-.68.26-.29.39-.33.66c-.05.31-.08.7-.08,1.15,0,.42.02.79.06,1.11.04.27.16.49.34.66.19.17.42.26.69.26s.51-.09.68-.26.28-.39.31-.66c.03-.32.04-.69.04-1.11Z"/>
          <path d="M112.13,159.47s-.02-.08.01-.13l.74-1.31c.04-.07.11-.1.19-.1h1.08c.06,0,.1.02.12.06.02.04.01.08-.02.13l-.91,1.3c-.04.07-.1.1-.18.1h-.92c-.06,0-.1-.02-.13-.05ZM112.2,166.95s-.04-.07-.04-.11v-6.21s.01-.08.04-.11c.03-.03.07-.04.11-.04h1.17s.08.01.11.04c.03.03.04.07.04.11v6.21s-.01.08-.04.11c-.03.03-.07.04-.11.04h-1.17s-.08-.01-.11-.04Z"/>
          <path d="M118.63,160.65c.37.18.66.44.87.76s.31.69.31,1.11v4.32s-.01.08-.04.11c-.03.03-.07.04-.11.04h-1.17s-.08-.01-.11-.04-.04-.07-.04-.11v-.32s0-.04-.02-.04c-.02,0-.03,0-.05.02-.37.4-.9.6-1.57.6-.56,0-1.04-.15-1.42-.45-.39-.3-.58-.79-.58-1.47,0-.71.23-1.25.68-1.59s1.09-.52,1.89-.52h1.01s.06-.02.06-.06v-.32c0-.31-.09-.56-.26-.75-.17-.18-.42-.27-.73-.27-.25,0-.45.06-.61.17-.16.11-.26.27-.3.46,0,.09-.06.14-.17.14l-1.25-.08c-.11-.02-.16-.06-.14-.14.06-.54.31-.99.76-1.33.45-.34,1.02-.51,1.7-.51.48,0,.91.09,1.29.27ZM117.97,165.61c.25-.19.37-.44.37-.76v-.66s-.02-.06-.06-.06h-.87c-.37,0-.67.08-.89.24-.22.16-.33.4-.33.7,0,.27.08.48.25.62.17.14.38.21.66.21.33,0,.62-.1.87-.29Z"/>
        </g>
        <g>
          <path d="M23.46,51.06c-.27-.26-.41-.62-.41-1.07,0-.06,0-.15.02-.27l.37-3.06c.06-.52.27-.94.62-1.26.36-.32.8-.47,1.32-.47.47,0,.85.13,1.12.39.27.26.41.61.41,1.06,0,.06,0,.15-.02.27v.08s-.02.05-.04.07c-.02.02-.04.03-.07.03l-.29.02c-.06,0-.09-.03-.07-.09v-.13c.02-.1.03-.17.03-.21,0-.32-.1-.58-.31-.78-.2-.19-.48-.29-.82-.29-.38,0-.69.12-.95.35-.26.23-.41.54-.46.93l-.38,3.11s0,.11,0,.2c0,.33.1.59.3.79.2.2.47.3.81.3.38,0,.71-.12.97-.35.26-.23.41-.55.46-.94l.02-.11c.01-.06.05-.09.1-.09l.29.02s.04,0,.06.02.02.04.01.06v.08c-.07.52-.28.94-.63,1.26-.36.32-.8.47-1.32.47-.47,0-.85-.13-1.12-.4Z"/>
          <path d="M27.7,51.36s-.02-.04-.01-.06l.77-6.2s0-.05.03-.06c.02-.02.04-.03.07-.03h1.67c.45,0,.8.12,1.05.37.25.25.38.59.38,1.03,0,.13,0,.23-.02.3l-.36,2.99c-.06.52-.26.94-.58,1.24-.33.3-.74.46-1.25.46h-1.67s-.05,0-.07-.03ZM28.21,50.94s.02.01.03.01h1.27c.35,0,.64-.12.88-.35.24-.23.38-.55.42-.94l.36-2.93c.01-.12.02-.2.02-.25,0-.33-.09-.59-.26-.78-.18-.19-.42-.28-.74-.28h-1.27s-.04.01-.04.04l-.67,5.46s0,.01,0,.02Z"/>
          <path d="M32.36,51.36s-.02-.04-.01-.06l.77-6.2s0-.05.03-.06c.02-.02.04-.03.07-.03h.3c.06,0,.09.02.1.06l1.04,2.81s0,.02.02.02.03,0,.03-.02l1.73-2.81s.05-.06.11-.06h.3c.06,0,.08.03.08.09l-.77,6.2c-.01.06-.05.09-.1.09h-.29c-.06,0-.09-.03-.07-.09l.63-5.18s0-.03,0-.03-.02,0-.03.02l-1.51,2.45s-.06.06-.12.06h-.13c-.06,0-.09-.02-.1-.06l-.94-2.46s-.01-.02-.02-.02-.02,0-.02.03l-.63,5.19s-.02.05-.04.06-.04.03-.06.03h-.29s-.05,0-.07-.03Z"/>
          <path d="M37.33,51.35s0-.05.01-.08l1.96-3.06s.01-.04,0-.05l-1.2-3.06v-.04s.02-.07.07-.07h.33s.08.02.1.06l1,2.67s.02.02.03.02.02,0,.03-.02l1.66-2.67s.05-.06.11-.06h.32s.05.01.06.03c0,.02,0,.05-.01.08l-1.96,3.07s0,.04,0,.05l1.2,3.05v.04s-.02.07-.07.07h-.32s-.08-.02-.1-.06l-.99-2.66s-.02-.02-.03-.02-.02,0-.03.02l-1.66,2.66s-.06.06-.12.06h-.33s-.05-.01-.06-.03Z"/>
        </g>
        <g>
          <path class="cls-5" d="M41.19,123.24c.19.3.25.66.17,1.09-.01.07-.03.16-.07.29-.15.5-.41.87-.77,1.12-.37.25-.78.34-1.23.26l-1.38-.24s-.04,0-.04.03l-.83,2.73c-.02.06-.06.08-.11.07l-.29-.05s-.05-.02-.06-.04c-.01-.02-.01-.04,0-.07l1.82-6c.02-.06.06-.08.11-.07l1.8.31c.4.07.7.25.89.55ZM40.26,125.41c.27-.19.46-.48.58-.85.02-.05.03-.13.05-.22.06-.33.02-.61-.12-.83-.13-.22-.35-.36-.64-.41l-1.34-.23s-.02,0-.03,0c-.01,0-.02.01-.02.02l-.74,2.45s0,.02,0,.03c0,0,.01.01.02.01l1.35.23c.32.06.62-.01.89-.21Z"/>
          <path class="cls-5" d="M44.69,125.28l.29.05c.06.01.08.04.06.1l-1.29,4.26c-.02.06-.06.08-.11.07l-.29-.05c-.05,0-.08-.04-.07-.1l.13-.4s0-.03,0-.03c0,0-.02,0-.03.01-.16.16-.35.28-.56.35-.21.07-.43.08-.67.04-.37-.06-.64-.24-.81-.52-.17-.28-.21-.63-.14-1.05.04-.22.12-.54.25-.95.14-.48.26-.82.36-1.03.17-.38.41-.67.72-.85.31-.18.65-.24,1.03-.17.47.08.76.33.86.75.01.01.02.02.03.02,0,0,.02-.01.02-.03l.12-.4c.02-.06.06-.08.12-.07ZM43.93,127.49c.12-.39.19-.66.22-.81l.03-.2c.05-.26.01-.49-.1-.68-.11-.19-.3-.31-.55-.35-.26-.05-.51,0-.73.12-.23.13-.4.32-.51.57-.1.21-.23.54-.37,1-.13.42-.21.76-.25,1-.04.27,0,.5.12.69.12.19.32.31.59.36.26.05.5,0,.72-.13.21-.13.38-.33.49-.59.1-.22.22-.55.36-.98Z"/>
          <path class="cls-5" d="M45.38,129.82c-.2-.23-.27-.5-.22-.8.01-.06.02-.1.03-.13l.02-.08c.02-.06.06-.08.11-.07l.27.05s.05.02.06.03c.01.02.01.04,0,.06l-.02.08c-.07.21-.03.41.11.59.14.18.35.3.64.35.28.05.53.01.75-.11.21-.12.36-.3.43-.53.05-.17.04-.31-.02-.43-.06-.12-.15-.23-.26-.32-.11-.09-.28-.2-.5-.33-.34-.19-.59-.39-.77-.58-.17-.19-.23-.44-.18-.74.07-.41.27-.72.6-.92s.72-.26,1.17-.18c.38.07.67.21.86.44.19.23.26.5.2.81-.01.07-.02.13-.04.16v.03c-.03.06-.06.08-.12.07l-.26-.05c-.05,0-.08-.04-.07-.08l.02-.06c.07-.22.04-.42-.09-.6-.13-.18-.34-.29-.63-.34-.3-.05-.56-.01-.78.12-.22.13-.35.33-.4.58-.03.2.01.36.14.49.13.13.33.28.62.46.23.14.42.26.57.37s.26.24.35.41.11.35.07.57c-.07.42-.28.73-.61.94-.33.21-.73.27-1.19.19-.4-.07-.69-.22-.89-.45Z"/>
          <path class="cls-5" d="M50.93,130.47c.21-.1.39-.24.52-.44.03-.04.07-.06.13-.04l.23.09s.04.03.04.05c0,.02,0,.05-.02.07-.18.3-.43.52-.73.66-.31.14-.64.18-1,.11-.4-.07-.69-.23-.88-.5-.19-.26-.26-.59-.21-.97.04-.27.13-.63.27-1.09.13-.43.24-.77.34-1,.16-.37.4-.65.74-.84.33-.19.7-.25,1.1-.18.42.07.73.25.92.53.19.28.25.63.18,1.03-.02.14-.1.42-.22.81-.02.05-.05.13-.08.24,0,.02-.02.04-.04.06-.02.01-.04.02-.07.02l-2.43-.42s-.04,0-.04.03c-.11.33-.18.59-.21.78-.05.28,0,.52.13.72.14.2.35.32.63.37.25.04.48.02.69-.08ZM50.58,126.94c-.23.14-.4.34-.52.61l-.24.67s0,.04.02.04l2.02.35s.04,0,.05-.03c.09-.33.15-.56.18-.69.05-.28,0-.51-.13-.72-.13-.2-.34-.33-.62-.38-.28-.05-.54,0-.77.13Z"/>
          <path class="cls-5" d="M53.27,131.15c-.19-.27-.26-.61-.2-1,.06-.32.14-.66.26-1.04.11-.38.23-.72.36-1.02.16-.37.41-.64.75-.83.33-.18.7-.24,1.1-.17s.7.24.9.52c.2.27.26.6.19.99-.04.25-.13.6-.26,1.05-.13.43-.25.77-.36,1.02-.16.37-.41.65-.75.83-.33.18-.7.24-1.09.17-.41-.07-.71-.24-.9-.52ZM55.06,131.12c.24-.14.42-.34.53-.62.07-.18.18-.5.31-.94.02-.06.06-.2.12-.41.07-.22.11-.4.14-.55.05-.28,0-.52-.13-.72-.14-.2-.34-.32-.62-.37-.28-.05-.53,0-.77.13-.24.14-.42.34-.53.62-.08.2-.18.51-.31.94-.02.06-.06.2-.12.41-.07.22-.11.4-.14.55-.05.28,0,.52.13.72.13.2.34.32.62.37.28.05.53,0,.77-.13Z"/>
          <path class="cls-5" d="M62.97,126.64l.29.05c.06.01.08.04.06.1l-1.81,5.98c-.02.06-.06.08-.11.07l-.29-.05c-.05,0-.08-.04-.07-.1l.13-.4s0-.03,0-.03c0,0-.02,0-.03.01-.16.16-.35.28-.56.35-.21.07-.43.08-.67.04-.37-.06-.64-.24-.81-.52-.17-.28-.21-.63-.14-1.05.04-.22.12-.54.25-.95.14-.48.26-.82.36-1.03.17-.38.41-.67.72-.85.31-.18.65-.24,1.03-.17.47.08.76.33.86.75.01.01.02.02.03.02,0,0,.02-.01.02-.03l.65-2.12c.02-.06.06-.08.12-.07ZM61.68,130.57c.12-.39.19-.66.22-.81l.02-.2c.05-.26.01-.49-.1-.68-.11-.19-.3-.31-.55-.35-.26-.05-.51,0-.73.12-.23.13-.4.32-.52.57-.1.21-.23.54-.37,1-.13.42-.21.76-.25,1-.04.27,0,.5.12.69.12.19.32.31.59.36.26.05.5,0,.72-.13.21-.13.38-.33.49-.59.1-.22.22-.55.36-.98Z"/>
          <path class="cls-5" d="M65.01,132.92c.21-.1.39-.24.52-.44.03-.04.07-.06.13-.04l.23.09s.04.03.04.05c0,.02,0,.05-.02.07-.18.3-.43.52-.73.66-.31.14-.64.18-1,.11-.4-.07-.69-.24-.88-.5s-.26-.59-.21-.97c.04-.27.13-.63.27-1.09.13-.44.24-.77.34-1.01.16-.37.4-.65.74-.83.34-.19.7-.25,1.1-.18.42.07.73.25.92.53.19.28.25.63.18,1.03-.02.14-.1.42-.22.81-.02.05-.05.13-.08.24,0,.02-.02.04-.04.06-.02.02-.04.02-.07.02l-2.44-.42s-.04,0-.04.03c-.11.33-.18.59-.21.78-.05.28,0,.52.13.72.14.2.35.32.63.37.25.04.48.02.69-.08ZM64.66,129.38c-.23.14-.4.34-.52.61l-.24.67s0,.04.02.04l2.02.35s.04,0,.05-.03c.09-.33.15-.56.18-.69.05-.28,0-.51-.13-.72-.13-.2-.34-.33-.62-.38-.28-.05-.54,0-.77.13Z"/>
          <path class="cls-5" d="M68.62,134.01l1.81-5.98c.02-.06.06-.08.11-.07l.29.05c.05,0,.08.04.07.1l-1.82,5.98c-.02.06-.06.08-.12.07l-.29-.05c-.06-.01-.08-.04-.06-.1Z"/>
          <path class="cls-5" d="M74.15,130.4l.29.05c.06.01.08.04.06.1l-1.29,4.26c-.02.06-.06.08-.11.07l-.29-.05c-.05,0-.08-.04-.07-.1l.13-.4s0-.03,0-.03c0,0-.02,0-.03.01-.16.16-.35.28-.56.35-.21.07-.43.08-.67.04-.37-.06-.64-.24-.81-.52-.17-.28-.21-.63-.14-1.05.04-.22.12-.54.25-.95.14-.48.26-.82.35-1.03.17-.38.41-.67.72-.85.31-.18.65-.24,1.03-.17.47.08.76.33.86.75,0,.01.02.02.03.02,0,0,.02-.01.02-.03l.12-.39c.02-.06.06-.08.12-.07ZM73.39,132.6c.12-.39.19-.66.22-.81l.02-.2c.05-.26.01-.49-.1-.68-.12-.19-.3-.31-.55-.35-.26-.05-.51,0-.73.12-.23.13-.4.32-.52.57-.1.21-.23.54-.37,1-.13.42-.21.76-.25,1-.04.27,0,.5.12.69.12.19.32.31.59.36.26.05.5,0,.72-.13.21-.13.38-.33.49-.59.1-.22.22-.55.36-.98Z"/>
          <path class="cls-5" d="M79.35,135.89l-.3-3.01s-.01-.03-.03-.03l-1.24-.22s-.03,0-.05.03l-.84,2.78s-.03.04-.05.06c-.02.01-.04.02-.07.02l-.29-.05s-.05-.02-.06-.04c-.01-.02-.01-.04,0-.07l1.82-6c.02-.06.06-.08.11-.07l1.77.31c.4.07.7.25.89.54s.25.65.17,1.08c-.01.07-.03.16-.07.29-.12.41-.32.74-.61.99-.29.25-.61.38-.98.39-.03,0-.04.02-.03.04l.32,3v.03s-.02.04-.04.05c-.02.01-.04.02-.07.01l-.3-.05s-.07-.04-.07-.09ZM78.61,129.79s-.02.01-.02.02l-.72,2.39s0,.01,0,.02c0,0,.01.02.03.02l1.32.23c.23.04.46.01.67-.08.21-.09.39-.24.54-.44.15-.2.24-.45.29-.74.06-.32.02-.59-.11-.81-.13-.21-.35-.35-.64-.4l-1.32-.23s-.01,0-.02,0Z"/>
          <path class="cls-5" d="M83.03,136.05c.21-.1.39-.24.52-.44.03-.04.07-.06.13-.04l.23.09s.04.03.04.05c0,.02,0,.05-.02.07-.18.3-.43.52-.73.66-.31.14-.64.18-1,.11-.4-.07-.69-.23-.88-.5-.19-.26-.26-.59-.21-.97.04-.27.13-.63.27-1.09.13-.43.24-.77.34-1.01.16-.37.4-.65.74-.83.34-.19.7-.25,1.1-.18.42.07.73.25.92.53.19.28.25.63.18,1.03-.02.14-.1.42-.22.81-.02.05-.05.13-.08.24,0,.02-.02.04-.04.06-.02.01-.04.02-.07.02l-2.44-.42s-.04,0-.04.03c-.11.33-.18.59-.21.78-.05.28,0,.52.13.72.13.2.35.32.63.37.24.04.48.02.69-.08ZM82.67,132.51c-.23.14-.4.34-.52.61l-.24.67s0,.04.02.04l2.02.35s.04,0,.05-.03c.09-.33.15-.56.18-.69.05-.28,0-.51-.13-.72-.13-.2-.34-.33-.62-.38-.28-.05-.54,0-.77.14Z"/>
          <path class="cls-5" d="M87.35,131.53c-.16.15-.29.4-.41.76l-.08.27s0,.04.03.04l.86.15c.06.01.08.04.06.1l-.07.22c-.02.06-.06.08-.11.07l-.86-.15s-.04,0-.04.03l-1.19,3.91c-.02.06-.06.08-.12.07l-.29-.05c-.06-.01-.08-.04-.06-.1l1.18-3.92s0-.01,0-.02c0-.01-.01-.02-.02-.02l-.47-.08s-.05-.02-.06-.04c-.01-.02-.01-.04,0-.07l.07-.22c.02-.06.06-.08.12-.07l.48.08s.04,0,.04-.03l.09-.29c.15-.5.36-.85.6-1.05.25-.2.59-.25,1.04-.18l.17.03c.05,0,.08.04.07.1l-.08.24s-.02.04-.04.06c-.02.02-.05.02-.08.01l-.15-.03c-.29-.05-.52,0-.68.14Z"/>
          <path class="cls-5" d="M87.8,137.15c-.19-.27-.26-.61-.2-1,.06-.32.14-.66.26-1.04.11-.38.23-.72.36-1.02.16-.37.41-.64.75-.83.33-.18.7-.24,1.1-.17s.7.24.9.52c.2.27.26.6.19.99-.04.25-.13.59-.26,1.05-.13.43-.25.77-.36,1.02-.16.37-.41.65-.75.83-.33.18-.7.24-1.09.17-.41-.07-.71-.24-.9-.52ZM89.59,137.12c.24-.14.42-.34.53-.62.07-.18.18-.5.31-.94.02-.06.06-.2.12-.41.07-.22.11-.4.14-.55.05-.28,0-.52-.13-.72-.14-.2-.34-.32-.62-.37-.28-.05-.53,0-.77.13-.24.14-.42.34-.53.62-.08.2-.18.51-.31.94-.02.06-.06.2-.12.41-.07.22-.11.4-.14.55-.05.28,0,.52.13.72.13.2.34.32.62.37.28.05.53,0,.77-.13Z"/>
          <path class="cls-5" d="M94.73,134.04s.04.06,0,.11l-.17.29c-.04.05-.08.07-.13.03-.08-.06-.17-.09-.28-.11h-.1c-.28-.05-.54.03-.79.23-.25.2-.43.48-.53.82l-.8,2.66c-.02.06-.06.08-.12.07l-.29-.05c-.06-.01-.08-.04-.06-.1l1.29-4.26c.02-.06.06-.08.11-.07l.29.05c.06.01.08.04.06.1l-.18.59s0,.03.01.03c.01,0,.02,0,.03-.02.17-.21.35-.36.56-.45.21-.1.43-.13.65-.09.18.03.32.09.42.18Z"/>
          <path class="cls-5" d="M100.22,135.19c.15.24.2.55.13.92-.01.07-.03.16-.07.29l-.89,2.96c-.02.06-.06.08-.11.07l-.28-.05c-.05,0-.08-.04-.07-.1l.88-2.89s.03-.12.05-.21c.05-.29.02-.53-.09-.71-.11-.19-.29-.3-.55-.34-.29-.05-.55,0-.78.17s-.4.41-.5.75l-.88,2.91c-.02.06-.06.08-.12.07l-.28-.05c-.06-.01-.08-.04-.06-.1l.87-2.89s.03-.12.04-.21c.05-.29.02-.52-.09-.71-.11-.19-.29-.3-.54-.34-.29-.05-.56,0-.78.17-.23.16-.39.41-.5.75l-.88,2.91c-.02.06-.06.08-.12.07l-.28-.05c-.06-.01-.08-.04-.06-.1l1.29-4.26c.02-.06.06-.08.11-.07l.28.05c.06.01.08.04.06.1l-.11.37s0,.03.01.04c.01,0,.02,0,.03-.02.17-.16.36-.26.57-.32.21-.06.43-.06.65-.03.26.04.46.15.61.31.15.16.24.36.27.61,0,.01,0,.02.01.02,0,0,.02,0,.04-.02.18-.22.39-.37.64-.45.25-.08.5-.1.76-.06.34.06.58.21.73.45Z"/>
          <path class="cls-5" d="M104.43,135.66l.29.05c.06.01.08.04.06.1l-1.29,4.26c-.02.06-.06.08-.11.07l-.29-.05c-.05,0-.08-.04-.07-.1l.13-.4s0-.03,0-.03c0,0-.02,0-.04.01-.16.16-.35.28-.56.35-.21.07-.43.08-.67.04-.37-.06-.64-.24-.81-.52-.17-.28-.21-.63-.14-1.05.04-.22.12-.54.25-.95.14-.48.26-.82.35-1.03.17-.38.41-.67.72-.85.31-.18.65-.24,1.03-.17.47.08.76.33.86.75.01.01.02.02.03.02,0,0,.02-.01.02-.03l.12-.39c.02-.06.06-.08.11-.07ZM103.67,137.86c.12-.39.19-.66.22-.81l.02-.2c.05-.26.01-.49-.1-.68-.12-.19-.3-.31-.55-.35-.26-.05-.51,0-.73.12s-.4.32-.51.57c-.1.21-.23.54-.37,1-.13.42-.21.76-.25,1-.04.27,0,.5.12.69.12.19.32.31.59.36.26.05.5,0,.72-.13.21-.13.38-.33.49-.59.1-.22.22-.55.36-.98Z"/>
        </g>
        <g>
          <path class="cls-5" d="M44.89,102.06c-.35-.15-.6-.44-.76-.86-.02-.06-.05-.14-.08-.26l-.72-2.99c-.13-.51-.08-.98.14-1.4.22-.42.58-.72,1.07-.91.44-.17.84-.18,1.19-.03.35.15.6.43.76.85.02.06.05.14.08.26l.02.08s0,.05,0,.07c0,.03-.03.04-.06.06l-.27.12c-.06.02-.09,0-.1-.06l-.04-.12c-.02-.1-.04-.16-.06-.2-.11-.3-.3-.51-.56-.62-.26-.11-.55-.11-.87.01-.35.13-.61.35-.77.66-.16.31-.2.65-.11,1.03l.73,3.05s.03.11.06.19c.12.31.3.52.55.64.25.12.54.11.86,0,.36-.13.62-.36.78-.67s.2-.66.1-1.04l-.02-.11c0-.06.01-.1.06-.12l.28-.09s.04,0,.06,0c.02,0,.03.03.03.05l.02.08c.13.51.08.98-.14,1.4-.22.42-.58.72-1.07.91-.44.17-.84.17-1.19.02Z"/>
          <path class="cls-5" d="M50.03,95.56l.27-.1c.06-.02.09,0,.1.06l1.05,4.32c0,.06-.01.1-.06.12l-.27.1c-.05.02-.09,0-.11-.06l-.1-.41s0-.03-.01-.02c0,0-.02.01-.02.03-.06.22-.16.42-.31.58-.15.16-.33.29-.56.38-.35.13-.67.12-.96-.04-.29-.16-.5-.44-.65-.84-.08-.21-.17-.53-.27-.94-.12-.48-.19-.84-.22-1.07-.05-.42.02-.78.19-1.1.17-.31.44-.54.8-.67.45-.17.82-.1,1.12.21.02,0,.03,0,.03,0,0,0,0-.02,0-.03l-.09-.4c0-.06.01-.1.06-.12ZM50.49,97.85c-.1-.39-.17-.66-.23-.81l-.08-.18c-.09-.25-.24-.43-.43-.53-.2-.11-.41-.11-.65-.02-.25.09-.44.25-.57.48-.13.23-.18.48-.16.75.02.23.08.58.19,1.05.1.43.2.76.29.99.1.25.25.43.46.53.2.1.43.1.69,0,.25-.09.43-.25.55-.48s.16-.47.13-.75c-.02-.24-.09-.58-.19-1.03Z"/>
          <path class="cls-5" d="M52.71,99.37l-1.47-6.07c-.01-.06.01-.1.06-.12l.27-.1c.05-.02.09,0,.11.06l1.46,6.08c.01.06-.01.1-.06.12l-.27.1c-.06.02-.09,0-.1-.06Z"/>
          <path class="cls-5" d="M54.06,98.86l-.07-.29s0-.06,0-.13l1.28-4.33s0-.03,0-.03c0,0-.02,0-.03,0l-2.03.76c-.05.02-.09,0-.11-.06l-.06-.26c-.01-.06.01-.1.06-.12l2.51-.94c.06-.02.09,0,.1.06l.07.29s0,.06,0,.13l-1.3,4.34s0,.02,0,.03c.01,0,.02.01.03,0l2.07-.78c.05-.02.09,0,.11.06l.06.26c.01.06-.01.1-.06.12l-2.53.95c-.06.02-.09,0-.1-.06Z"/>
          <path class="cls-5" d="M57.72,97.42c-.1-.05-.16-.13-.2-.23-.05-.14-.05-.28.01-.41.06-.14.15-.23.27-.28.1-.04.2-.03.3.02.1.05.17.13.21.24.05.14.05.27-.01.41-.06.14-.15.23-.28.27-.11.04-.21.04-.31-.01Z"/>
          <path class="cls-5" d="M61.44,96.16s-.03-.03-.04-.05l-1.46-6.08s0-.05,0-.07c.01-.02.03-.04.06-.05l.28-.11c.06-.02.1-.01.12.02l1.96,2.27s.01.01.03,0c.01,0,.02-.01.02-.03l.64-3.24s.03-.08.08-.1l.28-.11c.05-.02.09,0,.11.06l1.46,6.08c.01.06-.01.1-.06.12l-.27.1c-.06.02-.09,0-.1-.06l-1.23-5.07s0-.03-.01-.02c0,0-.02.01-.02.03l-.56,2.83s-.04.08-.09.1l-.12.04c-.06.02-.1.01-.12-.02l-1.75-1.98s-.02-.01-.03,0c0,0-.01.01-.01.03l1.24,5.08s0,.05-.01.07c-.01.02-.03.04-.05.05l-.27.1s-.05.01-.07,0Z"/>
          <path class="cls-5" d="M67.63,88.96l.27-.1c.06-.02.09,0,.1.06l1.05,4.32c.01.06-.01.1-.06.12l-.27.1c-.05.02-.09,0-.11-.06l-.1-.41s0-.03-.01-.02c0,0-.02.01-.02.03-.06.22-.16.42-.31.58-.15.17-.33.29-.56.38-.35.13-.67.12-.96-.04-.29-.16-.51-.44-.65-.84-.08-.21-.17-.53-.27-.94-.12-.48-.19-.84-.22-1.07-.05-.42.02-.78.19-1.1s.44-.54.8-.67c.45-.17.82-.1,1.12.21.02,0,.03,0,.03,0,0,0,0-.02,0-.03l-.09-.4c0-.06.01-.1.06-.12ZM68.09,91.24c-.1-.39-.17-.66-.23-.81l-.08-.18c-.09-.25-.24-.43-.43-.53-.2-.11-.41-.11-.65-.02-.25.09-.44.25-.57.48-.13.23-.18.48-.16.75.02.23.08.58.19,1.05.1.43.2.76.29.99.1.25.25.43.46.53.2.1.43.1.69,0,.25-.09.43-.25.55-.48.12-.22.16-.47.13-.75-.02-.24-.09-.58-.19-1.03Z"/>
          <path class="cls-5" d="M71.66,87.72c.26.13.46.37.59.73.02.06.05.14.08.26l.73,3.02c.01.06-.01.1-.06.12l-.27.1s-.05.01-.07,0-.03-.03-.04-.05l-.71-2.95s-.03-.11-.06-.19c-.1-.27-.25-.45-.45-.56-.2-.1-.42-.11-.67-.02-.26.1-.46.26-.58.5-.13.24-.17.5-.13.81l.75,3.1c.01.06-.01.1-.06.12l-.27.1c-.06.02-.09,0-.1-.06l-1.47-6.07c-.01-.06.01-.1.06-.12l.27-.1c.06-.02.09,0,.1.06l.52,2.13s.03.04.04,0c.06-.23.17-.42.33-.58.15-.16.34-.28.57-.36.34-.13.64-.13.91,0Z"/>
          <path class="cls-5" d="M75.55,85.98l.27-.1c.06-.02.09,0,.1.06l1.05,4.32c0,.06-.01.1-.06.12l-.27.1c-.05.02-.09,0-.11-.06l-.1-.41s0-.03-.01-.02-.02.01-.02.03c-.06.22-.16.42-.31.58-.15.16-.33.29-.56.38-.35.13-.67.12-.96-.04-.29-.16-.51-.44-.65-.84-.08-.21-.17-.53-.27-.94-.12-.48-.19-.84-.22-1.07-.05-.42.02-.78.19-1.1.18-.31.44-.54.8-.67.45-.17.82-.1,1.12.21.02,0,.03,0,.03,0,0,0,0-.02,0-.03l-.09-.4c-.01-.06.01-.1.06-.12ZM76.01,88.27c-.1-.39-.17-.66-.23-.81l-.08-.18c-.09-.25-.24-.43-.43-.53-.2-.11-.41-.11-.65-.02-.25.09-.44.25-.57.48-.13.23-.18.48-.16.75.02.23.08.58.19,1.05.1.43.2.76.29.99.1.25.25.43.46.53.2.1.43.1.69,0,.25-.09.43-.25.55-.48s.16-.47.13-.75c-.02-.24-.09-.58-.19-1.03Z"/>
          <path class="cls-5" d="M78.79,85.15s-.03.04-.05.05l-.82.31s-.02.01-.03.02c0,0,0,.02,0,.03l.69,2.85c.03.11.05.18.07.23.08.21.18.33.31.37s.3.03.51-.06l.15-.05c.06-.02.09,0,.1.06l.06.24c.01.06,0,.1-.06.13l-.21.08c-.31.12-.56.15-.76.09-.2-.05-.36-.23-.47-.53-.02-.05-.05-.14-.08-.27l-.72-2.98s-.02-.03-.05-.02l-.42.16c-.05.02-.09,0-.11-.06l-.05-.21c-.01-.06.01-.1.06-.12l.43-.16s.03-.02.02-.05l-.24-1.01c-.01-.06.01-.1.06-.12l.26-.1c.06-.02.09,0,.1.06l.24,1.01s.02.03.05.02l.82-.31c.06-.02.09,0,.1.06l.06.2s0,.05-.01.07Z"/>
          <path class="cls-5" d="M84.29,82.98c.25.13.45.37.58.73.02.06.05.16.09.29l.73,3c0,.06-.01.1-.06.12l-.26.1c-.05.02-.09,0-.11-.06l-.7-2.94s-.03-.11-.07-.2c-.1-.27-.25-.46-.44-.57-.19-.1-.41-.11-.65-.02-.27.1-.47.28-.59.54-.12.26-.13.56-.05.9l.71,2.96c.01.06-.01.1-.06.12l-.26.1c-.06.02-.09,0-.1-.06l-.71-2.94s-.03-.11-.07-.2c-.1-.27-.25-.46-.44-.56-.19-.1-.4-.11-.64-.02-.28.1-.48.29-.59.54-.11.26-.13.56-.05.89l.71,2.96c.01.06-.01.1-.06.12l-.26.1c-.06.02-.09,0-.1-.06l-1.05-4.32c0-.06.01-.1.06-.12l.26-.1c.06-.02.09,0,.1.06l.09.38s.02.02.03.02c.01,0,.02-.01.02-.03.07-.22.18-.41.33-.56.15-.16.33-.27.55-.35.24-.09.47-.11.68-.05.21.06.39.19.54.39,0,.01.01.02.02.01s.01-.02.02-.04c.05-.28.15-.51.32-.71s.38-.34.63-.44c.32-.12.61-.11.86.02Z"/>
          <path class="cls-5" d="M88.15,81.25l.27-.1c.06-.02.09,0,.1.06l1.05,4.32c0,.06-.01.1-.06.12l-.27.1c-.05.02-.09,0-.11-.06l-.1-.41s0-.03-.01-.02c0,0-.02.01-.02.03-.06.22-.16.42-.31.58-.15.16-.33.29-.56.38-.35.13-.67.12-.96-.04-.29-.16-.51-.44-.65-.84-.08-.21-.17-.53-.27-.94-.12-.48-.19-.84-.22-1.07-.05-.42.02-.78.19-1.1.18-.31.44-.54.8-.67.45-.17.82-.1,1.12.21.02,0,.03,0,.04,0,0,0,0-.02,0-.03l-.09-.4c-.01-.06.01-.1.06-.12ZM88.61,83.53c-.1-.39-.17-.66-.23-.81l-.08-.18c-.09-.25-.24-.43-.43-.53-.2-.1-.41-.11-.65-.02-.25.09-.44.25-.57.48-.13.23-.18.48-.16.75.02.23.08.58.19,1.05.1.43.2.76.29.99.1.25.25.43.46.53.2.1.43.1.69,0,.25-.09.43-.25.55-.48s.16-.47.13-.75c-.02-.24-.09-.58-.19-1.03Z"/>
          <path class="cls-5" d="M92.92,84.03c-.35-.15-.6-.43-.76-.85-.02-.05-.04-.14-.08-.25l-.74-3.04c-.12-.51-.08-.97.15-1.39.22-.42.58-.72,1.07-.9.44-.16.83-.17,1.18-.03.35.15.6.42.75.83.02.05.04.13.07.25l.06.26s0,.05,0,.07c-.01.02-.03.04-.05.05l-.27.1s-.05,0-.07,0c-.02-.01-.03-.03-.04-.06l-.06-.26s-.03-.1-.06-.18c-.11-.3-.3-.51-.55-.62-.26-.11-.54-.11-.86.01-.35.13-.61.35-.77.66-.16.31-.2.65-.11,1.02l.74,3.07s.03.1.06.18c.12.31.3.52.55.63.25.11.54.11.87-.01.35-.13.61-.35.77-.65.16-.3.2-.64.11-1.01l-.26-1.09s-.02-.03-.05-.02l-1.03.39c-.06.02-.09,0-.1-.06l-.06-.23c-.01-.06.01-.1.06-.12l1.43-.54c.06-.02.09,0,.1.06l.33,1.38c.13.52.08.98-.14,1.4-.22.42-.58.72-1.06.9-.44.17-.84.18-1.19.03Z"/>
          <path class="cls-5" d="M98.05,77.54l.27-.1c.06-.02.09,0,.1.06l1.05,4.32c0,.06-.01.1-.06.12l-.27.1c-.05.02-.09,0-.11-.06l-.1-.41s0-.03-.01-.02c0,0-.02.01-.02.03-.06.22-.16.42-.31.58-.15.16-.33.29-.56.38-.35.13-.67.12-.96-.04-.29-.16-.5-.44-.65-.84-.08-.21-.17-.53-.27-.94-.12-.48-.19-.84-.22-1.07-.05-.42.02-.78.19-1.1.17-.31.44-.54.8-.67.45-.17.82-.1,1.12.21.02,0,.03,0,.04,0,0,0,0-.02,0-.03l-.09-.4c-.01-.06.01-.1.06-.12ZM98.51,79.82c-.1-.39-.17-.66-.23-.81l-.08-.18c-.09-.25-.24-.43-.43-.53-.2-.11-.41-.11-.65-.02-.25.09-.44.25-.57.48-.13.23-.18.48-.16.75.02.23.08.58.19,1.05.1.43.2.76.29.99.1.25.26.43.46.53.2.1.43.1.69,0,.25-.09.43-.25.55-.48s.16-.47.13-.75c-.02-.24-.09-.58-.19-1.03Z"/>
          <path class="cls-5" d="M102.08,76.3c.26.13.46.37.59.73.02.06.05.14.08.26l.73,3.02c.01.06-.01.1-.06.12l-.27.1s-.05.01-.07,0c-.02-.01-.03-.03-.04-.05l-.71-2.95s-.03-.11-.06-.19c-.1-.27-.25-.45-.45-.56-.2-.1-.42-.11-.67-.02-.26.1-.46.26-.58.5-.13.24-.17.5-.13.81l.75,3.1c0,.06-.01.1-.06.12l-.27.1c-.06.02-.09,0-.1-.06l-1.05-4.32c0-.06.01-.1.06-.12l.27-.1c.06-.02.09,0,.1.06l.1.38s.03.04.04,0c.06-.23.17-.42.33-.58.15-.16.34-.28.57-.36.34-.13.64-.13.91,0Z"/>
          <path class="cls-5" d="M105.55,72.81l.27-.1c.06-.02.09,0,.1.06l1.47,6.07c0,.06-.01.1-.06.12l-.27.1c-.05.02-.09,0-.11-.06l-.1-.41s0-.03-.01-.02-.02.01-.02.03c-.06.22-.16.42-.31.58-.15.16-.33.29-.56.38-.35.13-.67.12-.96-.04-.29-.16-.51-.44-.66-.84-.08-.21-.17-.53-.27-.94-.12-.48-.19-.84-.22-1.07-.05-.42.02-.78.19-1.1.17-.31.44-.54.8-.67.45-.17.82-.1,1.12.21.02,0,.03,0,.04,0,0,0,0-.02,0-.03l-.52-2.15c-.01-.06.01-.1.06-.12ZM106.43,76.85c-.1-.39-.17-.66-.23-.81l-.08-.18c-.09-.25-.24-.43-.43-.53-.2-.1-.41-.11-.65-.02-.25.09-.44.25-.57.48-.13.23-.18.48-.16.75.02.23.08.58.19,1.05.1.43.2.76.29.99.1.25.25.43.46.53.2.1.43.1.69,0,.25-.09.43-.25.55-.48.12-.22.16-.47.13-.75-.02-.24-.09-.58-.19-1.03Z"/>
          <path class="cls-5" d="M110,73.33c.26.13.46.37.59.73.02.06.05.14.08.26l.73,3.02c.01.06-.01.1-.06.12l-.27.1s-.05.01-.07,0c-.02-.01-.03-.03-.04-.05l-.71-2.95s-.03-.11-.06-.19c-.1-.27-.25-.45-.45-.56-.2-.1-.42-.11-.67-.02-.26.1-.46.26-.58.5s-.17.5-.13.81l.75,3.1c.01.06-.01.1-.06.12l-.27.1c-.06.02-.09,0-.1-.06l-1.47-6.07c-.01-.06.01-.1.06-.12l.27-.1c.06-.02.09,0,.1.06l.52,2.13s.03.04.04,0c.06-.23.17-.42.33-.58.15-.16.34-.28.56-.36.34-.13.64-.13.91,0Z"/>
          <path class="cls-5" d="M111.35,71.45c-.08-.04-.14-.1-.18-.2-.04-.12-.04-.23,0-.34.05-.11.13-.19.25-.23.1-.04.18-.04.26,0,.07.04.13.1.16.19.05.12.05.24,0,.35-.04.11-.12.19-.24.23-.1.04-.19.04-.27,0ZM112.68,76.86l-1.04-4.33c-.01-.06.01-.1.06-.12l.27-.1c.06-.02.09,0,.1.06l1.05,4.32c.01.06-.01.1-.06.12l-.27.1c-.05.02-.09,0-.11-.06Z"/>
        </g>
        <g>
          <g>
            <path class="cls-5" d="M125.06,60.94h.32s.04,0,.06.03c.02.02.02.04.01.06l-.77,6.2s0,.05-.03.06c-.02.02-.04.03-.06.03h-.29s-.05,0-.07-.03-.02-.04-.01-.06l.7-5.73s0-.02,0-.03c0,0-.02,0-.03,0l-.93.43s-.03,0-.05,0-.03,0-.05-.02c-.01-.01-.02-.03,0-.05l.03-.21s.03-.08.07-.11l.99-.56s.07-.03.12-.03Z"/>
            <path class="cls-5" d="M126.48,67.04c-.26-.26-.38-.6-.38-1.04,0-.05,0-.14.02-.26l.39-3.19c.07-.5.27-.91.6-1.22.33-.31.74-.46,1.23-.46.44,0,.8.13,1.06.38.26.25.39.59.39,1.03,0,.06,0,.15-.02.27l-.39,3.19c-.06.51-.26.92-.6,1.23-.34.31-.75.46-1.25.46-.44,0-.79-.13-1.05-.38ZM128.47,66.65c.24-.22.38-.52.42-.88l.4-3.27s0-.12,0-.2c0-.31-.09-.56-.27-.74-.18-.18-.43-.27-.75-.27-.35,0-.64.11-.88.33-.24.22-.38.52-.42.88l-.4,3.27s0,.12,0,.2c0,.31.09.56.27.74.18.18.43.27.74.27.35,0,.65-.11.89-.33Z"/>
            <path class="cls-5" d="M130.76,67.04c-.26-.26-.38-.6-.38-1.04,0-.05,0-.14.02-.26l.39-3.19c.07-.5.27-.91.6-1.22.33-.31.74-.46,1.23-.46.44,0,.8.13,1.06.38.26.25.39.59.39,1.03,0,.06,0,.15-.02.27l-.39,3.19c-.06.51-.26.92-.6,1.23-.34.31-.75.46-1.25.46-.44,0-.79-.13-1.05-.38ZM132.75,66.65c.24-.22.38-.52.42-.88l.4-3.27s0-.12,0-.2c0-.31-.09-.56-.27-.74-.18-.18-.43-.27-.75-.27-.35,0-.64.11-.88.33-.24.22-.38.52-.42.88l-.4,3.27s0,.12,0,.2c0,.31.09.56.27.74.18.18.43.27.74.27.35,0,.65-.11.89-.33Z"/>
            <path class="cls-5" d="M141.73,62.99c.19.21.29.51.29.88,0,.07,0,.17-.02.3l-.37,3.06c-.01.06-.05.09-.1.09h-.28c-.05,0-.08-.03-.08-.09l.37-3s0-.12,0-.21c0-.29-.07-.52-.21-.68-.14-.16-.34-.25-.6-.25-.29,0-.54.1-.74.3-.2.2-.32.47-.37.82l-.37,3.02c-.01.06-.05.09-.1.09h-.28c-.06,0-.09-.03-.07-.09l.37-3s0-.12,0-.21c0-.29-.07-.52-.21-.68-.14-.16-.34-.25-.59-.25-.3,0-.55.1-.74.3-.2.2-.32.47-.36.82l-.37,3.02c-.01.06-.05.09-.1.09h-.28c-.06,0-.09-.03-.07-.09l.54-4.42c.01-.06.05-.09.1-.09h.28c.06,0,.09.03.07.09l-.05.38s0,.03.02.03c.01,0,.02,0,.03-.02.14-.18.31-.32.51-.41s.41-.14.63-.14c.26,0,.48.07.66.2.18.13.3.31.37.55,0,.01,0,.02.01.02,0,0,.02,0,.03-.03.14-.24.32-.43.55-.55.23-.12.48-.19.74-.19.34,0,.61.11.8.32Z"/>
          </g>
          <path class="cls-5" d="M27.82,92.75c-3.53,0-6.41-2.87-6.41-6.41s2.87-6.41,6.41-6.41,6.41,2.87,6.41,6.41-2.87,6.41-6.41,6.41ZM27.82,80.64c-3.14,0-5.7,2.56-5.7,5.7s2.56,5.7,5.7,5.7,5.7-2.56,5.7-5.7-2.56-5.7-5.7-5.7Z"/>
          <rect class="cls-5" x="27.11" y="78.3" width="1.42" height="3.77"/>
          <path class="cls-5" d="M25.95,89.71v-5.78c0-.06.03-.09.09-.09h.64c.05,0,.09.02.1.06l2.07,4s.02.02.03.02.01,0,.01-.03v-3.97c0-.06.03-.09.09-.09h.64c.06,0,.09.03.09.09v5.78c0,.06-.03.09-.09.09h-.65c-.05,0-.09-.02-.1-.06l-2.07-4.02s-.02-.02-.03-.02-.01,0-.01.03v3.99c0,.06-.02.09-.08.09h-.65c-.06,0-.09-.03-.09-.09Z"/>
          <rect class="cls-5" x="123.57" y="56.88" width="18.26" height="1.42"/>
        </g>
        <g>
          <path class="cls-5" d="M66.37,61.42s.04.03.06.06l.12.26s.01.04,0,.07c-.01.02-.03.03-.05.04l-5.95,1.92s-.05,0-.07,0c-.02,0-.04-.02-.05-.05l-.12-.26s-.01-.05,0-.07c0-.02.03-.04.05-.04l2.74-.88s.03-.03.02-.05l-1-2.17s-.03-.03-.05-.02l-2.74.89s-.05,0-.07,0c-.02,0-.04-.02-.05-.05l-.12-.27s-.01-.05,0-.07c0-.02.03-.03.05-.04l5.95-1.91s.04-.01.07,0c.02,0,.04.03.06.05l.12.27s.01.04,0,.07c-.01.02-.03.03-.05.04l-2.73.88s-.01,0-.02,0,0,.02,0,.03l1,2.17s.03.03.05.02l2.73-.87s.05-.01.07,0Z"/>
          <path class="cls-5" d="M62.48,66.83c.2.12.42.18.66.18.05,0,.09.03.11.08l.06.23s0,.05-.02.06c-.02.02-.04.02-.06.02-.35.02-.67-.05-.96-.22-.29-.17-.51-.42-.66-.75-.17-.36-.2-.7-.09-1.01.11-.31.33-.55.68-.72.25-.12.6-.25,1.05-.4.43-.14.77-.24,1.02-.29.39-.08.76-.04,1.11.13.35.17.6.43.77.8.18.39.21.74.08,1.06-.12.32-.37.56-.74.74-.13.06-.4.16-.79.29-.06.01-.13.04-.24.07-.02.01-.05.01-.07,0-.02,0-.04-.02-.05-.05l-1.04-2.24s-.03-.03-.05-.02c-.33.1-.58.19-.76.27-.26.12-.43.29-.52.52-.09.23-.07.47.05.73.1.23.26.4.46.52ZM65.19,64.53c-.25-.11-.51-.14-.8-.08l-.69.19s-.03.02-.02.04l.86,1.86s.03.03.05.03c.32-.11.55-.19.67-.25.25-.12.43-.29.52-.51.09-.22.08-.46-.04-.72-.12-.26-.3-.44-.55-.55Z"/>
          <path class="cls-5" d="M68.27,69.7l.12.27c.03.05,0,.09-.05.1l-4.24,1.37c-1.27.41-2.17,0-2.68-1.25-.02-.05,0-.09.05-.11l.26-.07c.06-.01.1,0,.12.05.21.5.49.82.82.97s.75.14,1.25-.01l.38-.13s.02-.02.02-.03c0,0-.01-.01-.03-.01-.22-.05-.41-.14-.58-.27-.17-.14-.3-.31-.4-.52-.16-.34-.18-.66-.06-.96.12-.3.35-.54.71-.71.24-.11.57-.23,1-.36.46-.15.82-.25,1.06-.29.39-.08.74-.04,1.08.11.33.15.58.4.73.74.1.22.14.42.12.62-.02.2-.09.37-.21.53-.01.01-.02.02-.01.03,0,0,.02,0,.04,0l.37-.12c.06-.01.1,0,.12.05ZM66.03,70.33c.37-.12.68-.22.93-.32.26-.11.44-.27.54-.49.1-.22.09-.45-.03-.71-.11-.25-.3-.43-.55-.54-.25-.11-.52-.15-.81-.09-.41.11-.72.2-.94.27-.44.14-.75.26-.93.34-.25.12-.42.29-.51.51-.09.22-.07.46.05.72.12.25.3.43.54.53.25.11.51.13.79.06.19-.05.5-.14.93-.28Z"/>
          <path class="cls-5" d="M65.95,74.32c.2.12.42.18.66.18.05,0,.09.03.11.08l.06.23s0,.05-.02.06c-.02.02-.04.02-.06.02-.35.02-.67-.05-.96-.22-.29-.17-.51-.42-.66-.75-.17-.36-.2-.7-.09-1.01.11-.31.33-.55.68-.72.25-.12.6-.25,1.05-.4.43-.14.77-.24,1.02-.29.39-.08.76-.04,1.11.13.35.17.6.43.77.8.18.39.21.74.08,1.06-.12.32-.37.56-.74.74-.13.06-.4.16-.79.29-.05.01-.13.03-.24.07-.02.01-.05.01-.07,0-.02,0-.04-.02-.05-.05l-1.04-2.24s-.03-.03-.05-.02c-.33.1-.58.19-.76.27-.26.12-.43.29-.52.52-.09.22-.07.47.05.73.1.23.26.4.46.52ZM68.66,72.02c-.25-.11-.51-.14-.8-.08l-.69.19s-.03.02-.02.04l.86,1.86s.03.03.05.03c.32-.11.55-.19.67-.25.25-.12.43-.29.52-.51.09-.22.08-.46-.04-.72s-.3-.44-.55-.56Z"/>
          <path class="cls-5" d="M66.36,76.31l5.95-1.92c.06-.01.1,0,.13.05l.12.26s0,.09-.05.11l-5.95,1.91c-.06.01-.1,0-.12-.05l-.12-.27c-.02-.05,0-.09.05-.1Z"/>
        </g>
        <g>
          <path class="cls-5" d="M134.77,122.85s-.04.03-.06.02l-1.21.1s-.03.01-.03.03l-.14,2.23s0,.04.02.05l1.17.53c.05.03.08.07.08.11l-.02.3c0,.07-.04.09-.1.06l-6.05-2.8s-.04-.02-.05-.04c-.01-.02-.02-.04-.01-.06l.02-.37c0-.06.03-.09.08-.09l6.26-.52h.02s.04.01.06.03c.01.02.02.04.02.07l-.02.29s-.01.04-.03.06ZM132.93,125.08s.01-.01.02-.03l.12-2s0-.02-.01-.03c0-.01-.02-.02-.02-.01l-3.93.3s-.02.01-.02.02c0,0,0,.01.02.02l3.8,1.73s.01,0,.02,0Z"/>
          <path class="cls-5" d="M134.9,120.7l-4.47.34h-.02c-.05,0-.08-.04-.07-.1l.03-.33s.03-.08.08-.08l3.8-.23s.02,0,.02-.02c0-.01,0-.02-.02-.03l-3.61-1.83c-.05-.03-.08-.06-.07-.11l.04-.33s.01-.05.03-.07.04-.01.07,0l4.23,2.22s.07.06.06.11l-.03.35s-.03.08-.08.09Z"/>
          <path class="cls-5" d="M135.06,118.13c-.09.06-.19.09-.3.08-.15-.02-.27-.08-.36-.2-.1-.12-.14-.24-.12-.37.01-.11.06-.2.15-.26s.19-.09.31-.08c.15.02.26.08.36.2.09.11.13.24.12.37-.01.12-.06.2-.15.27Z"/>
          <path class="cls-5" d="M135.41,113.87c-.3.23-.67.31-1.11.25-.05,0-.14-.03-.26-.06l-3.01-.83c-.5-.14-.88-.41-1.14-.8-.26-.4-.35-.86-.27-1.37.07-.46.25-.81.55-1.05.3-.23.66-.32,1.09-.26.05,0,.13.03.25.06l.26.08s.04.02.06.04c.02.02.02.04.02.07l-.04.29s-.02.05-.04.06c-.02.01-.04.01-.07,0l-.26-.08s-.1-.02-.19-.04c-.32-.05-.59.01-.81.18-.22.17-.36.42-.41.76-.06.37.01.7.21,1,.19.29.47.49.84.59l3.05.85s.1.02.19.04c.32.05.6,0,.82-.18.22-.17.36-.42.41-.76.06-.37,0-.7-.19-.99-.18-.29-.46-.48-.82-.59l-1.08-.3s-.04,0-.04.03l-.16,1.09c0,.06-.04.08-.1.06l-.23-.06c-.06-.02-.08-.06-.07-.11l.23-1.51c0-.06.04-.08.1-.06l1.37.38c.51.14.9.41,1.16.81.26.4.35.85.27,1.36-.07.47-.26.82-.56,1.05Z"/>
          <path class="cls-5" d="M132.36,106.61s.06-.04.11,0l.28.17c.05.04.06.08.03.13-.06.08-.1.17-.12.28v.1c-.05.28.02.54.22.79.2.25.47.43.81.54l2.65.83c.06.02.08.06.07.12l-.05.29c-.01.06-.05.08-.1.06l-4.25-1.33c-.06-.02-.08-.06-.07-.12l.05-.29c.01-.06.05-.08.1-.06l.59.18s.03,0,.03-.01c0-.01,0-.02-.02-.03-.2-.17-.35-.36-.45-.56s-.12-.43-.08-.65c.03-.18.09-.32.18-.42Z"/>
          <path class="cls-5" d="M133.03,103.22l.06-.29c.01-.06.05-.08.1-.05l4.2,1.47c.06.02.08.06.07.12l-.06.29c-.01.05-.05.07-.11.06l-.37-.14s-.03,0-.03,0,0,.02.01.04c.31.34.41.75.3,1.23-.08.35-.24.61-.48.77-.24.17-.54.21-.91.13-.05-.01-.14-.04-.25-.07l-2.99-1.05c-.06-.02-.08-.06-.07-.12l.06-.29c.01-.05.05-.07.11-.06l2.88,1.01c.1.04.18.06.22.07.27.06.5.03.69-.08s.3-.3.36-.56c.06-.3.02-.57-.14-.82-.16-.25-.4-.44-.74-.55l-2.84-1c-.06-.02-.08-.06-.07-.12Z"/>
          <path class="cls-5" d="M134.23,99.99s.02.05.01.07l-.22.85s0,.02,0,.03c0,.01.01.02.02.02l2.73,1.07c.1.04.18.06.22.08.21.05.37.04.49-.04.11-.08.19-.23.24-.45l.04-.15c.02-.06.05-.07.11-.05l.23.09c.06.03.08.07.07.12l-.06.22c-.08.32-.2.54-.36.68-.16.13-.4.16-.71.08-.05-.01-.14-.04-.27-.09l-2.85-1.12s-.04,0-.04.03l-.11.43c-.01.05-.05.07-.11.06l-.2-.08c-.06-.03-.08-.07-.06-.12l.11-.44s0-.04-.03-.04l-.97-.38c-.06-.03-.08-.07-.06-.12l.07-.27c.01-.06.05-.07.11-.05l.97.38s.04,0,.04-.03l.22-.85c.01-.06.05-.07.11-.05l.2.07s.04.03.05.05Z"/>
          <path class="cls-5" d="M134.92,96.32l.08-.28c.02-.06.05-.07.11-.04l4.07,1.79c.05.03.07.07.06.12l-.08.28c-.02.05-.05.07-.11.05l-.39-.17s-.02-.01-.03,0c0,0,0,.02,0,.04.14.18.23.38.28.6.04.22.03.44-.04.67-.11.36-.31.61-.61.74-.3.13-.65.14-1.06.01-.22-.06-.52-.18-.91-.36-.46-.19-.78-.35-.98-.48-.36-.22-.61-.49-.75-.82s-.16-.68-.05-1.04c.14-.46.42-.71.85-.76.01,0,.02-.02.02-.03,0,0,0-.02-.03-.02l-.38-.17c-.05-.03-.07-.07-.06-.12ZM137.02,97.34c-.37-.16-.63-.27-.78-.31l-.19-.05c-.26-.08-.49-.07-.69.02-.2.09-.34.26-.41.5-.08.26-.07.5.03.74s.27.43.5.58c.2.13.51.29.95.49.4.18.73.3.97.37.26.07.5.06.7-.04.2-.1.35-.28.43-.54.08-.26.06-.5-.04-.73s-.28-.41-.52-.56c-.2-.12-.52-.28-.93-.47Z"/>
          <path class="cls-5" d="M139.53,96.26c-.26.15-.54.18-.82.08-.06-.02-.1-.04-.13-.05l-.07-.04c-.05-.03-.07-.07-.05-.13l.09-.26s.03-.05.04-.06c.02,0,.04,0,.06,0l.07.04c.2.1.39.1.6,0,.2-.1.35-.29.45-.57.1-.27.1-.52.02-.75-.08-.23-.23-.4-.45-.51-.15-.07-.3-.09-.43-.06-.13.04-.25.1-.36.2-.11.1-.24.24-.41.43-.25.3-.48.52-.7.65-.22.14-.47.16-.76.05-.39-.14-.66-.39-.8-.75-.14-.36-.13-.75.02-1.18.13-.37.33-.62.58-.77s.53-.17.83-.06c.07.02.12.05.15.06h.03c.05.04.07.08.05.13l-.09.25c-.02.05-.05.07-.09.06l-.06-.03c-.21-.11-.41-.11-.61-.01-.2.1-.34.28-.44.56-.1.29-.11.55-.02.79.09.24.26.4.51.49.19.07.36.05.5-.05.15-.1.33-.28.56-.54.18-.21.33-.37.46-.5.13-.12.29-.21.46-.27.18-.06.37-.05.57.03.4.14.67.4.82.76.15.36.14.76-.02,1.21-.14.38-.33.64-.6.8Z"/>
        </g>
        <circle class="cls-4" cx="27.82" cy="33.21" r="1.33"/>
      </g>
    </g>
  </g>
</svg>