<?xml version="1.0" encoding="UTF-8"?>
<svg xmlns="http://www.w3.org/2000/svg" version="1.1" xmlns:xlink="http://www.w3.org/1999/xlink" viewBox="0 0 344.68 322.87">
  <defs>
    <style>
      .cls-1 {
        fill: #e4e1e1;
      }

      .cls-2 {
        fill: #fff;
      }

      .cls-3 {
        fill: none;
      }

      .cls-4 {
        fill: #90414b;
      }

      .cls-5 {
        fill: #453a36;
      }

      .cls-6 {
        clip-path: url(#clippath);
      }
    </style>
    <clipPath id="clippath">
      <circle class="cls-3" cx="175.49" cy="174.56" r="126.46"/>
    </clipPath>
  </defs>
  <!-- Generator: Adobe Illustrator 28.7.1, SVG Export Plug-In . SVG Version: 1.2.0 Build 142)  -->
  <g>
    <g id="Capa_1">
      <g>
        <g class="cls-6">
          <g>
            <rect class="cls-1" x="-31.64" y=".32" width="390.22" height="319.61"/>
            <g>
              <rect class="cls-2" x="29.62" y="117.74" width="251.31" height="6.98" transform="translate(-36.56 76.43) rotate(-24.84)"/>
              <rect class="cls-2" x="132.16" y="39.79" width="4.65" height="86.64" transform="translate(-22.48 64.22) rotate(-24.85)"/>
              <path class="cls-2" d="M233.01,120.25c-.82,0-1.62-.03-2.4-.08-14.01-.97-20.61-20.22-21.67-23.62l-3.36-4.06c-8.32-.22-63.24-1.72-81.83-2.91-20.52-1.31-39.78-12.24-40.59-12.7l2.31-4.04c.19.11,19.15,10.85,38.57,12.09,19.95,1.27,82.09,2.91,82.72,2.93l1.06.03,5.32,6.42.13.47c.06.2,5.87,19.93,17.66,20.74,6.12.42,14.14-1.18,22.63-2.87,13.28-2.65,28.33-5.65,39.8-1.33l-1.64,4.35c-10.22-3.85-23.96-1.11-37.25,1.54-7.79,1.55-15.2,3.03-21.46,3.03Z"/>
              <path class="cls-2" d="M214.32,95.14c-1.78,0-3.3-.5-4.54-1.51-4.62-3.73-2.77-12.65-2.54-13.65l.08-.28c7.52-20.89,11.78-32.03,12.68-33.1l3.56,3s.09-.1.14-.19c-1.01,1.74-7.84,20.31-11.95,31.72-.5,2.35-.88,7.39.96,8.88,1.05.85,3.27.56,6.23-.81l1.96,4.22c-2.48,1.15-4.67,1.72-6.57,1.72Z"/>
              <rect class="cls-2" x="190.93" y="35.34" width="4.65" height="58.13" transform="translate(-7.89 96.63) rotate(-27.53)"/>
              <path class="cls-2" d="M253.47,275.68l-3.65-2.88c-.44.56-.49,1.17-.46,1.42-.15-1.03-2.24-6.33-4.26-11.45-5.01-12.68-12.58-31.85-15.5-45.98-6.95-33.66-.71-62.8,18.54-86.61,20.15-24.92,40.27-21.02,47.85-19.55.88.17,1.97.37,2.3.37-.29.01-1,.28-1.38,1.03l4.17,2.07c-1.02,2.06-3.21,1.63-5.98,1.09-7.47-1.45-24.95-4.84-43.34,17.91-18.34,22.68-24.26,50.52-17.6,82.74,2.84,13.73,10.32,32.67,15.27,45.21,4.9,12.42,5.2,13.16,4.05,14.62Z"/>
              <path class="cls-2" d="M39.88,201.06c-4.11,0-6.58-1-6.81-1.1l1.79-4.3c.45.18,11.23,4.29,26.48-8.66,17.37-14.75,37.63-21.67,62.3-29.17,4.35-1.32,8.3-2.5,11.97-3.59,18.16-5.39,29.11-8.64,46-17.44,20.05-10.44,51.65-22.18,69.83-23.73l.4,4.64c-17.36,1.49-48.85,13.21-68.07,23.22-17.29,9-28.41,12.3-46.83,17.77-3.66,1.09-7.61,2.26-11.94,3.58-24.96,7.59-43.92,14.06-60.65,28.27-10.16,8.63-18.84,10.5-24.47,10.5Z"/>
              <path class="cls-2" d="M106.57,168.01l-2.09-1.02c2.37-4.87,5.82-13.56,4.97-16.14-1.2-3.67-3.68-6.26-3.7-6.29l-.13-.13-.08-.17-33.89-69.85,2.09-1.02,33.81,69.69c.59.64,2.89,3.32,4.11,7.04,1.41,4.31-4.42,16.5-5.09,17.88Z"/>
              <path class="cls-2" d="M124.32,161.23c-1.03,0-12.45-3.92-18.78-16.96l2.09-1.02c5.43,11.19,15.16,15.32,16.85,15.67l-.16.79v1.52Z"/>
              <rect class="cls-2" x="152.13" y="65.24" width="18.61" height="299.19" transform="translate(-77.81 337.21) rotate(-80.17)"/>
              <path class="cls-2" d="M164.88,304.49c-1.12-1.06-27.51-26.16-39.59-48.25-12.85-23.49,15.79-46.24,16.08-46.46l2.86,3.67c-.26.2-25.82,20.54-14.87,40.56,11.74,21.46,38.44,46.85,38.71,47.11l-3.2,3.38Z"/>
            </g>
          </g>
        </g>
        <g>
          <path class="cls-1" d="M94.01,120.33c-.39,0-.74-.05-1.08-.1-.32-.05-.62-.09-.97-.09-.13,0-.27,0-.42.02-.19.02-.38.03-.56.03-1.75,0-3.22-.82-4.51-1.54-1.1-.62-2.14-1.2-3.18-1.2-1.4,0-2.61-.53-3.51-1.52-.9-.99-1.3-2.28-1.47-3.41-2.06-.03-5.19-.07-7.71-.07-2.66,0-3.5.04-3.77.07-.27.03-.52.04-.75.04-2.17,0-3.11-1.1-3.51-1.57,0,0,0,0,0,0-1.14-.8-7.18-5.17-8.45-6.08l-.8-.58-.14-.98c-.07-.47-.42-1.62-1-2.07-1.63-1.27-2.33-3.7-3.15-7-.19-.76-.37-1.47-.52-1.94-.19-.58-.36-1.23-.51-1.86-.15-.62-.42-1.68-.66-2.23-1.84-.31-3.72-1.95-3.72-5.85,0-.55-.04-.81-.07-.94-.02,0-.04,0-.06-.01-1.2-.22-2.08-.75-2.6-1.59-.8-1.28-.43-2.6-.16-3.57.07-.25.15-.53.21-.82.16-.79.11-1.29.04-1.98-.04-.43-.09-.91-.09-1.48,0-1.82,1.42-3.03,2.56-4.01.33-.28.87-.75,1.03-.97.44-1.12,1.28-1.96,2.17-2.85.73-.73,1.49-1.49,2.12-2.47.71-1.1,1.59-2.48,3.23-2.48.5,0,.91.14,1.2.28.28-.23.67-.54,1.25-.91.18-.11.42-.63.66-1.13.37-.79.83-1.77,1.67-2.8,1.38-1.69,2.97-2.38,4.02-2.83.31-.13.63-.27.78-.37.24-.16.6-.75.68-1.08-.4-1.41.21-2.87.81-4.29.06-.14.12-.29.18-.43-.65-.65-1.59-2.11-.67-4.62.34-.92.91-1.89,1.49-2.55.05-.22.11-.62.15-.9.11-.78.24-1.67.63-2.46.52-1.04,1.52-1.66,2.68-1.66.71,0,1.34.23,1.95.45.55.2,1.11.4,1.73.45.1,0,.2.02.3.03-.09-.48-.11-1,0-1.56.18-.92.67-1.54,1.26-1.89-.88-1.02-.87-2.07-.78-2.62.32-1.86,2.13-2.72,3.32-3.29l.22-.11c.05-.13.16-.51.17-1.39.02-2.51,1.91-4,3.74-4,1.17,0,2.21.62,2.71,1.61.15.25,1.03,1.3,1.85,2.2l.29.31.16.39c.23.56.71,1.58,1.02,1.97.84,1.05,1.36,2.7-.94,4.59-.43.36-.93.76-1.47,1.42-.05.06-.1.12-.15.18.44.1.96.25,1.51.55.69.37,1.22.83,1.69,1.23.61.53,1.14.99,2.14,1.37.45.17.84.29,1.19.39,1.33.39,3.81,1.11,3.53,4.69-.06.78.03.98,1.77,2.56l.54.5c2.4,2.22,2.63,3.72.95,6.18-.16.24-.35.52-.56.85-.82,1.31-.55,2.85.71,4.12,1.08,1.08,3.57,2.11,5.38,2.86,1.03.43,1.92.79,2.61,1.17,1.91,1.04,2.34,3.05,2.59,4.25.03.17.08.38.12.56,2.43.98,4,2.89,4.58,5.56.57,2.65-.52,4.44-1.24,5.63-.24.4-.45.75-.58,1.07-.21.52-.15,1.6-.11,2.39.03.62.06,1.22.01,1.78.48.43,1.15,1.07,1.68,2.02.56,1.01,1.08,1.43,2.8,2.73l.17.13c1.63,1.23,1.7,2.49,1.47,3.33-.53,1.93-2.48,2.17-4.56,2.41.05.12.09.23.13.33.05.1.17.27.29.47.67,1.07,2.04,3.27.96,5.81.51.56.8,1.19.86,1.9.08.88-.16,2.15-1.75,3.35.31.96.86,2.55,1.34,3.43,1.44,2.6-.39,4.22-.99,4.75-.31.27-.55.49-.75.81-1.34,2.24-3.24,2.69-4.76,3.05-.28.07-.57.13-.88.22-.58.16-1.21.24-1.87.24h0c-1.58,0-3.1-.45-4.44-.84-.08-.02-.17-.05-.25-.07-.17.39-.37.92-.54,1.36-.23.61-.47,1.26-.76,1.93-.4.92-1.35,3.09-3.86,3.09ZM111.3,102.75h0Z"/>
          <path class="cls-2" d="M79.42,21.85c.28,0,.52.11.63.33.34.68,2.22,2.73,2.22,2.73,0,0,.68,1.71,1.36,2.56.68.85-.68,1.02-2.39,3.07-1.71,2.05-1.02,2.05-.68,3.07.34,1.02,1.5.53,2.73,1.19,1.23.66,1.88,1.88,4.09,2.73,2.22.85,3.41.51,3.24,2.73-.17,2.22,1.02,3.07,3.05,4.95,2.03,1.88,1.38,1.88,0,4.09-1.38,2.22-1,4.95,1.04,6.99,2.05,2.05,6.65,3.41,8.53,4.43,1.88,1.02,1.02,4.26,2.56,4.78,1.53.51,3.05,1.57,3.58,4.04.53,2.47-1.02,3.63-1.71,5.34-.68,1.71,0,4.26-.34,5.27-.34,1,1.19,1.38,2.05,2.92.85,1.53,1.79,2.22,3.6,3.58,1.8,1.36-.53,1.36-3.09,1.71-2.56.34-1.02,2.22-.68,3.24.34,1.02,2.22,2.73,1.27,4.74-.95,2.01-2.29.89-.75,1.57,1.53.68,2.19,1.56.51,2.73-1.67,1.16-.85,1.88-.85,1.88,0,0,.85,2.9,1.71,4.43.85,1.53-.68,1.53-1.71,3.24-1.02,1.71-2.39,1.71-4.26,2.22-.41.11-.83.16-1.26.16-1.56,0-3.24-.61-4.71-1.01-.16-.04-.31-.07-.46-.07-1.49,0-1.86,2.35-2.95,4.84-.61,1.39-1.08,1.69-1.73,1.69-.52,0-1.15-.19-2.05-.19-.2,0-.42,0-.66.03-.11.01-.22.02-.33.02-2.44,0-4.59-2.75-7.69-2.75s-2.73-4.9-2.73-4.9c0,0-5.77-.11-9.96-.11-1.84,0-3.38.02-3.99.08-.19.02-.37.03-.52.03-1.5,0-1.61-.76-2.07-1.07-.51-.34-8.53-6.14-8.53-6.14,0,0-.34-2.39-1.88-3.58-1.53-1.19-2.22-5.8-2.9-7.84-.68-2.05-1.02-5.63-2.73-5.63s-2.05-2.22-2.05-3.58-.17-2.9-2.05-3.24c-1.88-.34-1.02-1.53-.68-3.24.34-1.71,0-2.56,0-3.92s2.9-2.73,3.41-4.09c.51-1.36,2.56-2.56,4.09-4.95.72-1.11,1.02-1.41,1.27-1.41.28,0,.48.39,1.12.39,1.19,0,1.19-.51,2.56-1.36,1.36-.85,1.42-2.62,2.9-4.43,1.48-1.81,3.24-2.05,4.28-2.73,1.04-.68,2.03-2.56,1.66-3.58-.37-1.02,1.05-3.24,1.39-4.78.13-.6.16-.73.09-.73-.06,0-.19.09-.38.09-.18,0-.43-.08-.73-.38-1.02-1.02.34-3.41,1.02-4.09.68-.68.51-2.73,1.02-3.75.14-.27.34-.38.6-.38.71,0,1.87.76,3.5.89,2.22.17,1.02,1.02,2.73,1.19.1,0,.19.01.27.01,1.35,0,.74-1.25.58-1.89-.17-.68-1.02-1.71-.83-2.73.05-.27.14-.36.27-.36.29,0,.75.47,1.3.47.14,0,.29-.03.45-.11,1.02-.51,0-2.56-1.19-3.75-1.19-1.19,1.02-2.05,2.05-2.56,1.02-.51,1.35-1.72,1.36-3.41,0-1.16.8-1.69,1.42-1.69M79.42,17.19c-3.34,0-5.98,2.71-6.07,6.19-1.4.76-3.26,2.09-3.68,4.53-.16.9-.07,1.81.22,2.66-.17.27-.31.56-.43.87-.56-.17-1.21-.32-1.95-.32h0c-2.06,0-3.83,1.1-4.76,2.95-.56,1.13-.73,2.26-.86,3.17,0,.06-.02.14-.03.21-1.7,2.21-2.86,5.71-1.3,8.51-.44,1.12-.85,2.38-.78,3.73-1.19.51-3.13,1.37-4.84,3.47-1.02,1.25-1.57,2.42-1.97,3.28-.06.13-.14.29-.2.42-.02.02-.05.03-.07.05-.23-.03-.47-.05-.72-.05-2.9,0-4.39,2.31-5.18,3.55-.5.77-1.13,1.41-1.81,2.08-.88.88-1.86,1.86-2.49,3.19-.16.15-.4.36-.58.51-1.26,1.08-3.37,2.89-3.37,5.78,0,.69.05,1.25.1,1.71.06.63.08.85,0,1.3-.04.18-.1.41-.17.65-.32,1.15-.92,3.28.42,5.43.43.69,1.17,1.53,2.41,2.1.22,3.77,2.01,6.02,4.2,6.95.09.32.17.65.23.9.17.67.34,1.37.56,2.04.13.38.3,1.09.47,1.77.74,2.96,1.57,6.31,3.87,8.18.09.15.2.46.25.69l.22,2.02,1.66,1.06c2.13,1.54,6.76,4.89,8.24,5.94.69.76,2.22,2.15,5.08,2.15.31,0,.64-.02.97-.05.1,0,.76-.06,3.54-.06,1.86,0,4.04.02,5.89.04.33.93.82,1.85,1.56,2.67,1.33,1.48,3.19,2.29,5.24,2.29.43,0,1.29.48,2.04.9,1.46.82,3.29,1.84,5.65,1.84.27,0,.54-.01.8-.04.06,0,.12,0,.18,0,.18,0,.37.03.63.07.38.06.85.12,1.41.12,2.68,0,4.69-1.51,5.99-4.48.22-.5.4-.97.57-1.41,1.01.24,2.12.44,3.28.44.87,0,1.7-.11,2.49-.32.28-.08.55-.14.8-.2,1.64-.38,4.37-1.03,6.23-4.11.03-.03.18-.17.29-.27,3.34-2.95,2.37-6.04,1.49-7.63-.2-.36-.46-.99-.69-1.64,1.37-1.62,1.48-3.26,1.39-4.23-.06-.62-.23-1.34-.62-2.07.39-1.75.04-3.33-.44-4.55,1.45-.52,2.78-1.5,3.31-3.46.28-1.01.6-3.59-2.31-5.8l-.17-.13c-1.63-1.23-1.85-1.44-2.17-2-.43-.77-.92-1.37-1.36-1.85,0-.32-.02-.63-.04-.94-.02-.44-.06-1.17-.02-1.49.08-.16.24-.42.38-.65.8-1.32,2.29-3.77,1.52-7.33-.64-2.97-2.33-5.28-4.83-6.67-.35-1.5-1.12-3.88-3.63-5.25-.8-.44-1.75-.83-2.84-1.28-1.45-.6-3.87-1.6-4.63-2.36-.71-.71-.47-1.11-.38-1.24.19-.3.36-.55.51-.77,2.31-3.4,1.91-6.23-1.3-9.2l-.55-.51c-.34-.31-.75-.68-1-.94.09-2.11-.51-3.79-1.79-5.04-1.15-1.12-2.47-1.51-3.43-1.79-.35-.1-.67-.2-1.01-.32-.61-.24-.89-.48-1.45-.96-.23-.19-.47-.41-.76-.63,3.16-3.38.73-6.65.42-7.04-.13-.19-.47-.87-.68-1.39l-.31-.78-.57-.63c-.63-.68-1.35-1.54-1.59-1.87-.93-1.67-2.7-2.69-4.68-2.69h0Z"/>
        </g>
        <g>
          <polygon class="cls-4" points="200.76 201.56 185.33 199.2 186.78 189.72 189.08 190.07 187.98 197.26 198.81 198.91 204.06 164.47 193.23 162.82 191.27 175.67 188.97 175.32 191.28 160.17 206.71 162.52 200.76 201.56"/>
          <path class="cls-4" d="M224.21,196.32l-24.44-3.73,2.3-15.07,24.44,3.73-2.3,15.07ZM202.42,190.65l19.84,3.03,1.6-10.47-19.84-3.03-1.6,10.47Z"/>
          <polygon class="cls-4" points="182.78 197.89 134.62 190.55 136.1 180.86 133.75 180.5 135.94 166.14 146.26 167.71 147.5 159.57 187.69 165.7 186.28 174.91 183.98 174.56 185.04 167.64 149.45 162.22 148.21 170.36 137.89 168.79 136.4 178.55 138.75 178.91 137.27 188.6 180.83 195.24 181.79 188.96 184.09 189.31 182.78 197.89"/>
          <g>
            <polygon class="cls-4" points="189.95 176.65 169.22 173.48 169.32 172.83 168.17 172.66 168.42 171.01 190.3 174.35 189.95 176.65"/>
            <polygon class="cls-4" points="189.8 191.36 187.75 191.04 187.93 189.89 187.68 189.86 189.87 175.46 190.12 175.5 190.3 174.35 192.35 174.66 189.8 191.36"/>
            <polygon class="cls-4" points="187.75 191.04 165.87 187.71 166.31 184.84 168.61 185.19 168.52 185.76 188.1 188.74 187.75 191.04"/>
            <polygon class="cls-4" points="168.44 186.34 149.2 183.41 150.16 177.15 152.46 177.51 151.85 181.46 166.49 183.69 167.99 173.81 153.36 171.57 152.76 175.53 150.46 175.17 151.41 168.92 170.65 171.86 168.44 186.34"/>
            <rect class="cls-4" x="150.46" y="175.18" width="2" height="2.33" transform="translate(-45.69 299.49) rotate(-81.33)"/>
          </g>
          <path class="cls-4" d="M167.3,182.92l-14.35-2.19.29-1.93-3.26-.5.65-4.28,3.26.5.27-1.77,14.35,2.19-1.22,7.99ZM155.6,178.79l9.75,1.49.52-3.39-9.75-1.49-.52,3.39Z"/>
        </g>
        <rect class="cls-4" x="211.19" y="193.99" width="1.16" height="38.51"/>
        <g>
          <path d="M95.5,246.67s-.07-.11-.07-.18v-14.15c0-.07.02-.13.07-.18.05-.05.11-.07.18-.07h1.91c.14,0,.24.06.29.19l2.66,5.17c.04.06.08.06.13,0l2.68-5.17c.07-.12.17-.19.29-.19h1.91c.07,0,.13.02.18.07.05.05.07.11.07.18v14.15c0,.07-.02.13-.07.18s-.11.07-.18.07h-1.93c-.07,0-.13-.02-.18-.07s-.07-.11-.07-.18v-9.44c0-.06-.02-.09-.05-.09-.04,0-.06.02-.07.07l-1.99,3.83c-.06.13-.15.19-.29.19h-.69c-.13,0-.22-.06-.29-.19l-1.99-3.85c-.01-.06-.04-.08-.07-.07-.04,0-.05.04-.05.09v9.46c0,.07-.02.13-.07.18-.05.05-.11.07-.18.07h-1.93c-.07,0-.13-.02-.18-.07Z"/>
          <path d="M113.89,236.11s.11-.07.18-.07h1.93c.07,0,.13.02.18.07.05.05.07.11.07.18v10.2c0,.07-.02.13-.07.18-.05.05-.11.07-.18.07h-1.93c-.07,0-.13-.02-.18-.07s-.07-.11-.07-.18v-.57s-.01-.07-.04-.07c-.03,0-.06,0-.08.05-.47.66-1.22.98-2.24.98-.95,0-1.74-.28-2.37-.85-.63-.57-.94-1.39-.94-2.48v-7.27c0-.07.02-.13.07-.18s.11-.07.18-.07h1.93c.07,0,.13.02.18.07.05.05.07.11.07.18v6.66c0,.59.14,1.04.41,1.37.27.33.67.49,1.18.49s.92-.17,1.21-.51c.29-.34.44-.81.44-1.39v-6.62c0-.07.02-.13.07-.18Z"/>
          <path d="M119.21,246.05c-.73-.54-1.09-1.26-1.09-2.14v-.17c0-.07.02-.13.07-.18.05-.05.11-.07.18-.07h1.82c.07,0,.13.01.18.04.05.03.07.06.07.11v.17c0,.33.16.62.47.87.31.24.72.37,1.2.37.46,0,.83-.11,1.11-.33.28-.22.42-.5.42-.84s-.14-.59-.43-.78c-.29-.18-.73-.38-1.33-.59l-.54-.19c-.95-.31-1.71-.69-2.28-1.16s-.86-1.16-.86-2.08c0-.98.35-1.75,1.05-2.31.7-.56,1.63-.85,2.79-.85s2.11.29,2.83.88c.71.59,1.07,1.35,1.07,2.3v.02c0,.07-.02.13-.07.18-.05.05-.11.07-.18.07h-1.76c-.17,0-.25-.06-.25-.17v-.17c0-.35-.15-.64-.45-.87-.3-.23-.69-.35-1.16-.35s-.83.11-1.11.33c-.28.22-.42.49-.42.83,0,.26.1.48.29.66.2.17.42.31.66.41s.67.25,1.29.46c.66.22,1.21.45,1.66.69.45.24.84.57,1.16.98.32.42.48.95.48,1.59,0,.96-.36,1.72-1.08,2.27-.72.55-1.68.83-2.88.83s-2.18-.27-2.91-.82Z"/>
          <path d="M133.07,244.5c.3-.21.53-.49.68-.84.07-.15.17-.21.31-.17l1.55.4c.17.04.23.15.19.31-.25.84-.72,1.5-1.39,1.98s-1.53.72-2.54.72-1.94-.27-2.63-.81-1.13-1.27-1.33-2.19c-.2-.73-.29-1.6-.29-2.62,0-.85.03-1.53.1-2.03.13-1.03.55-1.86,1.28-2.47.73-.61,1.66-.92,2.81-.92,1.27,0,2.25.33,2.93,1,.68.67,1.08,1.61,1.19,2.83.07.8.1,1.56.1,2.28,0,.17-.08.25-.25.25h-5.63c-.07,0-.1.04-.1.1,0,.35.02.66.06.94.07.46.28.83.62,1.12.34.29.76.43,1.27.43.42-.01.78-.13,1.08-.33ZM130.67,238.37c-.29.26-.48.62-.54,1.07-.06.39-.08.71-.08.96,0,.07.03.1.1.1h3.33c.07,0,.1-.04.1-.1-.03-.42-.06-.72-.08-.9-.07-.47-.25-.85-.54-1.12-.29-.27-.68-.41-1.17-.41-.45,0-.82.13-1.11.4Z"/>
          <path d="M139.22,246.03c-.73-.59-1.18-1.39-1.33-2.41-.11-.67-.17-1.42-.17-2.24s.06-1.59.17-2.26c.15-.99.6-1.78,1.33-2.37.73-.59,1.67-.88,2.82-.88s2.02.29,2.74.88c.73.59,1.17,1.37,1.32,2.34.13.67.19,1.42.19,2.26s-.06,1.59-.19,2.26c-.15,1.02-.59,1.82-1.32,2.41-.73.59-1.65.88-2.76.88s-2.06-.29-2.8-.88ZM143.15,244.4c.31-.28.5-.66.59-1.15.07-.47.1-1.1.1-1.86s-.04-1.4-.1-1.84c-.07-.49-.26-.87-.58-1.15s-.7-.42-1.16-.42-.84.14-1.15.42-.5.66-.59,1.15c-.07.6-.1,1.21-.1,1.84s.03,1.24.1,1.86c.08.49.28.87.6,1.15s.7.42,1.16.42.82-.14,1.13-.42Z"/>
          <path d="M152.79,246.67s-.07-.11-.07-.18v-14.15c0-.07.02-.13.07-.18.05-.05.11-.07.18-.07h1.93c.14,0,.24.06.29.19l4.59,9.11c.01.06.04.08.07.07.03,0,.05-.04.05-.09v-9.02c0-.07.02-.13.07-.18.05-.05.11-.07.18-.07h1.91c.07,0,.13.02.18.07.05.05.07.11.07.18v14.15c0,.07-.02.13-.07.18-.05.05-.11.07-.18.07h-1.93c-.13,0-.22-.06-.29-.19l-4.61-9.15c-.01-.06-.04-.08-.07-.07-.03,0-.05.04-.05.09l.02,9.07c0,.07-.02.13-.07.18-.05.05-.11.07-.18.07h-1.91c-.07,0-.13-.02-.18-.07Z"/>
          <path d="M170.72,236.32c.61.3,1.09.72,1.43,1.25s.51,1.14.51,1.82v7.1c0,.07-.02.13-.07.18-.05.05-.11.07-.18.07h-1.93c-.07,0-.13-.02-.18-.07s-.07-.11-.07-.18v-.52s-.01-.07-.04-.07c-.03,0-.06,0-.08.03-.61.66-1.47.98-2.58.98-.92,0-1.7-.25-2.33-.74-.64-.5-.95-1.3-.95-2.42,0-1.17.37-2.04,1.12-2.62.75-.57,1.78-.86,3.11-.86h1.65c.07,0,.1-.04.1-.1v-.52c0-.52-.14-.92-.43-1.23-.29-.3-.69-.45-1.2-.45-.4,0-.74.09-.99.28s-.42.44-.49.76c-.01.15-.1.23-.27.23l-2.05-.12c-.18-.03-.26-.11-.23-.23.1-.89.52-1.62,1.26-2.18.74-.56,1.67-.84,2.78-.84.8,0,1.5.15,2.12.45ZM169.63,244.47c.4-.31.61-.73.61-1.25v-1.09c0-.07-.03-.1-.1-.1h-1.42c-.61,0-1.1.13-1.46.4-.36.27-.53.65-.53,1.15,0,.45.14.79.41,1.02.27.23.63.35,1.08.35.54,0,1.02-.16,1.42-.47Z"/>
          <path d="M175.99,246.04c-.72-.58-1.16-1.37-1.31-2.38-.11-.57-.17-1.34-.17-2.3,0-.88.06-1.64.17-2.28.15-.98.59-1.76,1.32-2.33s1.65-.87,2.76-.87,1.98.28,2.72.83c.74.55,1.19,1.27,1.34,2.17.01.06.03.13.04.21s.02.19.02.31v.04c0,.13-.08.2-.23.23l-1.91.19h-.04c-.13,0-.2-.08-.23-.23,0-.1-.01-.2-.04-.31-.07-.38-.25-.69-.55-.95-.3-.26-.68-.39-1.14-.39s-.84.14-1.14.42c-.3.28-.49.65-.56,1.11-.07.53-.1,1.16-.1,1.88,0,.8.04,1.44.13,1.93.07.46.25.83.54,1.1.29.27.67.41,1.13.41s.86-.14,1.16-.41c.3-.27.48-.6.53-.99l.02-.21c.01-.07.05-.13.11-.18.05-.05.12-.07.19-.05l1.88.17c.17.03.25.12.25.27l-.04.36c-.13.95-.56,1.71-1.3,2.28-.74.57-1.67.86-2.78.86s-2.06-.29-2.77-.87Z"/>
          <path d="M184.99,234.28c-.29-.28-.43-.64-.43-1.09s.14-.81.43-1.09.65-.42,1.1-.42.81.14,1.09.42.42.64.42,1.09-.14.81-.42,1.09-.64.42-1.09.42-.81-.14-1.1-.42ZM184.95,246.67s-.07-.11-.07-.18v-10.2c0-.07.02-.13.07-.18s.11-.07.18-.07h1.93c.07,0,.13.02.18.07s.07.11.07.18v10.2c0,.07-.02.13-.07.18s-.11.07-.18.07h-1.93c-.07,0-.13-.02-.18-.07Z"/>
          <path d="M190.94,246.03c-.73-.59-1.18-1.39-1.33-2.41-.11-.67-.17-1.42-.17-2.24s.06-1.59.17-2.26c.15-.99.6-1.78,1.33-2.37.73-.59,1.67-.88,2.82-.88s2.02.29,2.74.88c.73.59,1.17,1.37,1.32,2.34.13.67.19,1.42.19,2.26s-.06,1.59-.19,2.26c-.15,1.02-.59,1.82-1.32,2.41-.73.59-1.65.88-2.76.88s-2.06-.29-2.79-.88ZM194.86,244.4c.31-.28.5-.66.59-1.15.07-.47.1-1.1.1-1.86s-.04-1.4-.1-1.84c-.07-.49-.26-.87-.58-1.15s-.7-.42-1.16-.42-.84.14-1.15.42c-.31.28-.5.66-.59,1.15-.07.6-.1,1.21-.1,1.84s.04,1.24.1,1.86c.08.49.28.87.6,1.15.31.28.7.42,1.16.42s.82-.14,1.13-.42Z"/>
          <path d="M207.28,236.84c.57.64.86,1.53.86,2.66v6.99c0,.07-.03.13-.07.18-.05.05-.11.07-.18.07h-1.93c-.07,0-.13-.02-.18-.07s-.07-.11-.07-.18v-6.66c0-.57-.14-1.03-.43-1.36s-.68-.5-1.18-.5c-.45,0-.82.14-1.11.42s-.47.66-.52,1.13v6.97c0,.07-.02.13-.07.18s-.11.07-.18.07h-1.93c-.07,0-.13-.02-.18-.07s-.07-.11-.07-.18v-10.2c0-.07.02-.13.07-.18s.11-.07.18-.07h1.93c.07,0,.13.02.18.07s.07.11.07.18v.54s.01.07.04.08c.03.01.06,0,.08-.04.56-.67,1.33-1,2.3-1s1.81.32,2.39.96Z"/>
          <path d="M216.29,236.32c.61.3,1.09.72,1.43,1.25s.51,1.14.51,1.82v7.1c0,.07-.02.13-.07.18-.05.05-.11.07-.18.07h-1.93c-.07,0-.13-.02-.18-.07s-.07-.11-.07-.18v-.52s-.01-.07-.04-.07c-.03,0-.06,0-.08.03-.61.66-1.47.98-2.58.98-.92,0-1.7-.25-2.33-.74-.64-.5-.95-1.3-.95-2.42,0-1.17.37-2.04,1.12-2.62s1.78-.86,3.11-.86h1.65c.07,0,.1-.04.1-.1v-.52c0-.52-.14-.92-.43-1.23-.29-.3-.69-.45-1.2-.45-.41,0-.74.09-.99.28-.26.19-.42.44-.49.76-.01.15-.11.23-.27.23l-2.05-.12c-.18-.03-.26-.11-.23-.23.1-.89.52-1.62,1.26-2.18.74-.56,1.67-.84,2.79-.84.8,0,1.5.15,2.12.45ZM215.2,244.47c.4-.31.61-.73.61-1.25v-1.09c0-.07-.03-.1-.1-.1h-1.42c-.61,0-1.1.13-1.46.4-.36.27-.53.65-.53,1.15,0,.45.14.79.41,1.02.27.23.63.35,1.08.35.54,0,1.02-.16,1.42-.47Z"/>
          <path d="M220.36,246.67s-.07-.11-.07-.18v-14.15c0-.07.02-.13.07-.18.05-.05.11-.07.18-.07h1.93c.07,0,.13.02.18.07.05.05.07.11.07.18v14.15c0,.07-.03.13-.07.18-.05.05-.11.07-.18.07h-1.93c-.07,0-.13-.02-.18-.07Z"/>
          <path d="M234.83,232.16s.11-.07.18-.07h1.93c.07,0,.13.02.18.07.05.05.07.11.07.18v14.15c0,.07-.02.13-.07.18-.05.05-.11.07-.18.07h-1.93c-.07,0-.13-.02-.18-.07-.05-.05-.07-.11-.07-.18v-.54s-.01-.07-.04-.08c-.03-.01-.06,0-.08.04-.53.67-1.29,1.01-2.28,1.01-.88,0-1.58-.27-2.12-.8s-.91-1.33-1.15-2.39c-.15-.64-.23-1.43-.23-2.37s.06-1.69.19-2.3c.43-2.12,1.56-3.18,3.37-3.18,1,0,1.75.32,2.22.96.03.04.06.06.08.04.03-.01.04-.04.04-.08v-4.46c0-.07.02-.13.07-.18ZM234.73,241.38c0-.95-.08-1.67-.23-2.16-.22-.84-.7-1.26-1.42-1.26s-1.25.41-1.53,1.24c-.18.53-.27,1.26-.27,2.18,0,.85.08,1.55.23,2.09.25.89.77,1.34,1.55,1.34.73,0,1.21-.44,1.47-1.32.14-.49.21-1.19.21-2.12Z"/>
          <path d="M244.71,244.5c.3-.21.53-.49.68-.84.07-.15.17-.21.31-.17l1.55.4c.17.04.23.15.19.31-.25.84-.72,1.5-1.39,1.98s-1.53.72-2.54.72-1.94-.27-2.63-.81c-.69-.54-1.13-1.27-1.33-2.19-.2-.73-.29-1.6-.29-2.62,0-.85.04-1.53.11-2.03.12-1.03.55-1.86,1.28-2.47.73-.61,1.66-.92,2.81-.92,1.27,0,2.25.33,2.93,1,.68.67,1.08,1.61,1.19,2.83.07.8.1,1.56.1,2.28,0,.17-.08.25-.25.25h-5.63c-.07,0-.1.04-.1.1,0,.35.02.66.06.94.07.46.28.83.62,1.12.34.29.76.43,1.27.43.42-.01.78-.13,1.08-.33ZM242.31,238.37c-.29.26-.47.62-.54,1.07-.06.39-.08.71-.08.96,0,.07.03.1.1.1h3.33c.07,0,.1-.04.1-.1-.03-.42-.06-.72-.08-.9-.07-.47-.25-.85-.54-1.12-.29-.27-.68-.41-1.17-.41-.45,0-.82.13-1.11.4Z"/>
          <path d="M124.38,269.8l-.52-2.24c-.01-.06-.05-.08-.1-.08h-4.31c-.06,0-.09.03-.1.08l-.54,2.24c-.04.14-.14.21-.29.21h-1.99c-.18,0-.25-.09-.21-.27l3.79-14.17c.04-.14.14-.21.29-.21h2.41c.15,0,.25.07.29.21l3.81,14.17.02.08c0,.13-.08.19-.23.19h-2.01c-.15,0-.25-.07-.29-.21ZM119.87,265.54s.06.03.08.03h3.27s.06,0,.08-.03c.03-.02.03-.05.02-.09l-1.65-6.78s-.03-.06-.06-.06-.05.02-.06.06l-1.7,6.78s0,.07.02.09Z"/>
          <path d="M135.89,260.1c.57.64.86,1.53.86,2.66v6.99c0,.07-.02.13-.07.18s-.11.07-.18.07h-1.93c-.07,0-.13-.02-.18-.07-.05-.05-.07-.11-.07-.18v-6.66c0-.57-.14-1.03-.43-1.36-.29-.33-.68-.5-1.18-.5-.45,0-.82.14-1.11.42s-.47.66-.52,1.13v6.97c0,.07-.02.13-.07.18-.05.05-.11.07-.18.07h-1.93c-.07,0-.13-.02-.18-.07-.05-.05-.07-.11-.07-.18v-10.2c0-.07.02-.13.07-.18.05-.05.11-.07.18-.07h1.93c.07,0,.13.02.18.07.05.05.07.11.07.18v.54s.01.07.04.08c.03.01.06,0,.08-.04.56-.67,1.33-1,2.3-1s1.81.32,2.39.96Z"/>
          <path d="M143.92,261.08s-.11.07-.18.07h-1.7c-.07,0-.1.04-.1.11v5.23c0,.52.1.88.3,1.09.2.21.52.31.95.31h.38c.07,0,.13.03.18.07.05.05.07.11.07.18v1.57c0,.15-.08.24-.25.27h-.88c-1.03,0-1.81-.18-2.32-.54-.52-.36-.77-1.05-.77-2.05v-6.13c0-.07-.04-.11-.1-.11h-.96c-.07,0-.13-.02-.18-.07-.05-.05-.07-.11-.07-.18v-1.34c0-.07.02-.13.07-.18s.11-.07.18-.07h.96c.07,0,.1-.04.1-.11v-2.39c0-.07.02-.13.07-.18.05-.05.11-.07.18-.07h1.84c.07,0,.13.02.18.07.05.05.07.11.07.18v2.39c0,.07.03.11.1.11h1.7c.07,0,.13.02.18.07s.07.11.07.18v1.34c0,.07-.02.13-.07.18Z"/>
          <path d="M151.51,259.43c.11.06.15.16.13.31l-.36,1.91c-.01.17-.11.22-.29.15-.21-.07-.44-.1-.69-.1-.07,0-.2.01-.4.04-.49.06-.89.28-1.2.66s-.47.86-.47,1.43v5.93c0,.07-.02.13-.07.18-.05.05-.11.07-.18.07h-1.93c-.07,0-.13-.02-.18-.07-.05-.05-.07-.11-.07-.18v-10.2c0-.07.02-.13.07-.18.05-.05.11-.07.18-.07h1.93c.07,0,.13.02.18.07.05.05.07.11.07.18v.96c0,.06.01.09.03.09s.05-.01.07-.05c.5-.92,1.22-1.38,2.16-1.38.39,0,.73.08,1.03.25Z"/>
          <path d="M154.12,269.29c-.73-.59-1.18-1.39-1.33-2.41-.11-.67-.17-1.42-.17-2.24s.06-1.59.17-2.26c.15-.99.6-1.78,1.33-2.37.73-.59,1.67-.88,2.82-.88s2.02.29,2.74.88c.73.59,1.17,1.37,1.32,2.34.13.67.19,1.42.19,2.26s-.06,1.59-.19,2.26c-.15,1.02-.59,1.82-1.32,2.41-.73.59-1.65.88-2.76.88s-2.06-.29-2.8-.88ZM158.05,267.66c.31-.28.5-.66.59-1.15.07-.47.1-1.1.1-1.86s-.04-1.4-.1-1.84c-.07-.49-.26-.87-.58-1.15s-.7-.42-1.16-.42-.84.14-1.15.42-.5.66-.59,1.15c-.07.6-.1,1.21-.1,1.84s.03,1.24.1,1.86c.08.49.28.87.6,1.15s.7.42,1.16.42.82-.14,1.13-.42Z"/>
          <path d="M171.66,264.69c0,.92-.06,1.69-.19,2.3-.43,2.12-1.56,3.18-3.37,3.18-.99,0-1.73-.32-2.22-.96-.03-.04-.06-.06-.08-.04-.03.01-.04.04-.04.08v4.46c0,.07-.02.13-.07.18s-.11.07-.18.07h-1.93c-.07,0-.13-.02-.18-.07s-.07-.11-.07-.18v-14.15c0-.07.02-.13.07-.18s.11-.07.18-.07h1.93c.07,0,.13.02.18.07s.07.11.07.18v.54s.01.07.04.08.06,0,.08-.04c.53-.67,1.29-1,2.28-1,.88,0,1.58.27,2.12.8.53.53.91,1.33,1.15,2.39.15.64.23,1.43.23,2.37ZM169.23,264.67c0-.87-.08-1.56-.23-2.09-.25-.89-.77-1.34-1.55-1.34-.73,0-1.21.44-1.47,1.32-.14.49-.21,1.19-.21,2.11s.08,1.67.23,2.16c.22.84.7,1.26,1.42,1.26s1.25-.41,1.53-1.24c.18-.53.27-1.26.27-2.18Z"/>
          <path d="M174.91,269.29c-.73-.59-1.18-1.39-1.33-2.41-.11-.67-.17-1.42-.17-2.24s.06-1.59.17-2.26c.15-.99.6-1.78,1.33-2.37.73-.59,1.67-.88,2.82-.88s2.02.29,2.74.88c.73.59,1.17,1.37,1.32,2.34.13.67.19,1.42.19,2.26s-.06,1.59-.19,2.26c-.15,1.02-.59,1.82-1.32,2.41-.73.59-1.65.88-2.76.88s-2.06-.29-2.79-.88ZM178.84,267.66c.31-.28.5-.66.59-1.15.07-.47.1-1.1.1-1.86s-.04-1.4-.1-1.84c-.07-.49-.26-.87-.58-1.15s-.7-.42-1.16-.42-.84.14-1.15.42c-.31.28-.5.66-.59,1.15-.07.6-.1,1.21-.1,1.84s.04,1.24.1,1.86c.08.49.28.87.6,1.15.31.28.7.42,1.16.42s.82-.14,1.13-.42Z"/>
          <path d="M184.06,269.93s-.07-.11-.07-.18v-14.16c0-.07.02-.13.07-.18s.11-.07.18-.07h1.93c.07,0,.13.02.18.07.05.05.07.11.07.18v14.16c0,.07-.03.13-.07.18-.05.05-.11.07-.18.07h-1.93c-.07,0-.13-.02-.18-.07Z"/>
          <path d="M189.9,269.29c-.73-.59-1.18-1.39-1.33-2.41-.11-.67-.17-1.42-.17-2.24s.06-1.59.17-2.26c.15-.99.6-1.78,1.33-2.37.73-.59,1.67-.88,2.82-.88s2.02.29,2.74.88c.73.59,1.17,1.37,1.32,2.34.13.67.19,1.42.19,2.26s-.06,1.59-.19,2.26c-.15,1.02-.59,1.82-1.32,2.41-.73.59-1.65.88-2.76.88s-2.06-.29-2.79-.88ZM193.83,267.66c.31-.28.5-.66.59-1.15.07-.47.1-1.1.1-1.86s-.04-1.4-.1-1.84c-.07-.49-.26-.87-.58-1.15s-.7-.42-1.16-.42-.84.14-1.15.42c-.31.28-.5.66-.59,1.15-.07.6-.1,1.21-.1,1.84s.04,1.24.1,1.86c.08.49.28.87.6,1.15.31.28.7.42,1.16.42s.82-.14,1.13-.42Z"/>
          <path d="M204.75,259.38s.11-.07.18-.07h1.93c.07,0,.13.02.18.07.05.05.07.11.07.18v9.88c0,1.62-.44,2.82-1.32,3.61-.88.79-2.15,1.18-3.81,1.18-.2,0-.5-.01-.92-.04-.17-.01-.25-.1-.25-.27l.06-1.68c0-.17.09-.24.27-.23.14.01.35.02.63.02,1.05,0,1.79-.22,2.24-.65.45-.43.67-1.13.67-2.09v-.19s-.01-.07-.04-.08c-.03-.01-.06,0-.08.04-.53.61-1.26.92-2.2.92s-1.67-.27-2.3-.81c-.63-.54-1.02-1.3-1.17-2.29-.08-.42-.12-1.17-.12-2.26,0-1.16.05-1.95.17-2.39.14-.95.5-1.7,1.09-2.26s1.34-.84,2.26-.84,1.72.31,2.28.94c.03.03.06.04.08.03.03,0,.04-.03.04-.07v-.48c0-.07.02-.13.07-.18ZM204.67,264.63c0-.8-.03-1.42-.08-1.88-.06-.45-.23-.81-.52-1.09-.29-.28-.66-.42-1.11-.42s-.82.14-1.11.42-.47.64-.54,1.09c-.08.52-.12,1.14-.12,1.88,0,.68.03,1.29.1,1.82.07.45.26.81.57,1.09.31.28.68.42,1.13.42s.83-.14,1.12-.42.46-.64.51-1.09c.04-.53.06-1.14.06-1.82Z"/>
          <path d="M209.15,257.65c-.04-.06-.04-.13.02-.21l1.21-2.16c.07-.11.17-.17.31-.17h1.78c.1,0,.16.03.2.09.04.06.02.14-.03.22l-1.49,2.14c-.07.11-.17.17-.29.17h-1.51c-.1,0-.17-.03-.21-.08ZM209.27,269.93s-.07-.11-.07-.18v-10.2c0-.07.02-.13.07-.18.05-.05.11-.07.18-.07h1.93c.07,0,.13.02.18.07.05.05.07.11.07.18v10.2c0,.07-.02.13-.07.18-.05.05-.11.07-.18.07h-1.93c-.07,0-.13-.02-.18-.07Z"/>
          <path d="M219.83,259.59c.61.3,1.09.72,1.43,1.25s.51,1.14.51,1.82v7.1c0,.07-.02.13-.07.18-.05.05-.11.07-.18.07h-1.93c-.07,0-.13-.02-.18-.07s-.07-.11-.07-.18v-.52s-.01-.07-.04-.07c-.03,0-.06,0-.08.03-.61.66-1.47.98-2.58.98-.92,0-1.7-.25-2.33-.74-.64-.5-.95-1.3-.95-2.42,0-1.17.37-2.04,1.12-2.62s1.78-.86,3.11-.86h1.65c.07,0,.1-.04.1-.11v-.52c0-.52-.14-.92-.43-1.22-.29-.3-.69-.45-1.2-.45-.41,0-.74.09-.99.28-.26.19-.42.44-.49.76-.01.15-.11.23-.27.23l-2.05-.13c-.18-.03-.26-.1-.23-.23.1-.89.52-1.62,1.26-2.18.74-.56,1.67-.84,2.79-.84.8,0,1.5.15,2.12.45ZM218.74,267.73c.4-.31.61-.73.61-1.25v-1.09c0-.07-.03-.1-.1-.1h-1.42c-.61,0-1.1.13-1.46.4-.36.27-.53.65-.53,1.15,0,.45.14.79.41,1.02.27.23.63.35,1.08.35.54,0,1.02-.16,1.42-.47Z"/>
        </g>
        <g>
          <path d="M63.52,79.61c-.45-.43-.67-1.02-.67-1.76,0-.1,0-.25.03-.45l.61-5.02c.1-.86.44-1.55,1.03-2.07.58-.52,1.31-.78,2.17-.78.78,0,1.39.21,1.84.64.45.43.67,1.01.67,1.74,0,.1-.01.25-.03.45v.13s-.03.08-.06.11c-.03.04-.07.05-.12.05l-.48.03c-.1,0-.14-.05-.12-.15v-.21c.03-.16.04-.27.04-.34,0-.53-.17-.95-.5-1.27-.33-.32-.78-.48-1.34-.48-.62,0-1.14.19-1.57.58-.42.38-.68.89-.76,1.52l-.63,5.11c0,.07-.01.18-.01.33,0,.54.16.97.49,1.3.32.32.77.49,1.33.49.63,0,1.16-.19,1.59-.58.43-.38.68-.9.75-1.54l.03-.18c.02-.1.08-.15.17-.15l.48.03s.07.01.1.04.03.06.02.1l-.02.13c-.1.86-.44,1.55-1.03,2.07-.58.52-1.31.78-2.17.78-.78,0-1.39-.22-1.84-.65Z"/>
          <path d="M70.49,80.09s-.03-.06-.02-.1l1.26-10.19s.02-.08.04-.1c.03-.03.07-.04.12-.04h2.74c.74,0,1.32.2,1.73.61.41.4.62.97.62,1.69,0,.21-.01.38-.03.49l-.6,4.91c-.1.86-.42,1.54-.96,2.04-.54.5-1.22.75-2.05.75h-2.74c-.05,0-.09-.02-.11-.04ZM71.33,79.41s.02.02.04.02h2.08c.57,0,1.05-.19,1.44-.58.39-.38.62-.9.69-1.55l.6-4.81c.02-.2.03-.33.03-.4,0-.55-.14-.98-.43-1.28-.29-.3-.69-.46-1.21-.46h-2.08s-.06.02-.06.06l-1.09,8.96s-.01.02,0,.04Z"/>
          <path d="M78.15,80.09s-.03-.06-.02-.1l1.26-10.19s.02-.08.05-.1c.03-.03.07-.04.12-.04h.49c.1,0,.15.04.16.1l1.71,4.61s.01.03.04.03.04,0,.05-.03l2.85-4.61c.03-.07.09-.1.18-.1h.49c.09,0,.14.05.14.15l-1.26,10.19c-.02.1-.07.15-.16.15h-.48c-.1,0-.14-.05-.12-.15l1.03-8.51s0-.04,0-.04-.03.01-.05.03l-2.49,4.03c-.04.07-.1.1-.19.1h-.21c-.1,0-.15-.03-.17-.1l-1.54-4.04s-.02-.03-.04-.03-.03.01-.04.04l-1.03,8.52s-.03.08-.06.1-.06.04-.1.04h-.48s-.09-.02-.11-.04Z"/>
          <path d="M86.32,80.09s0-.08.02-.13l3.22-5.02s.02-.06,0-.09l-1.98-5.02-.02-.06c0-.08.04-.12.13-.12h.54c.08,0,.13.04.16.1l1.65,4.39s.02.03.04.03.04,0,.04-.03l2.73-4.39c.03-.07.09-.1.18-.1h.52s.08.02.1.05c.02.04,0,.08-.02.13l-3.22,5.03s0,.06,0,.09l1.98,5v.06c.01.08-.03.12-.12.12h-.52c-.08,0-.13-.03-.16-.1l-1.63-4.37s-.02-.03-.04-.03-.04.01-.04.03l-2.73,4.37c-.04.07-.1.1-.19.1h-.54s-.08-.02-.1-.05Z"/>
        </g>
        <g>
          <path class="cls-5" d="M92.64,198.15c.31.49.4,1.09.28,1.8-.02.11-.06.27-.11.48-.24.82-.67,1.44-1.27,1.85-.6.41-1.27.55-2.01.43l-2.27-.39s-.06,0-.07.05l-1.36,4.48c-.04.1-.1.14-.19.12l-.47-.08s-.08-.03-.1-.06c-.02-.03-.02-.07,0-.11l2.99-9.85c.04-.09.1-.13.19-.12l2.95.51c.66.11,1.15.42,1.45.91ZM91.12,201.72c.44-.32.76-.79.95-1.4.03-.09.05-.21.08-.37.09-.54.03-.99-.19-1.36-.22-.36-.57-.59-1.05-.67l-2.2-.38s-.04,0-.05,0c-.02,0-.03.02-.03.04l-1.22,4.02s0,.04,0,.05c0,.01.02.02.03.02l2.21.38c.53.09,1.02-.02,1.47-.34Z"/>
          <path class="cls-5" d="M98.4,201.51l.47.08c.1.02.13.07.09.17l-2.11,6.99c-.04.09-.1.13-.19.12l-.47-.08c-.09-.02-.12-.07-.11-.17l.21-.66s.01-.04,0-.05c-.01,0-.03,0-.06.02-.27.27-.58.46-.92.57-.34.11-.71.13-1.11.07-.61-.11-1.05-.39-1.33-.85-.27-.46-.35-1.04-.23-1.73.06-.36.2-.88.41-1.56.23-.78.42-1.35.58-1.69.28-.63.68-1.09,1.18-1.39.51-.3,1.07-.39,1.69-.28.78.14,1.25.55,1.41,1.23.02.02.03.03.05.03.02,0,.03-.02.03-.05l.2-.65c.04-.1.1-.13.19-.12ZM97.15,205.12c.19-.64.31-1.08.35-1.34l.04-.33c.08-.43.02-.81-.17-1.12-.19-.31-.49-.5-.9-.58-.43-.08-.83,0-1.21.2-.37.21-.65.52-.85.93-.17.34-.37.89-.61,1.64-.21.69-.35,1.24-.41,1.65-.07.45,0,.82.21,1.14.2.31.53.51.97.59.43.08.83,0,1.18-.21.35-.22.62-.54.81-.96.16-.36.36-.9.58-1.62Z"/>
          <path class="cls-5" d="M99.53,208.96c-.32-.38-.44-.82-.36-1.31.02-.1.03-.17.05-.22l.04-.13c.04-.09.1-.14.19-.12l.44.08s.08.03.1.06c.02.03.02.06,0,.1l-.04.13c-.11.35-.05.67.18.97.23.3.58.49,1.05.57.46.08.87.02,1.22-.17.35-.2.59-.49.71-.87.08-.27.07-.51-.03-.71-.1-.2-.24-.38-.43-.52-.19-.14-.46-.32-.82-.54-.55-.32-.97-.63-1.26-.95-.29-.31-.38-.72-.3-1.22.12-.68.45-1.18.99-1.51s1.18-.43,1.92-.3c.63.11,1.1.35,1.41.72.31.37.42.82.33,1.33-.02.12-.04.21-.06.26v.04c-.04.09-.11.13-.19.12l-.43-.07c-.09-.02-.13-.06-.11-.13l.03-.1c.11-.37.06-.69-.15-.98-.21-.29-.56-.48-1.03-.56-.49-.09-.92-.02-1.28.2-.36.22-.58.54-.65.96-.06.32.02.59.23.8.21.21.55.46,1.02.76.39.23.7.43.94.61s.43.4.57.67.18.58.12.93c-.12.69-.45,1.2-1,1.54-.55.34-1.2.45-1.96.31-.65-.11-1.14-.36-1.46-.74Z"/>
          <path class="cls-5" d="M108.64,210.03c.35-.16.64-.4.86-.73.05-.07.12-.1.21-.07l.37.14s.06.04.07.08c0,.04,0,.07-.03.11-.3.5-.7.86-1.2,1.08-.5.23-1.05.29-1.64.19-.65-.11-1.13-.39-1.45-.82-.31-.43-.43-.96-.34-1.59.07-.44.22-1.04.45-1.79.21-.71.39-1.26.56-1.65.26-.6.66-1.06,1.21-1.37.55-.31,1.15-.41,1.8-.3.69.12,1.19.41,1.5.88.31.46.42,1.03.3,1.69-.04.24-.16.68-.35,1.34-.03.08-.08.21-.13.39,0,.04-.03.07-.06.1-.04.02-.07.03-.11.03l-4-.69s-.06,0-.07.05c-.17.54-.29.96-.34,1.28-.08.46-.01.86.21,1.18.22.33.57.53,1.04.61.4.07.78.03,1.13-.13ZM108.06,204.22c-.38.23-.66.56-.85,1.01l-.39,1.1s0,.06.03.07l3.32.58s.07,0,.08-.04c.15-.54.25-.92.29-1.14.08-.45,0-.84-.21-1.18-.22-.33-.56-.54-1.02-.62-.46-.08-.88,0-1.26.22Z"/>
          <path class="cls-5" d="M112.48,211.15c-.32-.45-.42-1-.32-1.64.09-.52.23-1.09.43-1.7.18-.63.38-1.19.59-1.68.27-.6.68-1.06,1.23-1.36.55-.3,1.15-.4,1.81-.29s1.15.4,1.47.85c.32.45.43.99.32,1.62-.07.4-.21.98-.44,1.72-.21.71-.41,1.27-.59,1.68-.27.61-.68,1.07-1.23,1.37-.55.3-1.15.39-1.8.28-.67-.12-1.16-.4-1.48-.85ZM115.42,211.09c.39-.23.69-.57.88-1.02.12-.3.29-.82.51-1.54.03-.1.09-.32.2-.68.11-.36.18-.66.23-.9.08-.46,0-.86-.21-1.18-.22-.33-.56-.53-1.01-.61-.45-.08-.88,0-1.27.22-.4.23-.69.56-.88,1.02-.13.33-.3.84-.51,1.54-.03.1-.09.32-.2.68-.11.36-.18.66-.23.9-.08.46-.01.86.21,1.19.22.33.56.53,1.01.61.45.08.88,0,1.27-.22Z"/>
          <path class="cls-5" d="M128.41,203.74l.47.08c.1.02.13.07.09.17l-2.97,9.82c-.04.1-.1.14-.19.12l-.47-.08c-.09-.02-.12-.07-.11-.17l.21-.66s.01-.04,0-.05c-.01,0-.03,0-.06.02-.27.27-.58.46-.92.57-.34.11-.71.13-1.11.07-.61-.11-1.05-.39-1.33-.85-.27-.46-.35-1.04-.23-1.73.06-.36.2-.88.41-1.56.23-.78.42-1.35.58-1.69.28-.63.68-1.09,1.18-1.39.51-.3,1.07-.39,1.69-.28.78.13,1.25.55,1.41,1.23.02.02.03.03.05.03.02,0,.03-.02.03-.05l1.06-3.48c.04-.09.1-.14.19-.12ZM126.3,210.18c.19-.64.31-1.08.35-1.34l.04-.33c.08-.43.02-.81-.17-1.12-.19-.31-.49-.5-.9-.58-.43-.08-.83,0-1.2.2-.37.21-.65.52-.85.93-.17.35-.37.89-.6,1.64-.21.69-.35,1.24-.41,1.65-.07.45,0,.82.21,1.14.2.31.53.51.97.59.43.08.83,0,1.18-.21.35-.22.62-.54.8-.96.16-.36.36-.9.59-1.62Z"/>
          <path class="cls-5" d="M131.77,214.05c.35-.16.64-.4.86-.73.05-.07.12-.09.21-.07l.37.14s.06.04.07.08c0,.04,0,.07-.03.11-.3.5-.7.86-1.2,1.08-.5.23-1.05.29-1.64.19-.65-.11-1.13-.39-1.45-.82s-.43-.96-.34-1.59c.07-.44.22-1.04.45-1.79.21-.71.39-1.26.56-1.65.26-.6.66-1.06,1.21-1.37.55-.31,1.15-.41,1.8-.3.69.12,1.19.41,1.51.88.31.47.42,1.03.3,1.69-.04.24-.16.68-.35,1.34-.04.08-.08.21-.13.39,0,.04-.03.07-.06.09-.03.03-.07.03-.11.03l-4-.69s-.06,0-.07.05c-.17.54-.29.96-.34,1.28-.08.46-.01.86.21,1.19.22.33.57.53,1.04.61.4.07.78.03,1.13-.13ZM131.19,208.24c-.38.23-.66.56-.85,1.01l-.39,1.1s0,.06.03.07l3.32.58s.07,0,.08-.05c.15-.54.25-.92.29-1.14.08-.45,0-.84-.21-1.18-.22-.33-.56-.54-1.02-.62-.46-.08-.88,0-1.26.22Z"/>
          <path class="cls-5" d="M137.69,215.84l2.97-9.82c.04-.09.1-.13.19-.12l.47.08c.09.02.12.07.11.17l-2.98,9.82c-.04.1-.1.14-.19.12l-.47-.08c-.1-.02-.13-.07-.09-.17Z"/>
          <path class="cls-5" d="M146.79,209.91l.47.08c.1.02.13.07.09.17l-2.11,6.99c-.04.09-.1.13-.19.12l-.47-.08c-.09-.01-.12-.07-.11-.17l.21-.66s.01-.04,0-.05c-.01,0-.03,0-.06.02-.27.27-.58.46-.92.57-.34.11-.71.13-1.11.07-.61-.11-1.05-.39-1.33-.85-.27-.46-.35-1.04-.23-1.73.06-.36.2-.88.41-1.56.23-.78.42-1.35.58-1.69.28-.63.68-1.09,1.18-1.39.51-.3,1.07-.39,1.69-.28.78.13,1.25.55,1.41,1.23.02.02.03.03.05.03.02,0,.03-.02.03-.05l.2-.65c.04-.09.1-.13.19-.12ZM145.53,213.52c.19-.64.31-1.08.35-1.34l.04-.33c.08-.43.02-.8-.17-1.12-.19-.31-.49-.5-.9-.57-.43-.08-.83,0-1.21.2-.37.21-.65.52-.85.93-.17.34-.37.89-.6,1.64-.21.69-.35,1.24-.41,1.65-.07.45,0,.82.21,1.14.2.31.53.51.97.59.43.08.83,0,1.18-.21.35-.22.62-.54.8-.96.16-.36.36-.9.59-1.62Z"/>
          <path class="cls-5" d="M155.31,218.93l-.49-4.94s-.02-.05-.05-.05l-2.04-.35s-.06.01-.08.05l-1.37,4.57s-.04.07-.08.09c-.03.02-.07.03-.11.03l-.47-.08s-.08-.03-.1-.06c-.02-.03-.02-.07,0-.11l2.99-9.85c.04-.09.1-.13.19-.12l2.91.5c.66.12,1.15.41,1.46.89s.41,1.07.29,1.77c-.02.11-.06.27-.11.48-.2.68-.53,1.22-1,1.62-.47.4-1.01.62-1.61.65-.04.01-.06.04-.04.07l.53,4.93v.04s-.04.07-.07.09c-.03.02-.07.03-.11.02l-.49-.08c-.08-.01-.12-.06-.11-.14ZM154.1,208.91s-.03.02-.03.04l-1.18,3.93s-.01.02,0,.04c0,.02.02.03.04.03l2.17.38c.38.07.75.02,1.09-.13.35-.15.64-.4.88-.73.24-.33.4-.74.48-1.21.09-.53.03-.97-.19-1.33-.22-.35-.57-.57-1.05-.65l-2.17-.38s-.02,0-.04,0Z"/>
          <path class="cls-5" d="M161.35,219.18c.35-.16.64-.4.86-.73.05-.07.12-.09.21-.07l.37.14s.06.04.07.08c0,.04,0,.07-.03.11-.3.5-.7.86-1.2,1.08-.5.23-1.05.29-1.64.19-.65-.11-1.13-.39-1.45-.82-.31-.43-.43-.96-.34-1.59.07-.44.22-1.04.45-1.79.21-.71.39-1.26.56-1.65.26-.6.66-1.06,1.21-1.37.55-.31,1.15-.41,1.8-.3.69.12,1.19.41,1.51.88.31.46.42,1.03.3,1.69-.04.24-.16.68-.35,1.34-.04.08-.08.21-.13.39,0,.04-.03.07-.06.1-.03.02-.07.03-.11.03l-4-.69s-.06,0-.07.05c-.17.54-.29.96-.34,1.28-.08.46-.01.86.21,1.18.22.33.57.53,1.04.61.4.07.78.03,1.13-.13ZM160.77,213.37c-.38.23-.66.56-.85,1.01l-.39,1.1s0,.06.03.07l3.32.58s.07,0,.08-.05c.15-.54.25-.92.29-1.14.08-.45,0-.84-.21-1.18-.22-.33-.56-.54-1.02-.62-.46-.08-.88,0-1.26.22Z"/>
          <path class="cls-5" d="M168.46,211.77c-.26.24-.48.66-.67,1.25l-.14.45s0,.06.05.07l1.42.25c.1.02.13.07.09.17l-.11.36c-.04.09-.1.13-.19.12l-1.42-.25s-.06,0-.07.05l-1.95,6.43c-.04.09-.1.13-.19.12l-.47-.08c-.1-.02-.13-.07-.09-.17l1.94-6.43s.01-.02,0-.04c0-.02-.02-.03-.04-.03l-.77-.13s-.08-.03-.1-.06c-.02-.03-.02-.07,0-.11l.11-.36c.04-.1.1-.13.19-.12l.78.14s.06,0,.07-.05l.14-.48c.25-.83.59-1.4.99-1.72.4-.32.98-.42,1.71-.29l.28.05c.09.02.12.07.11.17l-.13.39s-.03.07-.06.09c-.04.03-.08.03-.13.02l-.25-.04c-.48-.08-.85,0-1.11.23Z"/>
          <path class="cls-5" d="M169.19,220.99c-.32-.45-.42-1-.32-1.64.09-.52.23-1.09.43-1.7.18-.63.38-1.19.59-1.68.27-.6.67-1.06,1.23-1.36.55-.3,1.15-.4,1.81-.29s1.15.4,1.47.85c.32.45.43.99.32,1.62-.07.4-.21.98-.43,1.72-.21.71-.41,1.27-.6,1.68-.27.61-.68,1.07-1.22,1.37-.55.3-1.15.39-1.8.28-.67-.12-1.16-.4-1.48-.85ZM172.13,220.94c.39-.23.69-.57.88-1.02.12-.3.29-.82.51-1.54.03-.1.09-.32.2-.68.11-.36.18-.66.23-.9.08-.46,0-.86-.21-1.18-.22-.33-.56-.53-1.01-.61-.45-.08-.88,0-1.27.22-.4.23-.69.56-.88,1.02-.13.33-.3.84-.51,1.54-.03.1-.09.32-.2.68-.11.36-.18.66-.22.9-.08.46-.01.86.21,1.19.22.33.56.53,1.01.61.45.08.88,0,1.27-.22Z"/>
          <path class="cls-5" d="M180.57,215.88c.06.04.07.1.01.19l-.28.47c-.07.09-.14.11-.21.05-.13-.09-.28-.15-.45-.19h-.16c-.46-.08-.89.05-1.3.38-.41.33-.7.78-.87,1.34l-1.32,4.36c-.04.1-.1.14-.19.12l-.47-.08c-.1-.02-.13-.07-.09-.17l2.11-6.99c.04-.1.1-.13.19-.12l.47.08c.1.02.13.07.09.17l-.29.97s0,.05.02.05c.02,0,.04,0,.05-.04.27-.34.58-.59.92-.74.34-.16.7-.21,1.07-.14.29.05.53.15.7.29Z"/>
          <path class="cls-5" d="M189.6,217.77c.25.4.32.9.22,1.51-.02.11-.06.27-.11.48l-1.47,4.85c-.04.09-.1.13-.19.12l-.46-.08c-.09-.02-.12-.07-.11-.17l1.45-4.75c.02-.08.05-.19.07-.34.08-.47.03-.86-.16-1.17-.18-.31-.48-.49-.9-.57-.47-.08-.9.01-1.28.28s-.66.68-.82,1.23l-1.45,4.78c-.04.1-.1.14-.19.12l-.46-.08c-.1-.02-.13-.07-.09-.17l1.43-4.75c.02-.08.05-.19.07-.34.08-.47.03-.86-.16-1.17-.18-.31-.48-.49-.88-.56-.48-.08-.91,0-1.29.28-.38.27-.65.68-.81,1.23l-1.45,4.78c-.04.09-.1.13-.19.12l-.46-.08c-.1-.02-.13-.07-.09-.17l2.11-6.99c.04-.1.1-.13.19-.12l.46.08c.1.02.13.07.09.17l-.18.61s0,.05.02.06c.02,0,.04,0,.05-.03.28-.26.59-.43.93-.52.34-.09.7-.11,1.06-.04.42.07.76.24,1.01.5.25.26.39.59.44,1,0,.02,0,.03.02.03.01,0,.04,0,.06-.04.29-.35.64-.6,1.05-.74.4-.14.82-.17,1.25-.09.55.1.95.34,1.2.74Z"/>
          <path class="cls-5" d="M196.52,218.54l.47.08c.1.02.13.07.09.17l-2.11,6.99c-.04.1-.1.14-.19.12l-.47-.08c-.09-.02-.12-.07-.11-.17l.21-.66s.01-.04,0-.05c-.01,0-.03,0-.06.02-.27.27-.58.46-.92.57-.35.11-.71.13-1.11.07-.61-.11-1.05-.39-1.33-.85-.28-.46-.35-1.04-.23-1.73.06-.36.2-.88.41-1.56.23-.78.42-1.35.58-1.69.28-.63.68-1.09,1.18-1.39.51-.3,1.07-.39,1.69-.28.78.13,1.25.55,1.41,1.23.02.02.03.03.05.03.02,0,.03-.02.03-.05l.2-.65c.04-.1.1-.13.19-.12ZM195.26,222.16c.19-.64.31-1.08.35-1.34l.04-.33c.08-.43.02-.81-.17-1.12-.19-.31-.49-.5-.9-.58-.43-.08-.83,0-1.21.2s-.65.52-.85.93c-.17.34-.37.89-.6,1.64-.21.69-.35,1.24-.41,1.65-.07.44,0,.82.21,1.14.2.31.53.51.97.59.43.08.83,0,1.18-.21.35-.22.62-.54.81-.96.16-.36.36-.9.58-1.62Z"/>
        </g>
        <g>
          <path class="cls-5" d="M98.72,163.36c-.57-.25-.99-.72-1.25-1.41-.04-.09-.08-.24-.13-.43l-1.19-4.92c-.21-.84-.13-1.6.23-2.3.36-.69.95-1.19,1.75-1.49.73-.27,1.38-.29,1.95-.04.57.24.99.71,1.24,1.39.03.09.08.24.13.43l.03.13s.01.08,0,.12c-.02.04-.05.07-.09.09l-.44.2c-.09.04-.15,0-.17-.1l-.06-.2c-.04-.16-.07-.27-.09-.33-.19-.5-.49-.83-.92-1.02-.43-.18-.9-.17-1.42.02-.58.22-1,.58-1.26,1.09-.26.51-.32,1.07-.17,1.69l1.21,5c.02.07.05.17.1.31.19.5.49.85.91,1.04.42.19.89.19,1.41,0,.59-.22,1.02-.59,1.28-1.1s.32-1.08.16-1.7l-.04-.18c-.02-.1.02-.17.1-.2l.46-.14s.07-.01.1,0c.03.01.05.04.05.08l.03.13c.21.84.13,1.6-.23,2.3-.37.69-.95,1.19-1.75,1.49-.73.27-1.38.29-1.95.04Z"/>
          <path class="cls-5" d="M107.17,152.7l.45-.17c.09-.04.15,0,.16.1l1.72,7.1c.02.1-.02.17-.1.2l-.45.17c-.08.03-.14,0-.18-.09l-.16-.68s0-.05-.02-.04c-.01,0-.03.02-.04.05-.1.37-.27.69-.5.96-.24.27-.55.48-.92.62-.58.22-1.1.2-1.58-.06-.47-.26-.83-.72-1.08-1.37-.13-.35-.28-.86-.44-1.55-.2-.79-.32-1.37-.35-1.75-.08-.69.03-1.29.32-1.8.29-.51.73-.88,1.31-1.1.74-.28,1.35-.16,1.84.35.03.01.04.01.06,0,.01-.01.01-.03,0-.06l-.15-.66c-.02-.1.02-.17.1-.2ZM107.92,156.45c-.16-.65-.28-1.09-.37-1.33l-.13-.3c-.15-.41-.39-.7-.71-.88-.32-.17-.68-.19-1.07-.04-.41.15-.72.42-.94.78-.21.37-.3.78-.26,1.23.03.38.13.96.31,1.72.17.7.33,1.25.48,1.63.17.42.42.71.75.88.34.17.71.17,1.13.01.41-.15.71-.42.91-.78s.26-.78.21-1.24c-.04-.39-.15-.96-.31-1.69Z"/>
          <path class="cls-5" d="M111.56,158.95l-2.42-9.98c-.02-.1.02-.17.1-.2l.45-.17c.08-.03.14,0,.18.09l2.4,9.98c.02.1-.02.17-.1.2l-.45.17c-.09.04-.15,0-.16-.1Z"/>
          <path class="cls-5" d="M113.79,158.11l-.11-.47s0-.1,0-.21l2.1-7.11s.01-.04,0-.05c-.02-.01-.03-.01-.05,0l-3.34,1.25c-.08.03-.14,0-.18-.09l-.1-.43c-.02-.1.02-.17.1-.2l4.12-1.55c.09-.04.15,0,.16.1l.11.47s0,.1,0,.21l-2.14,7.13s0,.03.02.04c.02.01.03.02.05.01l3.39-1.27c.08-.03.14,0,.18.09l.1.43c.02.1-.02.17-.1.2l-4.15,1.56c-.09.04-.15,0-.17-.1Z"/>
          <path class="cls-5" d="M119.8,155.75c-.16-.08-.27-.21-.34-.39-.08-.22-.08-.45.02-.68.1-.23.25-.38.44-.46.17-.06.33-.05.5.03.16.08.28.21.35.39.08.23.08.45-.02.67-.1.22-.25.37-.45.45-.18.07-.35.06-.5-.02Z"/>
          <path class="cls-5" d="M125.9,153.68s-.05-.05-.06-.09l-2.4-9.98s-.01-.07,0-.11c.02-.04.05-.07.1-.08l.46-.17c.09-.03.16-.02.19.04l3.22,3.72s.02.02.05.01c.02,0,.04-.02.04-.05l1.04-5.32c0-.07.05-.13.13-.16l.46-.17c.08-.03.14,0,.18.09l2.4,9.98c.02.1-.02.17-.1.2l-.45.17c-.09.04-.15,0-.16-.1l-2.02-8.33s0-.04-.02-.04c-.01,0-.03.02-.04.05l-.91,4.65c-.01.08-.06.14-.14.17l-.2.07c-.09.04-.16.02-.19-.04l-2.87-3.24s-.03-.02-.05-.02c-.01,0-.02.02-.02.06l2.03,8.35s0,.08-.02.12c-.02.04-.05.06-.08.08l-.45.17s-.09.02-.12,0Z"/>
          <path class="cls-5" d="M136.07,141.84l.45-.17c.09-.04.15,0,.17.1l1.72,7.1c.02.1-.02.17-.1.2l-.45.17c-.08.03-.14,0-.18-.09l-.16-.68s0-.05-.02-.04c-.01,0-.03.02-.04.05-.1.37-.27.69-.5.96-.24.27-.55.48-.92.62-.58.22-1.1.2-1.58-.06-.47-.26-.83-.72-1.08-1.37-.13-.35-.28-.86-.44-1.55-.2-.79-.32-1.37-.35-1.75-.08-.69.03-1.29.32-1.8s.73-.88,1.31-1.1c.74-.28,1.35-.16,1.84.35.03.01.04.01.06,0,.01-.01.01-.03,0-.06l-.15-.66c-.02-.1.02-.17.1-.2ZM136.82,145.59c-.16-.65-.28-1.09-.37-1.33l-.13-.3c-.15-.41-.39-.7-.71-.88-.32-.17-.68-.19-1.07-.04-.41.15-.72.42-.94.78-.21.37-.3.78-.26,1.23.03.38.13.96.31,1.72.17.7.33,1.25.48,1.63.17.42.42.71.75.88.33.17.71.17,1.13.01.41-.15.71-.42.91-.78.19-.37.26-.78.21-1.24-.04-.39-.14-.96-.31-1.69Z"/>
          <path class="cls-5" d="M142.69,139.82c.43.22.76.61.98,1.19.04.09.08.24.13.43l1.2,4.96c.02.1-.02.17-.1.2l-.45.17s-.09.02-.12,0-.05-.05-.06-.09l-1.16-4.85c-.02-.08-.05-.18-.1-.31-.16-.44-.41-.74-.74-.91-.33-.17-.7-.18-1.1-.03-.43.16-.75.43-.96.82-.21.39-.27.83-.21,1.33l1.22,5.09c.02.1-.02.17-.1.2l-.45.17c-.09.03-.15,0-.17-.1l-2.42-9.98c-.02-.1.02-.17.1-.2l.45-.17c.09-.04.15,0,.16.1l.85,3.5c.02.06.04.06.07,0,.11-.37.29-.69.54-.95.25-.26.56-.46.93-.6.56-.21,1.06-.21,1.49,0Z"/>
          <path class="cls-5" d="M149.08,136.96l.45-.17c.09-.04.15,0,.16.1l1.72,7.1c.02.1-.02.17-.1.2l-.45.17c-.08.03-.14,0-.18-.09l-.16-.68s0-.05-.02-.04-.03.02-.04.05c-.1.37-.27.69-.5.96-.24.27-.55.48-.92.62-.58.22-1.1.2-1.58-.06-.47-.26-.83-.72-1.08-1.37-.13-.35-.28-.86-.44-1.55-.2-.79-.32-1.37-.35-1.75-.08-.69.03-1.29.32-1.8.29-.51.73-.88,1.32-1.1.74-.28,1.35-.16,1.84.35.03.01.04.01.06,0,.01-.01.01-.03,0-.06l-.15-.66c-.02-.1.02-.17.1-.2ZM149.83,140.71c-.16-.65-.28-1.09-.37-1.33l-.13-.3c-.15-.41-.39-.7-.71-.88-.32-.17-.68-.19-1.07-.04-.41.15-.72.42-.94.78-.21.37-.3.78-.26,1.23.03.38.13.96.31,1.72.17.7.33,1.25.48,1.63.17.42.42.71.75.88.33.17.71.17,1.13.01.41-.15.71-.42.91-.78s.26-.78.21-1.24c-.04-.39-.15-.96-.31-1.69Z"/>
          <path class="cls-5" d="M154.41,135.6s-.05.06-.08.08l-1.35.51s-.03.02-.04.03c-.01.01-.01.03,0,.05l1.13,4.68c.04.18.08.3.11.38.13.34.3.54.51.62s.49.04.84-.1l.24-.09c.09-.04.15,0,.17.1l.1.39c.02.1-.02.17-.1.21l-.35.13c-.5.19-.92.24-1.26.15-.33-.09-.59-.38-.78-.88-.03-.08-.08-.23-.13-.45l-1.18-4.89s-.04-.05-.08-.03l-.69.26c-.08.03-.14,0-.18-.09l-.08-.34c-.02-.1.02-.17.1-.2l.7-.26s.05-.04.04-.08l-.4-1.66c-.02-.1.02-.17.1-.2l.43-.16c.09-.03.15,0,.16.1l.4,1.66s.04.05.08.03l1.35-.51c.09-.04.15,0,.17.1l.09.33s0,.08-.02.12Z"/>
          <path class="cls-5" d="M163.42,132.02c.42.22.74.62.95,1.2.04.1.09.26.15.47l1.19,4.93c.02.1-.02.17-.1.2l-.44.16c-.08.03-.14,0-.18-.09l-1.16-4.83c-.02-.08-.05-.19-.11-.33-.17-.45-.41-.76-.72-.93-.31-.17-.67-.18-1.06-.03-.45.17-.77.46-.96.89-.19.42-.22.92-.09,1.47l1.17,4.86c.02.1-.02.17-.1.2l-.44.16c-.09.04-.15,0-.16-.1l-1.17-4.83c-.02-.08-.05-.19-.11-.33-.17-.45-.41-.76-.72-.93-.31-.17-.66-.18-1.05-.04-.46.17-.78.47-.97.89-.19.42-.21.91-.08,1.47l1.17,4.86c.02.1-.02.17-.1.2l-.44.16c-.09.04-.15,0-.16-.1l-1.72-7.1c-.02-.1.02-.17.1-.2l.43-.16c.09-.04.15,0,.16.1l.15.62s.03.04.05.04c.02,0,.03-.02.03-.05.11-.36.29-.67.54-.92.25-.25.55-.45.9-.58.4-.15.78-.18,1.12-.08.35.1.64.31.88.64,0,.02.02.02.03.02s.02-.02.03-.06c.07-.45.25-.84.53-1.17s.62-.56,1.04-.72c.52-.2.99-.19,1.41.03Z"/>
          <path class="cls-5" d="M169.78,129.19l.45-.17c.09-.03.15,0,.16.1l1.72,7.1c.02.1-.02.17-.1.2l-.45.17c-.08.03-.14,0-.18-.09l-.16-.68s0-.05-.02-.04c-.01,0-.03.02-.04.05-.1.37-.27.69-.5.96-.24.27-.55.48-.92.62-.58.22-1.1.2-1.58-.06-.47-.26-.83-.72-1.08-1.37-.13-.35-.28-.86-.44-1.55-.2-.79-.32-1.37-.35-1.75-.08-.69.03-1.29.32-1.8.29-.51.73-.88,1.32-1.1.74-.28,1.35-.16,1.84.35.03.01.04.01.06,0,.01-.01.01-.03,0-.06l-.15-.66c-.02-.1.02-.17.1-.2ZM170.53,132.94c-.16-.65-.28-1.09-.37-1.33l-.13-.3c-.15-.41-.39-.7-.71-.88-.32-.17-.68-.19-1.07-.04-.41.15-.72.42-.94.78-.21.37-.3.78-.26,1.23.03.38.13.96.31,1.72.17.7.33,1.25.48,1.63.17.42.42.71.75.88.33.17.71.17,1.13.01.41-.15.71-.41.91-.78s.26-.78.21-1.24c-.04-.39-.14-.96-.31-1.69Z"/>
          <path class="cls-5" d="M177.6,133.76c-.57-.24-.99-.71-1.24-1.39-.03-.08-.07-.22-.12-.42l-1.22-4.99c-.2-.83-.12-1.59.24-2.28.37-.69.95-1.18,1.76-1.48.72-.27,1.37-.28,1.94-.04.58.24.99.7,1.24,1.36.03.08.07.21.12.4l.1.43s.01.08,0,.11c-.02.04-.04.07-.08.08l-.45.17s-.09.02-.12,0c-.03-.02-.05-.05-.06-.09l-.1-.43c-.02-.07-.05-.17-.1-.3-.19-.5-.49-.83-.91-1.02-.42-.18-.89-.18-1.42.02-.58.22-1,.58-1.26,1.09-.26.51-.32,1.07-.18,1.68l1.22,5.05c.01.07.05.17.1.3.19.51.49.85.91,1.04.42.19.89.18,1.42-.02.58-.22,1-.57,1.26-1.07.26-.49.32-1.04.18-1.65l-.43-1.79s-.04-.05-.08-.04l-1.7.64c-.09.04-.15,0-.17-.1l-.09-.38c-.02-.1.02-.17.1-.2l2.34-.88c.09-.04.15,0,.17.1l.55,2.27c.21.85.13,1.62-.23,2.3-.37.69-.95,1.18-1.74,1.48-.73.27-1.38.29-1.95.04Z"/>
          <path class="cls-5" d="M186.03,123.09l.45-.17c.09-.04.15,0,.16.1l1.72,7.1c.02.1-.02.17-.1.2l-.45.17c-.08.03-.14,0-.18-.09l-.16-.68s0-.05-.02-.04c-.01,0-.03.02-.04.05-.1.37-.27.69-.51.96-.24.27-.55.48-.92.62-.58.22-1.11.2-1.58-.06-.47-.26-.83-.72-1.08-1.37-.13-.35-.28-.86-.44-1.55-.2-.79-.32-1.37-.35-1.75-.08-.69.03-1.29.32-1.8.29-.51.73-.88,1.31-1.1.74-.28,1.35-.16,1.84.35.03.01.04.01.06,0,.01-.01.01-.03,0-.06l-.15-.66c-.02-.1.02-.17.1-.2ZM186.78,126.84c-.16-.65-.28-1.09-.37-1.33l-.13-.3c-.15-.41-.39-.7-.71-.88-.32-.17-.68-.19-1.07-.04-.41.15-.72.42-.94.78-.21.37-.3.78-.26,1.23.03.38.13.96.31,1.72.17.7.33,1.25.48,1.63.17.42.42.71.75.88.33.17.71.17,1.13.01.41-.15.71-.42.91-.78s.26-.78.21-1.24c-.04-.39-.14-.96-.31-1.69Z"/>
          <path class="cls-5" d="M192.65,121.06c.43.22.76.61.98,1.19.04.09.08.24.13.43l1.21,4.96c.02.1-.02.17-.1.2l-.45.17s-.09.02-.12,0c-.04-.02-.05-.05-.06-.09l-1.16-4.85c-.02-.08-.05-.18-.1-.31-.17-.44-.41-.74-.74-.91-.33-.17-.7-.18-1.1-.03-.43.16-.75.43-.96.82-.21.39-.28.83-.21,1.33l1.22,5.09c.02.1-.02.17-.1.2l-.45.17c-.09.04-.15,0-.17-.1l-1.72-7.1c-.02-.1.02-.17.1-.2l.45-.17c.09-.03.15,0,.16.1l.16.63c.02.06.04.06.07,0,.11-.37.29-.69.54-.95.25-.26.56-.46.93-.6.56-.21,1.06-.21,1.49,0Z"/>
          <path class="cls-5" d="M198.34,115.33l.45-.17c.09-.04.15,0,.16.1l2.42,9.98c.02.1-.02.17-.1.2l-.45.17c-.08.03-.14,0-.18-.09l-.16-.68s0-.05-.02-.04-.03.02-.04.05c-.1.37-.27.69-.51.96-.24.27-.55.48-.92.62-.58.22-1.11.2-1.58-.06-.47-.26-.83-.72-1.08-1.37-.13-.35-.28-.86-.44-1.55-.2-.79-.32-1.37-.35-1.75-.08-.69.03-1.29.32-1.8.29-.51.73-.88,1.31-1.1.74-.28,1.35-.16,1.84.35.03.01.05.01.06,0,.01-.01.01-.03,0-.06l-.85-3.54c-.02-.1.02-.17.1-.2ZM199.79,121.96c-.16-.65-.28-1.09-.37-1.33l-.13-.3c-.15-.41-.39-.7-.71-.88-.32-.17-.68-.19-1.07-.04-.41.15-.72.42-.94.78-.21.37-.3.78-.26,1.23.03.38.13.96.31,1.72.17.7.33,1.25.48,1.63.17.42.42.71.75.88.33.17.71.17,1.13.01.41-.15.71-.42.91-.78.19-.37.26-.78.21-1.24-.04-.39-.14-.96-.31-1.69Z"/>
          <path class="cls-5" d="M205.65,116.18c.43.22.76.61.98,1.19.04.09.08.24.13.43l1.21,4.96c.02.1-.02.17-.1.2l-.45.17s-.09.02-.12,0c-.03-.02-.05-.05-.06-.09l-1.16-4.85c-.02-.08-.05-.18-.1-.31-.17-.44-.41-.74-.74-.91-.33-.17-.7-.18-1.1-.03-.43.16-.75.44-.96.82s-.28.83-.21,1.33l1.22,5.09c.02.1-.02.17-.1.2l-.45.17c-.09.04-.15,0-.17-.1l-2.42-9.98c-.02-.1.02-.17.1-.2l.45-.17c.09-.03.15,0,.17.1l.85,3.51c.02.06.04.06.07,0,.11-.37.29-.69.54-.95.25-.26.56-.46.93-.6.56-.21,1.06-.21,1.49,0Z"/>
          <path class="cls-5" d="M207.88,113.1c-.13-.06-.23-.17-.29-.33-.07-.2-.07-.38.01-.56.08-.18.22-.3.4-.37.16-.06.3-.06.42,0,.12.06.21.17.27.31.08.21.08.4.01.58-.07.18-.2.31-.39.38-.16.06-.31.06-.44,0ZM210.05,121.98l-1.71-7.11c-.02-.1.02-.17.1-.2l.45-.17c.09-.04.15,0,.17.1l1.72,7.1c.02.1-.02.17-.1.2l-.45.17c-.08.03-.14,0-.18-.09Z"/>
        </g>
        <g>
          <g>
            <path class="cls-5" d="M230.4,95.84h.52s.07.02.1.04c.03.03.03.06.02.1l-1.26,10.19s-.02.08-.05.1c-.03.03-.06.04-.1.04h-.48s-.09-.02-.11-.04-.03-.06-.02-.1l1.15-9.41s0-.03,0-.04c-.02,0-.03,0-.05,0l-1.53.7s-.04.02-.08.02-.05,0-.07-.03c-.02-.02-.03-.05-.02-.09l.04-.34c.01-.07.05-.13.12-.18l1.62-.91s.12-.04.2-.04Z"/>
            <path class="cls-5" d="M232.72,105.85c-.42-.42-.63-.99-.63-1.71,0-.09,0-.23.03-.43l.64-5.24c.11-.83.44-1.5.98-2,.54-.5,1.22-.76,2.02-.76.73,0,1.31.21,1.74.62.43.41.64.98.64,1.69,0,.1,0,.25-.03.45l-.64,5.24c-.1.84-.43,1.51-.98,2.01-.55.5-1.24.76-2.04.76-.73,0-1.3-.21-1.72-.63ZM235.99,105.21c.39-.36.63-.85.7-1.45l.66-5.36c0-.08.01-.19.01-.33,0-.51-.15-.91-.45-1.21-.3-.3-.71-.45-1.23-.45-.57,0-1.05.18-1.45.55-.4.36-.63.85-.7,1.45l-.66,5.36c0,.08-.01.19-.01.33,0,.51.15.91.44,1.21.29.3.7.45,1.22.45.58,0,1.07-.18,1.46-.55Z"/>
            <path class="cls-5" d="M239.74,105.85c-.42-.42-.63-.99-.63-1.71,0-.09,0-.23.03-.43l.64-5.24c.11-.83.44-1.5.98-2,.54-.5,1.22-.76,2.02-.76.73,0,1.31.21,1.74.62.43.41.64.98.64,1.69,0,.1,0,.25-.03.45l-.64,5.24c-.1.84-.43,1.51-.98,2.01-.55.5-1.24.76-2.04.76-.73,0-1.3-.21-1.72-.63ZM243.02,105.21c.39-.36.63-.85.7-1.45l.66-5.36c0-.08.01-.19.01-.33,0-.51-.15-.91-.45-1.21-.3-.3-.71-.45-1.23-.45-.57,0-1.05.18-1.45.55-.4.36-.63.85-.7,1.45l-.66,5.36c0,.08-.01.19-.01.33,0,.51.15.91.44,1.21.29.3.7.45,1.22.45.58,0,1.07-.18,1.46-.55Z"/>
            <path class="cls-5" d="M257.76,99.19c.31.35.47.83.47,1.45,0,.11,0,.27-.03.49l-.61,5.03c-.02.1-.08.15-.17.15h-.46c-.09,0-.13-.05-.13-.15l.61-4.93c0-.08.02-.19.02-.34,0-.48-.12-.85-.35-1.12-.23-.27-.56-.4-.98-.4-.48,0-.88.17-1.21.49-.33.33-.53.78-.6,1.35l-.61,4.96c-.02.1-.08.15-.17.15h-.46c-.1,0-.14-.05-.12-.15l.6-4.93c0-.08.01-.19.01-.34,0-.48-.12-.85-.35-1.12-.23-.27-.56-.4-.97-.4-.49,0-.9.17-1.22.49-.33.33-.52.78-.59,1.35l-.61,4.96c-.02.1-.08.15-.17.15h-.46c-.1,0-.14-.05-.12-.15l.88-7.25c.02-.1.07-.15.16-.15h.46c.1,0,.14.05.12.15l-.08.63s0,.05.03.05c.02,0,.03,0,.04-.04.23-.3.51-.52.83-.67s.67-.22,1.04-.22c.43,0,.79.11,1.08.32.29.21.49.52.6.91,0,.02,0,.03.02.03.01,0,.03-.01.05-.04.23-.4.53-.7.91-.91.38-.2.78-.31,1.22-.31.56,0,1,.17,1.31.52Z"/>
          </g>
          <path class="cls-5" d="M70.69,148.07c-5.8,0-10.52-4.72-10.52-10.52s4.72-10.52,10.52-10.52,10.52,4.72,10.52,10.52-4.72,10.52-10.52,10.52ZM70.69,128.19c-5.16,0-9.36,4.2-9.36,9.36s4.2,9.36,9.36,9.36,9.36-4.2,9.36-9.36-4.2-9.36-9.36-9.36Z"/>
          <rect class="cls-5" x="69.52" y="124.35" width="2.33" height="6.2"/>
          <path class="cls-5" d="M67.62,143.09v-9.49c0-.09.05-.14.14-.14h1.05c.08,0,.14.03.17.1l3.41,6.57s.03.03.05.03.02-.01.02-.04v-6.52c0-.09.05-.14.14-.14h1.05c.09,0,.14.05.14.14v9.49c0,.09-.05.14-.14.14h-1.06c-.08,0-.14-.03-.17-.1l-3.39-6.6s-.03-.03-.05-.03-.02.01-.02.04v6.55c.01.09-.03.14-.13.14h-1.06c-.09,0-.14-.05-.14-.14Z"/>
          <rect class="cls-5" x="227.94" y="89.17" width="30" height="2.33"/>
        </g>
        <g>
          <path class="cls-5" d="M134.01,96.62s.07.05.09.09l.2.43s.02.07,0,.11c-.02.04-.05.06-.09.06l-9.77,3.15s-.08,0-.12,0c-.04-.02-.07-.04-.08-.08l-.2-.43s-.02-.09,0-.12c.02-.04.04-.06.08-.07l4.5-1.44s.05-.04.03-.08l-1.65-3.56s-.04-.04-.08-.03l-4.49,1.45s-.08,0-.12-.01c-.04-.01-.07-.04-.08-.08l-.2-.44s-.02-.09,0-.12c.02-.04.05-.06.09-.06l9.77-3.14s.07-.02.11,0c.04.01.07.04.09.09l.2.44s.02.07,0,.11c-.02.04-.05.06-.09.06l-4.48,1.45s-.02,0-.03.02-.01.03,0,.05l1.65,3.56s.04.05.08.03l4.49-1.43s.07-.02.11,0Z"/>
          <path class="cls-5" d="M127.62,105.51c.33.2.69.3,1.08.29.09,0,.15.05.18.13l.1.39s0,.07-.03.1c-.03.03-.06.04-.11.04-.58.04-1.1-.09-1.57-.37-.47-.28-.83-.7-1.09-1.24-.28-.6-.33-1.15-.15-1.66.18-.51.55-.9,1.11-1.18.4-.2.98-.42,1.73-.65.7-.24,1.26-.4,1.68-.48.64-.13,1.25-.06,1.82.21.57.28.99.71,1.27,1.31.29.63.34,1.21.14,1.74-.2.52-.61.93-1.22,1.21-.22.1-.65.26-1.3.47-.09.02-.22.06-.39.12-.04.02-.07.02-.11,0-.04-.01-.07-.04-.09-.08l-1.71-3.68s-.04-.05-.08-.03c-.54.16-.96.31-1.25.45-.43.2-.71.48-.85.85-.14.37-.11.77.09,1.21.17.37.42.66.75.86ZM132.06,101.73c-.4-.18-.84-.22-1.31-.13l-1.13.31s-.05.04-.04.07l1.42,3.06s.05.05.09.04c.53-.18.9-.32,1.1-.41.42-.19.7-.47.85-.84.15-.37.13-.76-.07-1.19-.2-.42-.5-.73-.9-.91Z"/>
          <path class="cls-5" d="M137.12,110.22l.2.44c.04.09.01.15-.08.17l-6.96,2.25c-2.09.67-3.56-.02-4.4-2.06-.04-.08-.01-.14.08-.18l.43-.11c.1-.02.17,0,.21.08.35.82.8,1.35,1.35,1.59s1.24.23,2.04-.02l.63-.21s.04-.03.04-.04c0-.01-.02-.02-.05-.02-.36-.08-.67-.23-.95-.45-.28-.22-.5-.51-.66-.85-.26-.55-.29-1.08-.1-1.57.19-.49.58-.88,1.16-1.17.39-.18.94-.38,1.64-.59.76-.25,1.34-.41,1.74-.48.63-.13,1.22-.07,1.77.18.54.25.95.65,1.21,1.22.16.35.23.69.2,1.01-.03.32-.14.61-.34.87-.02.02-.03.04-.02.05.01.01.03.02.06.01l.6-.2c.1-.02.17,0,.21.09ZM133.44,111.25c.6-.19,1.11-.37,1.52-.52.42-.18.72-.44.88-.8.17-.36.15-.74-.04-1.16-.19-.41-.49-.7-.91-.89-.42-.19-.86-.24-1.33-.15-.67.18-1.18.32-1.55.44-.72.23-1.23.42-1.53.56-.42.19-.7.47-.84.84-.14.37-.12.76.08,1.18.19.41.49.7.89.87.41.18.84.21,1.29.1.31-.08.81-.23,1.52-.46Z"/>
          <path class="cls-5" d="M133.31,117.82c.33.2.69.3,1.08.29.09,0,.15.05.18.13l.1.39s0,.08-.03.1c-.03.03-.06.04-.11.04-.58.04-1.1-.09-1.57-.37-.47-.28-.83-.7-1.09-1.24-.28-.6-.33-1.15-.15-1.66.18-.51.55-.9,1.11-1.18.4-.2.98-.42,1.73-.65.7-.24,1.26-.4,1.68-.48.64-.13,1.25-.06,1.82.21.57.28.99.71,1.27,1.31.29.63.34,1.21.14,1.74-.2.52-.61.93-1.21,1.21-.22.1-.65.26-1.3.47-.09.02-.22.06-.39.12-.04.02-.08.02-.11,0-.04-.01-.07-.04-.09-.08l-1.71-3.68s-.04-.05-.08-.03c-.54.16-.96.31-1.25.45-.43.2-.71.48-.85.85-.14.37-.11.77.09,1.21.17.37.42.66.75.86ZM137.76,114.03c-.4-.18-.84-.22-1.31-.13l-1.13.31s-.05.04-.04.07l1.42,3.06s.05.05.09.04c.53-.18.9-.32,1.1-.41.42-.19.7-.47.85-.84.15-.37.13-.76-.07-1.19s-.5-.73-.9-.91Z"/>
          <path class="cls-5" d="M133.99,121.07l9.77-3.15c.1-.02.17,0,.21.09l.2.43c.04.08.01.14-.08.19l-9.77,3.14c-.1.02-.17,0-.21-.09l-.2-.44c-.04-.09-.01-.15.09-.17Z"/>
        </g>
        <g>
          <path class="cls-5" d="M246.34,197.52s-.06.04-.1.04l-1.99.16s-.05.02-.05.06l-.23,3.66s.01.07.04.08l1.93.87c.09.05.13.11.12.19l-.03.49c0,.12-.06.15-.17.09l-9.94-4.61s-.07-.03-.09-.07c-.02-.03-.03-.07-.02-.11l.04-.61c0-.1.05-.15.13-.14l10.27-.85h.03s.07.02.09.05c.02.03.03.07.03.11l-.03.48s-.02.07-.04.1ZM243.31,201.17s.02-.02.03-.04l.2-3.29s0-.03-.02-.05c-.01-.02-.03-.03-.04-.02l-6.45.49s-.03.02-.03.03c0,0,0,.02.03.03l6.25,2.85s.02.01.04,0Z"/>
          <path class="cls-5" d="M246.54,193.98l-7.35.56h-.03c-.09-.01-.13-.06-.12-.16l.05-.54c0-.08.05-.13.13-.14l6.25-.37s.03,0,.03-.03c0-.02,0-.04-.03-.05l-5.93-3c-.09-.05-.12-.11-.12-.18l.06-.54s.02-.09.05-.11.07-.02.12,0l6.95,3.65c.08.04.11.1.1.18l-.05.57c0,.08-.05.13-.13.15Z"/>
          <path class="cls-5" d="M246.82,189.76c-.14.1-.31.15-.5.13-.24-.03-.44-.14-.6-.33-.16-.19-.23-.39-.21-.6.02-.18.1-.32.25-.43s.32-.15.5-.13c.24.03.43.13.59.32.16.19.22.39.2.61-.02.19-.1.34-.24.44Z"/>
          <path class="cls-5" d="M247.4,182.76c-.49.38-1.1.52-1.82.41-.09-.01-.23-.04-.43-.09l-4.94-1.37c-.83-.23-1.45-.67-1.87-1.32-.42-.65-.57-1.41-.44-2.26.11-.76.42-1.33.91-1.72.49-.39,1.09-.52,1.79-.42.08.01.22.04.41.09l.42.12s.07.03.1.06c.03.03.04.07.03.11l-.07.47s-.03.08-.06.1c-.03.02-.07.02-.11,0l-.42-.12c-.07-.02-.17-.04-.31-.06-.52-.08-.97.02-1.33.3-.37.28-.59.69-.67,1.25-.09.61.02,1.16.34,1.63.32.48.78.8,1.38.97l5,1.39c.07.02.17.04.31.06.53.08.98-.02,1.35-.29.36-.27.59-.69.67-1.25.09-.61-.01-1.15-.32-1.62-.3-.47-.75-.79-1.35-.96l-1.77-.5s-.06.01-.07.05l-.27,1.79c-.02.1-.07.13-.17.1l-.38-.1c-.1-.03-.14-.1-.12-.19l.37-2.47c.01-.1.07-.13.17-.1l2.25.63c.84.23,1.48.67,1.9,1.32.42.65.57,1.4.44,2.24-.12.77-.42,1.35-.91,1.73Z"/>
          <path class="cls-5" d="M242.38,170.85c.04-.06.1-.07.18-.01l.47.28c.09.07.11.14.05.21-.09.12-.16.28-.19.45l-.02.16c-.07.45.05.89.38,1.3.33.42.77.71,1.33.88l4.35,1.36c.09.04.13.1.12.19l-.09.47c-.02.1-.08.13-.17.09l-6.97-2.18c-.09-.04-.13-.1-.12-.19l.09-.47c.02-.1.07-.13.17-.09l.97.3s.05,0,.05-.02c0-.02,0-.04-.04-.05-.33-.27-.58-.58-.74-.93s-.2-.7-.13-1.08c.05-.29.15-.52.29-.69Z"/>
          <path class="cls-5" d="M243.48,165.28l.1-.47c.02-.1.08-.13.17-.08l6.89,2.41c.09.04.13.11.11.19l-.1.47c-.02.09-.08.12-.17.1l-.61-.23s-.05,0-.05.01,0,.03.02.06c.5.55.67,1.23.49,2.02-.13.58-.39,1-.78,1.27-.4.27-.89.34-1.49.21-.09-.02-.23-.06-.42-.12l-4.92-1.72c-.09-.04-.13-.1-.11-.19l.1-.47c.02-.09.08-.12.17-.1l4.73,1.66c.17.06.29.09.36.11.45.1.82.06,1.12-.13s.5-.49.59-.92c.11-.49.03-.94-.23-1.35-.26-.41-.66-.72-1.21-.91l-4.67-1.64c-.09-.04-.13-.1-.11-.19Z"/>
          <path class="cls-5" d="M245.44,159.97s.03.07.02.11l-.36,1.39s0,.04,0,.05c0,.02.02.03.04.03l4.48,1.76c.17.06.29.11.37.13.35.09.62.07.8-.07.18-.13.32-.38.4-.74l.06-.25c.03-.1.08-.12.17-.08l.38.14c.09.04.13.11.12.2l-.09.36c-.13.52-.33.89-.6,1.12-.26.22-.65.27-1.16.13-.09-.02-.23-.07-.44-.14l-4.68-1.84s-.06,0-.07.04l-.18.71c-.02.09-.08.12-.18.09l-.32-.13c-.09-.04-.13-.11-.1-.2l.19-.73s0-.06-.04-.07l-1.59-.62c-.09-.04-.13-.11-.1-.2l.12-.45c.02-.1.08-.12.17-.08l1.59.62s.06,0,.07-.04l.36-1.39c.02-.1.08-.12.17-.08l.33.11s.07.05.09.08Z"/>
          <path class="cls-5" d="M246.59,153.94l.14-.46c.03-.1.09-.12.18-.07l6.69,2.93c.09.05.12.11.1.2l-.14.46c-.03.09-.09.11-.18.09l-.63-.28s-.04-.02-.04,0c0,.01,0,.03.01.06.23.3.38.63.46.98.07.35.05.72-.07,1.11-.18.59-.51,1-1.01,1.21-.49.22-1.07.23-1.74.02-.35-.11-.85-.3-1.5-.59-.75-.32-1.29-.58-1.61-.78-.59-.35-1-.8-1.24-1.34s-.26-1.11-.08-1.71c.23-.76.69-1.17,1.39-1.26.02-.01.04-.03.04-.04,0-.02-.01-.03-.04-.04l-.62-.28c-.09-.05-.12-.11-.1-.2ZM250.03,155.61c-.61-.27-1.04-.44-1.29-.51l-.32-.08c-.42-.13-.8-.11-1.13.04-.33.15-.56.43-.68.83-.13.42-.11.83.06,1.22s.44.71.83.95c.32.21.84.48,1.56.8.66.29,1.19.49,1.59.6.43.12.82.1,1.15-.07.34-.16.57-.46.7-.89.13-.42.1-.82-.07-1.19s-.46-.68-.86-.92c-.33-.21-.85-.46-1.54-.77Z"/>
          <path class="cls-5" d="M254.16,153.84c-.43.25-.88.3-1.35.13-.09-.03-.16-.06-.21-.09l-.12-.06c-.09-.05-.12-.12-.08-.21l.15-.42s.04-.08.07-.09c.03-.01.07-.01.1.01l.12.06c.32.17.65.17.98,0,.33-.17.58-.48.74-.94.16-.44.17-.85.04-1.24-.13-.38-.38-.66-.74-.85-.25-.12-.49-.15-.71-.09-.22.06-.41.17-.59.33-.17.16-.4.4-.67.71-.41.49-.79.85-1.15,1.08-.36.23-.78.25-1.25.08-.65-.23-1.09-.65-1.32-1.24-.23-.59-.22-1.24.04-1.94.22-.6.53-1.02.96-1.26s.88-.27,1.36-.1c.11.04.2.08.25.11l.04.02c.09.05.12.12.08.21l-.15.41c-.03.08-.08.11-.14.09l-.09-.05c-.34-.18-.67-.18-.99-.02-.32.16-.57.47-.73.92-.17.47-.18.9-.03,1.3.15.39.43.66.83.81.31.11.59.08.83-.09.24-.17.55-.46.92-.88.29-.34.55-.61.76-.82.22-.2.47-.35.76-.44.29-.09.6-.08.94.04.66.24,1.11.65,1.35,1.25.24.6.23,1.26-.03,1.98-.22.62-.55,1.06-.98,1.31Z"/>
        </g>
        <circle class="cls-4" cx="70.69" cy="50.29" r="2.19"/>
      </g>
    </g>
  </g>
</svg>